<?xml version="1.0" encoding="UTF-8" standalone="no"?>
<svg
   xmlns:dc="http://purl.org/dc/elements/1.1/"
   xmlns:cc="http://creativecommons.org/ns#"
   xmlns:rdf="http://www.w3.org/1999/02/22-rdf-syntax-ns#"
   xmlns:svg="http://www.w3.org/2000/svg"
   xmlns="http://www.w3.org/2000/svg"
   xmlns:sodipodi="http://sodipodi.sourceforge.net/DTD/sodipodi-0.dtd"
   xmlns:inkscape="http://www.inkscape.org/namespaces/inkscape"
   width="610.30627mm"
   height="175.34576mm"
   viewBox="0 0 610.30627 175.34577"
   version="1.1"
   id="svg8"
   inkscape:version="1.0.1 (3bc2e813f5, 2020-09-07)"
   sodipodi:docname="azure.svg">
  <defs
     id="defs2" />
  <sodipodi:namedview
     id="base"
     pagecolor="#ffffff"
     bordercolor="#666666"
     borderopacity="1.0"
     inkscape:pageopacity="0.0"
     inkscape:pageshadow="2"
     inkscape:zoom="0.35"
     inkscape:cx="800.61686"
     inkscape:cy="351.80562"
     inkscape:document-units="mm"
     inkscape:current-layer="layer1"
     inkscape:document-rotation="0"
     showgrid="false"
     inkscape:window-width="1920"
     inkscape:window-height="1016"
     inkscape:window-x="1920"
     inkscape:window-y="27"
     inkscape:window-maximized="0" />
  <metadata
     id="metadata5">
    <rdf:RDF>
      <cc:Work
         rdf:about="">
        <dc:format>image/svg+xml</dc:format>
        <dc:type
           rdf:resource="http://purl.org/dc/dcmitype/StillImage" />
        <dc:title></dc:title>
      </cc:Work>
    </rdf:RDF>
  </metadata>
  <g
     inkscape:label="Layer 1"
     inkscape:groupmode="layer"
     id="layer1"
     transform="translate(87.587829,-141.92534)">
    <path
       style="fill:#0088d5;stroke-width:0.264583"
       d="m -23.116057,315.12493 c 6.47568,-1.15462 30.2798561,-5.37237 52.898172,-9.37281 22.618319,-4.00045 41.170654,-7.31999 41.227412,-7.37674 0.05676,-0.0568 -8.090701,-9.85124 -18.105464,-21.76548 -30.659715,-36.4749 -36.732522,-43.78145 -36.651779,-44.09784 0.197956,-0.77565 27.434593,-75.91045 28.206465,-77.81015 0.309387,-0.76145 0.422248,-0.59255 5.834565,8.73125 12.456231,21.45838 87.688116,151.75363 88.481606,153.24263 l 0.31723,0.59531 -86.991086,-0.0236 -86.991081,-0.0236 11.77396,-2.09926 z M 350.10114,299.79635 c -10.21834,-1.59451 -16.69455,-7.54812 -19.41369,-17.84713 -1.31355,-4.97522 -1.37256,-6.19773 -1.557,-32.26451 l -0.1733,-24.48862 h 5.98498 5.98501 l 0.0924,24.01094 c 0.0895,23.25333 0.10991,24.08608 0.64598,26.39219 1.17997,5.07627 2.64549,7.97351 5.28733,10.45274 3.0675,2.87866 6.23456,3.96705 11.54377,3.96705 3.90769,0 5.70093,-0.36906 8.40169,-1.72915 4.94413,-2.48981 8.68352,-7.56293 10.42691,-14.14585 l 0.66569,-2.51354 v -23.0849 -23.08489 h 5.95313 5.95312 v 36.38021 36.38021 h -5.95312 -5.95313 l -3e-5,-5.75469 -5e-5,-5.75469 -1.3449,2.09907 c -2.5146,3.92465 -6.1857,7.20037 -10.09216,9.00528 -3.62786,1.67619 -5.39068,2.03862 -10.39098,2.13646 -2.47386,0.0484 -5.20222,-0.022 -6.06301,-0.15618 z m 135.50477,-0.10581 c -10.01152,-1.76747 -18.30419,-8.01807 -22.57354,-17.01483 -2.65416,-5.59313 -4.08067,-12.77987 -4.07543,-20.53214 0.005,-7.48144 1.54694,-14.12997 4.77266,-20.57942 2.37451,-4.74758 5.95493,-9.06167 10.06444,-12.12676 3.8913,-2.90234 9.3138,-5.18027 13.82103,-5.80603 3.38003,-0.46928 9.47516,-0.35583 12.10242,0.22525 8.19798,1.8132 14.94089,6.89838 18.61629,14.03948 3.10491,6.03266 4.38259,12.55409 4.38468,22.37995 v 4.256 l -18.85157,0.17558 c -10.36835,0.0965 -22.04466,0.17566 -25.94734,0.17576 l -7.09578,2.2e-4 0.17634,2.18281 c 0.54946,6.80053 3.106,12.92939 7.02691,16.84597 2.76789,2.76484 6.86446,4.88455 11.06641,5.72619 3.06189,0.6133 9.96609,0.42172 13.41385,-0.37224 4.66579,-1.07442 9.08381,-2.97493 12.70881,-5.4669 1.77737,-1.22185 2.10447,-1.36351 2.25825,-0.97804 0.0989,0.24792 0.18822,2.66192 0.19843,5.36451 l 0.0185,4.91374 -1.91822,1.09474 c -4.2418,2.42078 -8.58444,4.08283 -13.29532,5.08849 -3.43889,0.73411 -13.62913,0.98033 -16.87282,0.40767 z m 24.86562,-47.4408 c -0.32446,-5.43761 -2.57114,-10.91636 -5.80088,-14.14611 -1.57319,-1.57318 -4.03331,-3.04591 -6.40451,-3.83402 -1.8864,-0.62696 -2.54135,-0.70961 -5.57699,-0.70374 -2.33754,0.005 -3.99061,0.1487 -5.15938,0.45 -2.3841,0.6146 -5.67552,2.28629 -7.40833,3.76264 -2.86856,2.44399 -5.66521,6.2824 -7.044,9.66793 -0.66194,1.62536 -1.95183,6.26462 -1.95183,7.02003 0,0.3043 3.19132,0.36296 19.74993,0.36296 h 19.74992 z m -349.96675,45.90709 c 0,-0.0403 8.72498,-22.99168 19.38882,-51.00296 l 19.38885,-50.92965 h 6.33331 6.33327 l 19.51694,50.66771 c 10.73428,27.86724 19.5748,50.81654 19.64558,50.99844 0.10091,0.25932 -1.31218,0.3298 -6.54373,0.32641 l -6.67242,-0.004 -5.31598,-14.21704 -5.31599,-14.21704 -21.61034,-0.0677 -21.61032,-0.0677 -0.2686,0.59687 c -0.14772,0.32827 -2.45182,6.72857 -5.12025,14.22289 l -4.85166,13.62604 -6.64874,0.0707 c -3.65681,0.0389 -6.64874,0.0377 -6.64874,-0.003 z m 62.70624,-39.44157 c 0,-0.0456 -3.22064,-8.82648 -7.157,-19.51302 -7.99074,-21.69361 -9.5944,-26.29432 -10.06975,-28.88896 -0.3156,-1.72247 -0.76295,-2.41714 -0.76676,-1.19062 -0.005,1.46253 -1.29141,5.68475 -4.01183,13.16302 -1.61459,4.43838 -5.24155,14.37465 -8.05992,22.08059 -2.81837,7.70594 -5.12432,14.10554 -5.12432,14.22135 0,0.11581 7.91766,0.21056 17.59479,0.21056 9.67714,0 17.59479,-0.0373 17.59479,-0.0829 z m 32.01938,37.7199 0.005,-1.78594 21.55907,-29.63333 21.55904,-29.63334 -19.41975,-0.0678 -19.41976,-0.0678 -0.18328,-3.76862 c -0.1008,-2.07274 -0.1429,-4.3044 -0.0936,-4.95924 l 0.0897,-1.19062 28.24427,-0.0674 28.24427,-0.0673 v 1.68394 1.68395 l -5.34477,7.37923 c -2.9396,4.05858 -12.65515,17.49955 -21.59007,29.86882 l -16.24537,22.48958 21.32552,0.0677 21.32553,0.0677 v 4.89323 4.89323 h -30.03021 -30.03021 l 0.005,-1.78594 z m 158.21604,-34.73162 v -36.51757 l 5.88698,0.0712 5.88698,0.0712 0.13229,7.40833 0.13229,7.40833 0.49432,-1.32291 c 2.84118,-7.60379 8.5048,-13.14859 14.87877,-14.56666 2.2902,-0.50952 7.20039,-0.43276 9.4316,0.14745 l 1.25677,0.32682 v 6.054 c 0,3.3297 -0.0643,6.05401 -0.14282,6.05401 -0.0786,0 -0.624,-0.24545 -1.21206,-0.54546 -1.53228,-0.78172 -4.83349,-1.57155 -6.55881,-1.5692 -5.85134,0.008 -10.81624,2.83531 -13.71131,7.80826 -1.41862,2.43684 -2.79067,5.78538 -3.69684,9.02226 l -0.73187,2.61435 -0.0801,22.02656 -0.0801,22.02657 h -5.94307 -5.9431 z m -501.030957,35.87123 c 0.13088,-0.34105 10.15039,-17.75653 46.2838,-80.44847 l 10.97975,-19.05 9.22485,-7.76328 c 28.6792591,-24.13535 57.837459,-48.48731 57.937395,-48.38737 0.06328,0.0633 -16.22897,35.1924 -36.20499487,78.06472 l -36.32005013,77.94969 -26.02362,0.008 c -22.56722,0.007 -26.00416,-0.0425 -25.87713,-0.37351 z"
       id="path885" />
  </g>
</svg>
