<?xml version="1.0" encoding="UTF-8" standalone="no"?>
<svg
   xmlns:dc="http://purl.org/dc/elements/1.1/"
   xmlns:cc="http://creativecommons.org/ns#"
   xmlns:rdf="http://www.w3.org/1999/02/22-rdf-syntax-ns#"
   xmlns:svg="http://www.w3.org/2000/svg"
   xmlns="http://www.w3.org/2000/svg"
   xmlns:sodipodi="http://sodipodi.sourceforge.net/DTD/sodipodi-0.dtd"
   xmlns:inkscape="http://www.inkscape.org/namespaces/inkscape"
   width="348.09946mm"
   height="297.87683mm"
   viewBox="0 0 348.09946 297.87684"
   version="1.1"
   id="svg8"
   inkscape:version="1.0.1 (3bc2e813f5, 2020-09-07)"
   sodipodi:docname="docker.svg">
  <defs
     id="defs2" />
  <sodipodi:namedview
     id="base"
     pagecolor="#ffffff"
     bordercolor="#666666"
     borderopacity="1.0"
     inkscape:pageopacity="0.0"
     inkscape:pageshadow="2"
     inkscape:zoom="0.35"
     inkscape:cx="-116.16435"
     inkscape:cy="385.42899"
     inkscape:document-units="mm"
     inkscape:current-layer="layer1"
     inkscape:document-rotation="0"
     showgrid="false"
     inkscape:window-width="1920"
     inkscape:window-height="1016"
     inkscape:window-x="1920"
     inkscape:window-y="27"
     inkscape:window-maximized="0" />
  <metadata
     id="metadata5">
    <rdf:RDF>
      <cc:Work
         rdf:about="">
        <dc:format>image/svg+xml</dc:format>
        <dc:type
           rdf:resource="http://purl.org/dc/dcmitype/StillImage" />
        <dc:title></dc:title>
      </cc:Work>
    </rdf:RDF>
  </metadata>
  <g
     inkscape:label="Layer 1"
     inkscape:groupmode="layer"
     id="layer1"
     transform="translate(-154.9772,-133.02916)">
    <path
       style="fill:#2395ec;stroke-width:0.264583"
       d="m 180.58633,430.65433 c -7.43007,-0.8501 -14.39704,-4.84923 -19.44989,-11.16452 -4.33148,-5.41369 -6.43047,-11.9975 -6.13119,-19.23145 0.26533,-6.41329 1.93682,-11.3328 5.48369,-16.13958 1.51797,-2.05719 4.54621,-5.09489 6.73593,-6.75699 2.24945,-1.70743 6.44244,-3.70491 9.53122,-4.54052 2.43251,-0.65807 3.03405,-0.7141 7.6667,-0.7141 4.60136,0 5.24456,0.0589 7.59508,0.69593 3.07963,0.83459 6.49217,2.39068 8.83606,4.02917 0.94499,0.6606 1.82851,1.20109 1.96336,1.20109 0.14656,0 0.2745,-5.6842 0.31805,-14.13084 l 0.0729,-14.13084 0.82181,-1.01655 c 1.26648,-1.56662 2.32742,-2.07146 4.35712,-2.07331 1.47274,-0.001 1.93597,0.12008 3.02217,0.79217 0.84346,0.52189 1.49375,1.19313 1.89868,1.95984 l 0.61585,1.16609 -0.001,26.74745 c -10e-4,28.60221 -0.0251,29.20003 -1.33442,33.22974 -1.41421,4.35269 -3.60789,7.86532 -7.12194,11.40402 -6.80637,6.85414 -15.20126,9.78059 -24.88008,8.6732 z m 7.75298,-11.23754 c 3.88071,-0.85744 7.97449,-3.37606 10.39357,-6.39445 1.44284,-1.80031 3.11102,-5.12757 3.67473,-7.32946 0.58257,-2.27552 0.52597,-6.45941 -0.12164,-8.99153 -0.82046,-3.20794 -2.16805,-5.47575 -4.8986,-8.24362 -1.96492,-1.99179 -2.77444,-2.60498 -4.6302,-3.50732 -3.05587,-1.48586 -5.12971,-1.97806 -8.33438,-1.97806 -3.18145,0 -5.29333,0.49547 -8.20208,1.92427 -10.55835,5.18637 -13.48353,18.70885 -6.08417,28.12572 4.11981,5.24311 11.56937,7.86006 18.20277,6.39445 z m 57.0704,11.25326 c -11.81811,-1.47659 -22.0227,-10.52079 -24.90983,-22.07731 -1.19667,-4.78999 -0.88611,-12.13769 0.71155,-16.83501 3.42801,-10.07878 12.93248,-18.03001 23.37773,-19.55731 3.36157,-0.49153 9.06595,-0.19857 12.24571,0.62889 7.86114,2.04568 15.09655,7.96962 18.85158,15.43458 3.14161,6.24551 3.85579,13.84812 1.98968,21.18083 -2.04824,8.04839 -9.14159,15.96015 -17.28628,19.28069 -4.29977,1.753 -10.29007,2.53064 -14.98014,1.94464 z m 9.33353,-11.70453 c 11.03844,-3.56161 16.07093,-15.84995 10.72625,-26.19135 -1.60524,-3.10596 -4.806,-6.2721 -7.8894,-7.80406 -1.23693,-0.61456 -3.02287,-1.31636 -3.96875,-1.55957 -2.29453,-0.58996 -6.70645,-0.57313 -8.99584,0.0343 -8.91617,2.36574 -14.96326,11.23186 -13.74221,20.14858 0.60908,4.44788 2.15639,7.54612 5.41359,10.83987 1.73911,1.75861 2.57532,2.37011 4.6302,3.38587 3.29614,1.62936 5.18645,2.03711 8.8578,1.91061 2.17569,-0.075 3.42993,-0.26789 4.96836,-0.76427 z m 55.22435,11.70709 c -9.69525,-1.19856 -18.43067,-7.5302 -22.79678,-16.52362 -3.68071,-7.58164 -3.81711,-17.43058 -0.34545,-24.94452 3.65029,-7.90058 11.01427,-14.14883 19.30577,-16.38074 2.40754,-0.64806 3.08667,-0.71361 7.54062,-0.72785 5.37491,-0.0172 7.02092,0.24424 10.86018,1.72482 4.05246,1.56279 8.7648,4.87379 9.78629,6.87607 0.57961,1.13613 0.69816,3.4447 0.23939,4.66156 -0.38086,1.0102 -1.78196,2.44782 -2.81954,2.89304 -1.12021,0.48067 -3.6096,0.46642 -4.56205,-0.0261 -0.41632,-0.21529 -1.64077,-1.02556 -2.72101,-1.80059 -3.44217,-2.46964 -6.47389,-3.45232 -10.65096,-3.45232 -4.15051,0 -7.58809,1.13514 -11.16312,3.68623 -3.19474,2.27972 -5.90515,6.36163 -6.86739,10.34241 -0.56816,2.35046 -0.56816,6.56349 0,8.81362 1.28063,5.07177 5.00951,9.68647 9.69681,12.00036 6.53585,3.22641 13.50901,2.62173 19.30345,-1.67386 2.15298,-1.59607 2.81506,-1.85984 4.66843,-1.85984 2.43913,0 4.31779,1.35597 5.09507,3.6775 0.74444,2.22348 0.18797,3.95081 -1.92642,5.9798 -3.00435,2.883 -7.96349,5.36625 -12.63205,6.32539 -2.57084,0.52816 -7.43753,0.72681 -10.01124,0.40865 z m 34.79271,-0.11681 c -1.31057,-0.45942 -3.23399,-2.50362 -3.44025,-3.65625 -0.0831,-0.46437 -0.11695,-17.93997 -0.0752,-38.83468 l 0.0759,-37.99037 0.75752,-1.09306 c 0.92126,-1.32933 2.97857,-2.4335 4.53415,-2.4335 1.55551,0 3.61288,1.10417 4.53415,2.43343 l 0.75752,1.09298 0.0707,21.52013 c 0.0389,11.83607 0.1173,21.52013 0.17424,21.52013 0.057,0 7.16888,-4.5996 15.8043,-10.22133 8.63542,-5.62174 16.08389,-10.38424 16.55216,-10.58334 1.92656,-0.81914 4.69318,-0.24149 6.06296,1.2659 1.61066,1.77248 1.98892,4.56387 0.88467,6.52862 -0.63,1.12093 -1.12441,1.46302 -16.32833,11.29788 -3.81798,2.46972 -6.94337,4.58114 -6.94531,4.69204 -0.002,0.1109 5.0864,5.92576 11.30742,12.92196 6.22102,6.99616 11.53248,13.06925 11.80326,13.49578 1.63222,2.57099 0.69857,6.11545 -2.01731,7.65842 -1.38177,0.78505 -3.83862,0.8691 -5.13741,0.17576 -0.46287,-0.24706 -6.11834,-6.37312 -12.56771,-13.61339 -6.44938,-7.2403 -12.0238,-13.49433 -12.3876,-13.89785 l -0.66146,-0.73369 -3.24115,2.16014 -3.24114,2.16011 v 10.17371 c 0,11.36202 0.0278,11.16965 -1.86055,12.87568 -1.57026,1.41862 -3.41124,1.78739 -5.41549,1.08479 z m 73.81875,0.11909 c -6.54919,-1.01865 -12.16859,-4.00764 -16.93808,-9.00949 -3.64484,-3.82238 -5.89732,-7.77126 -7.21248,-12.64433 -0.62601,-2.31957 -0.68684,-2.99027 -0.68684,-7.57208 0,-4.58182 0.0608,-5.25251 0.68684,-7.57208 1.33335,-4.94049 3.58241,-8.86805 7.26664,-12.68986 3.69922,-3.83735 7.07423,-6.07342 11.45996,-7.59262 3.5823,-1.24089 5.50002,-1.5171 10.31875,-1.48619 3.80781,0.0244 4.69821,0.11619 6.96839,0.71821 10.04697,2.66433 18.44857,10.87771 21.05512,20.58343 0.7648,2.8478 1.16723,6.10328 1.01589,8.21834 -0.16087,2.24811 -1.03828,3.68786 -2.82112,4.62909 l -1.1661,0.61564 H 427.0041 c -19.95565,0 -21.52193,0.0322 -21.52193,0.44328 0,0.80187 1.831,4.16851 3.16123,5.81252 2.38406,2.94643 6.20094,5.32355 10.08485,6.28076 2.44869,0.60349 6.522,0.56105 9.08582,-0.0946 2.53108,-0.64735 4.5371,-1.70071 7.04437,-3.69906 2.73537,-2.18011 4.56906,-2.6217 6.75807,-1.62748 2.93669,1.33382 4.01891,5.08339 2.31544,8.02222 -1.50061,2.5889 -8.51045,6.78061 -13.44665,8.04077 -2.97243,0.75882 -9.00528,1.07479 -11.90625,0.62357 z m 22.09271,-35.0161 c 0,-1.01859 -2.25698,-4.75748 -3.99577,-6.61937 -3.56272,-3.8149 -7.66929,-5.70272 -12.88023,-5.92112 -3.60249,-0.15098 -5.79095,0.29131 -8.92088,1.80294 -3.84155,1.85532 -6.58072,4.53639 -8.47481,8.29507 -1.58035,3.13607 -3.52401,2.80872 16.6769,2.80872 14.80926,0 17.59479,-0.058 17.59479,-0.36624 z m 21.89797,35.02779 c -1.36734,-0.41171 -2.5891,-1.37186 -3.31332,-2.60384 l -0.72528,-1.23375 -0.0829,-24.60625 c -0.06,-17.82122 0,-24.99387 0.22114,-26.01196 1.29947,-6.00859 10.27845,-5.5179 10.78492,0.58938 l 0.12033,1.45118 1.99686,-1.34746 c 2.65928,-1.79447 5.77244,-3.22468 8.95432,-4.11369 2.4515,-0.68494 2.92775,-0.72896 7.77092,-0.71822 5.38753,0.012 6.85565,0.21998 10.08843,1.42952 1.83298,0.68581 3.59413,2.17288 4.22921,3.57106 1.55583,3.42534 -1.01696,7.5554 -4.70657,7.5554 -0.79547,0 -2.26153,-0.28993 -3.40207,-0.6728 -4.1584,-1.39593 -8.60089,-1.40082 -12.58914,-0.0138 -2.7677,0.96251 -4.61912,2.16136 -6.98523,4.5231 -2.29336,2.28914 -3.57828,4.40661 -4.65604,7.67291 -0.60049,1.81986 -0.61362,2.10521 -0.75371,16.40417 -0.1583,16.15512 -0.063,15.33414 -1.97393,17.01192 -1.38464,1.21573 -3.25117,1.63311 -4.97798,1.11318 z m 18.13309,-0.78417 c -1.03452,-0.63079 -1.73863,-1.92095 -1.73863,-3.18571 0,-2.19372 1.61007,-3.7015 3.95446,-3.70319 1.51789,0 2.67399,0.72385 3.40323,2.13408 0.79415,1.53566 0.33259,3.28154 -1.21091,4.5803 -1.04863,0.88234 -3.1132,0.96409 -4.40815,0.17452 z m 3.58683,-0.65233 c 1.22364,-0.63278 1.7541,-2.59379 1.06574,-3.93983 -1.20092,-2.34828 -4.92903,-1.82128 -5.41428,0.76533 -0.47275,2.52006 2.05113,4.36253 4.34854,3.1745 z m -2.87206,-2.53338 v -1.85209 h 1.31361 c 1.52775,0 2.12341,0.59886 1.47613,1.48405 -0.2006,0.27435 -0.27008,0.61823 -0.15441,0.76417 0.11568,0.14592 0.29245,0.53322 0.39283,0.86064 0.14618,0.47688 0.0794,0.59531 -0.33581,0.59531 -0.33221,0 -0.57793,-0.23749 -0.68432,-0.66146 -0.10721,-0.42709 -0.35173,-0.66146 -0.69016,-0.66146 -0.38267,0 -0.52412,0.17852 -0.52412,0.66146 0,0.41159 -0.14994,0.66146 -0.39687,0.66146 -0.31499,0 -0.39688,-0.38216 -0.39688,-1.85208 z m 1.98438,-0.79375 c 0,-0.21828 -0.26789,-0.43493 -0.59531,-0.48144 -0.45818,-0.0651 -0.59532,0.0458 -0.59532,0.48144 0,0.43558 0.13714,0.54649 0.59532,0.48143 0.32742,-0.0465 0.59531,-0.26315 0.59531,-0.48143 z M 293.29884,323.25465 c -8.82209,-0.54304 -18.08476,-1.8786 -25.5323,-3.68144 -18.00719,-4.35904 -29.35661,-11.35311 -38.56379,-23.76491 -11.04435,-14.88841 -17.67105,-37.42264 -17.9911,-61.17911 -0.0645,-4.78628 -0.0507,-4.92732 0.62227,-6.36207 0.9102,-1.94056 2.01187,-3.15397 3.72534,-4.10315 l 1.40728,-0.77957 90.22292,-0.13787 c 85.43022,-0.13054 90.37023,-0.16325 92.996,-0.61567 5.09193,-0.87736 11.05964,-2.65604 12.95623,-3.86163 0.31671,-0.20132 0.14391,-0.70184 -0.99258,-2.87507 -1.68486,-3.22181 -3.02357,-7.22408 -3.62957,-10.85111 -0.61955,-3.70817 -0.42825,-10.91463 0.39014,-14.69698 1.30255,-6.01994 4.09049,-12.596 7.50202,-17.69544 1.04652,-1.5643 2.00814,-2.84422 2.13692,-2.84427 0.12878,-5e-5 1.48357,0.74405 3.01067,1.65356 9.80146,5.83757 17.04348,15.77066 19.27336,26.43515 0.25368,1.2133 0.48472,2.24047 0.5134,2.28259 0.0287,0.0421 0.81793,-0.0457 1.75384,-0.19524 3.6965,-0.59052 9.34577,-0.82398 13.08,-0.54053 8.07818,0.61316 14.34084,2.65676 18.62312,6.077 0.94589,0.75547 1.75347,1.46465 1.79467,1.57594 0.13541,0.366 -1.30254,4.07798 -2.41176,6.22575 -1.52551,2.95385 -3.81378,5.96911 -6.58029,8.67092 -7.01157,6.84752 -16.26751,10.48469 -27.90518,10.96548 l -4.01402,0.16584 -0.98457,2.40683 c -12.61486,30.83838 -27.98954,51.15223 -49.72489,65.69919 -18.07624,12.09799 -39.99327,19.32999 -65.61667,21.65161 -5.37688,0.48717 -20.66089,0.70663 -26.06146,0.3742 z M 234.13932,217.40376 c -0.47545,-0.52511 -0.50837,-1.16641 -0.58055,-11.31093 -0.0421,-5.91485 -0.0109,-11.01886 0.0693,-11.34225 0.0802,-0.3234 0.40501,-0.82941 0.72173,-1.12448 0.56142,-0.52305 0.88538,-0.53649 12.92569,-0.53649 12.09338,0 12.36433,0.0114 13.04699,0.54837 l 0.69714,0.54837 v 11.35788 c 0,11.0051 -0.0164,11.37431 -0.52917,11.88705 -0.51442,0.51441 -0.88194,0.52916 -13.18816,0.52916 -12.53144,0 -12.66407,-0.006 -13.16302,-0.55668 z m 32.39976,0.051 -0.62462,-0.50573 v -11.24682 -11.24683 l 0.64143,-0.68286 0.64144,-0.68286 h 12.47169 c 12.09775,0 12.4887,0.0159 13.03857,0.52812 0.31178,0.29047 0.63771,0.91555 0.72429,1.38906 0.0866,0.47352 0.12182,5.60429 0.0783,11.40171 l -0.0791,10.54077 -0.62462,0.50559 c -0.59523,0.48179 -1.21342,0.50558 -13.13372,0.50558 -11.9216,0 -12.53841,-0.0238 -13.13371,-0.50573 z m 32.80834,1.5e-4 -0.62462,-0.50559 -0.0791,-10.54077 c -0.0435,-5.79742 -0.008,-10.92819 0.0783,-11.40171 0.0866,-0.47351 0.4125,-1.09859 0.72428,-1.38906 0.54987,-0.51229 0.94082,-0.52812 13.03857,-0.52812 h 12.4717 l 0.64143,0.68286 0.64143,0.68286 v 11.24683 11.24682 l -0.62462,0.50573 c -0.59529,0.48198 -1.21211,0.50573 -13.13371,0.50573 -11.92029,0 -12.53849,-0.0238 -13.13371,-0.50558 z m 32.36212,-0.10678 c -0.57191,-0.60877 -0.57529,-0.67792 -0.57529,-11.78599 v -11.17367 l 0.64944,-0.64943 0.64943,-0.64943 h 12.45947 12.45947 l 0.64943,0.64943 0.64943,0.64943 v 11.08885 c 0,10.81765 -0.0134,11.10589 -0.54837,11.78598 l -0.54837,0.69714 H 344.9195 332.28483 Z m 32.77697,0.0979 c -0.28292,-0.28292 -0.58642,-0.908 -0.67444,-1.38906 -0.088,-0.48106 -0.12443,-5.55827 -0.0809,-11.28268 l 0.0791,-10.40802 0.74236,-0.63833 0.74236,-0.63833 h 12.37077 c 11.99689,0 12.3879,0.016 12.93764,0.52812 0.31178,0.29047 0.63771,0.91555 0.72428,1.38906 0.0866,0.47352 0.12183,5.60429 0.0783,11.40171 l -0.0791,10.54077 -0.62463,0.50559 c -0.59527,0.48182 -1.21387,0.50558 -13.16302,0.50558 -12.06572,0 -12.55779,-0.0194 -13.05281,-0.51441 z m -97.82969,-30.02213 -0.74236,-0.63862 v -11.23993 c 0,-10.6818 0.025,-11.26758 0.50403,-11.7968 0.4991,-0.55141 0.62868,-0.55686 13.2543,-0.55686 12.62624,0 12.75519,0.005 13.25431,0.55695 0.479,0.52928 0.50403,1.1151 0.50403,11.79686 v 11.23993 l -0.74236,0.63854 -0.74236,0.63855 h -12.27362 -12.27361 z m 32.80833,7e-5 -0.74235,-0.63854 V 175.5455 c 0,-10.68176 0.025,-11.26758 0.50402,-11.79686 0.49913,-0.55153 0.62807,-0.55695 13.25431,-0.55695 12.62563,0 12.7552,0.005 13.2543,0.55686 0.47901,0.52922 0.50403,1.115 0.50403,11.7968 v 11.23993 l -0.74235,0.63862 -0.74236,0.63862 h -12.27362 -12.27362 z m 32.31854,-0.0109 -0.64944,-0.64943 v -11.20693 c 0,-10.91258 0.0142,-11.22214 0.53948,-11.78598 l 0.53947,-0.57907 h 12.64357 12.64358 l 0.57529,0.61237 c 0.57191,0.60877 0.57528,0.67791 0.57528,11.78598 v 11.17362 l -0.64943,0.64943 -0.64943,0.64943 h -12.45947 -12.45947 l -0.64943,-0.64943 z m -0.0742,-30.12544 c -0.57191,-0.60877 -0.57529,-0.67792 -0.57529,-11.78599 v -11.17362 l 0.64944,-0.64943 0.64943,-0.64943 h 12.45947 12.45947 l 0.64943,0.64943 0.64943,0.64943 v 11.08885 c 0,10.81765 -0.0134,11.10589 -0.54837,11.78598 l -0.54837,0.69714 h -12.63468 -12.63467 z"
       id="path919" />
  </g>
</svg>
