<?xml version="1.0" encoding="UTF-8" standalone="no"?>
<svg
   xmlns:dc="http://purl.org/dc/elements/1.1/"
   xmlns:cc="http://creativecommons.org/ns#"
   xmlns:rdf="http://www.w3.org/1999/02/22-rdf-syntax-ns#"
   xmlns:svg="http://www.w3.org/2000/svg"
   xmlns="http://www.w3.org/2000/svg"
   xmlns:sodipodi="http://sodipodi.sourceforge.net/DTD/sodipodi-0.dtd"
   xmlns:inkscape="http://www.inkscape.org/namespaces/inkscape"
   width="317.45486mm"
   height="317.36768mm"
   viewBox="0 0 317.45486 317.36769"
   version="1.1"
   id="svg8"
   inkscape:version="1.0.1 (3bc2e813f5, 2020-09-07)"
   sodipodi:docname="dotnetcore.svg">
  <defs
     id="defs2" />
  <sodipodi:namedview
     id="base"
     pagecolor="#ffffff"
     bordercolor="#666666"
     borderopacity="1.0"
     inkscape:pageopacity="0.0"
     inkscape:pageshadow="2"
     inkscape:zoom="0.35"
     inkscape:cx="-334.44419"
     inkscape:cy="229.74795"
     inkscape:document-units="mm"
     inkscape:current-layer="layer1"
     inkscape:document-rotation="0"
     showgrid="false"
     inkscape:window-width="1920"
     inkscape:window-height="1016"
     inkscape:window-x="1920"
     inkscape:window-y="27"
     inkscape:window-maximized="0" />
  <metadata
     id="metadata5">
    <rdf:RDF>
      <cc:Work
         rdf:about="">
        <dc:format>image/svg+xml</dc:format>
        <dc:type
           rdf:resource="http://purl.org/dc/dcmitype/StillImage" />
        <dc:title></dc:title>
      </cc:Work>
    </rdf:RDF>
  </metadata>
  <g
     inkscape:label="Layer 1"
     inkscape:groupmode="layer"
     id="layer1"
     transform="translate(-212.73041,-174.21977)">
    <g
       id="g953"
       transform="translate(93.267286,16.970448)">
      <path
         style="fill:#6c419b;stroke-width:0.264583"
         d="m 270.52452,474.55713 c -4.50671,-0.26064 -11.67728,-0.98322 -15.74271,-1.58633 -59.47144,-8.82314 -109.11139,-50.86274 -127.60495,-108.06741 -16.75904,-51.83942 -5.81284,-108.67561 28.97194,-150.43161 3.15139,-3.78297 8.34319,-9.38385 11.6218,-12.53756 1.28592,-1.23692 1.89542,-1.77015 1.35444,-1.18494 l -0.98359,1.06402 37.96237,37.96168 37.96237,37.96168 0.001,19.7118 c 10e-4,17.35513 0.22492,27.10872 0.6664,29.03837 0.25042,1.09453 -0.2606,0.60623 -1.38786,-1.32616 -0.6145,-1.05325 -11.57669,-18.28608 -24.36052,-38.2952 l -23.24332,-36.38021 -6.92655,-0.0705 -6.92655,-0.0705 v 45.24814 45.24814 h 5.30254 5.30255 l -0.0991,-38.16614 c -0.0545,-20.99138 -0.19235,-38.49357 -0.3063,-38.89375 -0.40922,-1.43707 0.27137,-0.67627 1.3097,1.46404 0.58209,1.19985 11.70502,18.69976 24.71764,38.8887 l 23.65929,36.70715 h 6.43706 6.43705 v -45.23815 -45.23816 l -5.22552,-0.0806 -5.22552,-0.0806 5.29167,0.009 5.29166,0.009 0.0679,19.18514 0.0679,19.18513 11.63996,11.6377 11.63995,11.6377 v 14.48706 14.48707 h 14.48624 14.48625 l 42.59194,42.59255 42.59195,42.59256 1.064,-0.98295 c 0.58521,-0.54065 -0.18616,0.30544 -1.71413,1.88018 -5.31625,5.47892 -12.78399,11.9964 -19.05,16.62586 -23.85702,17.6261 -51.39637,28.00009 -81.35937,30.6478 -3.25866,0.28795 -17.69302,0.53859 -20.7698,0.36066 z M 244.1494,403.96268 c 1.39278,-0.3533 3.07492,-0.88239 3.7381,-1.17574 l 1.20577,-0.53338 v -2.26829 -2.26829 l -1.25677,0.63578 c -2.53828,1.28409 -4.77184,1.80559 -8.36125,1.95223 -2.22444,0.0909 -3.91712,0.0258 -4.89479,-0.18829 -5.33053,-1.16706 -9.64785,-5.63602 -11.00414,-11.39066 -0.6047,-2.56567 -0.54739,-7.84947 0.11315,-10.43216 1.56601,-6.12305 6.21935,-10.69114 12.17464,-11.95161 3.47076,-0.7346 8.88374,-0.0563 11.92276,1.49413 0.56141,0.28641 1.08501,0.52074 1.16357,0.52074 0.0786,0 0.14283,-1.07451 0.14283,-2.3878 0,-2.36027 -0.008,-2.39104 -0.7276,-2.66917 -3.24068,-1.25319 -8.69738,-1.83901 -12.32287,-1.32296 -9.21311,1.31139 -16.16133,8.15125 -17.79746,17.51988 -0.52024,2.97893 -0.3787,7.9049 0.3033,10.55588 0.60415,2.3484 2.17193,5.61811 3.64245,7.59659 2.16193,2.90873 6.00597,5.43751 9.76129,6.4214 3.0127,0.78932 8.86333,0.73738 12.19702,-0.10828 z m 29.5884,0.12282 c 4.87806,-1.50723 8.55195,-5.49165 9.87962,-10.71468 0.5264,-2.07084 0.52153,-7.13831 -0.009,-9.38927 -1.21318,-5.14711 -4.7704,-8.95431 -9.52299,-10.1922 -2.039,-0.53109 -6.32666,-0.52565 -8.39632,0.0107 -5.10309,1.32235 -8.99179,5.28472 -10.36661,10.56301 -0.53304,2.04649 -0.5339,7.1086 -0.002,9.36685 0.83458,3.54056 3.44857,7.21368 6.34009,8.90896 2.43887,1.42988 4.45776,1.95184 7.5789,1.95941 2.06735,0.005 3.26363,-0.13135 4.49792,-0.51273 z m -5.50521,-3.45038 c -5.11401,-0.56028 -8.55598,-5.13668 -8.55598,-11.3759 0,-4.99332 2.23534,-9.14213 5.82083,-10.80349 1.895,-0.87807 5.08979,-1.09106 7.16792,-0.47788 4.10308,1.21067 6.59584,5.42622 6.5865,11.13852 -0.009,5.47468 -1.91723,9.22785 -5.48686,10.79146 -1.77683,0.77832 -3.27229,0.97491 -5.53241,0.72729 z m 62.03641,3.06135 c 1.06315,-0.39281 2.34307,-0.95615 2.84427,-1.25186 l 0.91125,-0.53766 v -2.23629 -2.23628 l -0.87348,0.66624 c -3.25868,2.48551 -9.23949,3.29404 -12.62027,1.70611 -1.84926,-0.86859 -3.21143,-2.20893 -4.05305,-3.98811 -0.7001,-1.48 -1.36907,-4.51488 -1.13162,-5.13368 0.11701,-0.30492 1.92634,-0.36738 10.64099,-0.36738 h 10.5 l -0.16735,-3.10886 c -0.18269,-3.39366 -0.61372,-5.19089 -1.8165,-7.57409 -1.10324,-2.18596 -2.80772,-3.90337 -4.91462,-4.95186 -1.63969,-0.81599 -2.01854,-0.89484 -4.75007,-0.98862 -2.4472,-0.084 -3.28323,-0.006 -4.7625,0.44456 -4.29519,1.30816 -7.59057,4.79322 -9.12521,9.65048 -0.73565,2.32838 -0.91999,7.11422 -0.37375,9.70339 0.87327,4.13926 3.29607,7.74619 6.4037,9.5335 2.26137,1.30059 3.77565,1.58868 7.78332,1.48079 3.08023,-0.0829 3.83794,-0.19447 5.50489,-0.81038 z M 315.40352,385.6212 c 1.1677,-4.86888 4.57863,-8.00364 8.70877,-8.00364 1.45136,0 3.56164,0.79459 4.5988,1.7316 1.22488,1.10661 2.39147,3.60688 2.59272,5.55682 l 0.14891,1.44283 h -8.11185 -8.11184 z m -18.68525,9.35444 c 0,-10.07038 0.12655,-11.02468 1.81477,-13.68537 1.72233,-2.71446 4.92902,-3.87052 7.61875,-2.74667 0.52242,0.21828 0.99485,0.39687 1.04984,0.39687 0.055,0 0.1,-1.05882 0.1,-2.35294 0,-2.74237 0.0701,-2.67414 -2.74782,-2.67414 -1.51922,0 -2.18902,0.13865 -3.26854,0.6766 -1.63716,0.81583 -3.07526,2.3461 -3.92169,4.17303 l -0.62621,1.35161 -0.0757,-2.90218 -0.0757,-2.90218 -2.44739,-0.0761 -2.4474,-0.0761 v 14.95888 14.95889 h 2.51354 2.51354 z M 159.02403,341.39681 c 1.35056,-0.61339 2.94191,-2.213 3.58046,-3.59904 0.74992,-1.62778 0.66949,-4.18459 -0.18561,-5.90055 -2.27026,-4.55583 -7.93669,-5.34807 -11.38488,-1.59176 -1.32343,1.44169 -1.80513,2.74992 -1.7845,4.84647 0.0268,2.7294 1.47067,4.97933 3.93039,6.12476 1.68481,0.78458 4.2644,0.8376 5.84414,0.12012 z m 236.91299,80.80304 c 0.49366,-0.50932 0.95708,-0.92604 1.02984,-0.92604 0.0728,0 -0.27159,0.41672 -0.76525,0.92604 -0.49366,0.50932 -0.95708,0.92604 -1.02984,0.92604 -0.0728,0 0.27159,-0.41672 0.76525,-0.92604 z m 1.32292,-1.538 c 0,-0.0455 0.38695,-0.43249 0.8599,-0.8599 l 0.85989,-0.7771 -0.77711,0.85989 c -0.72437,0.80155 -0.94268,0.98152 -0.94268,0.77711 z m 2.24896,-2.56304 c 0.26339,-0.29104 0.53843,-0.52917 0.61119,-0.52917 0.0728,0 -0.0832,0.23813 -0.34661,0.52917 -0.26339,0.29104 -0.53843,0.52916 -0.61119,0.52916 -0.0728,0 0.0832,-0.23812 0.34661,-0.52916 z m 1.32291,-1.5875 c 0.2634,-0.29104 0.53843,-0.52917 0.61119,-0.52917 0.0728,0 -0.0832,0.23813 -0.3466,0.52917 -0.26339,0.29104 -0.53843,0.52916 -0.61119,0.52916 -0.0728,0 0.0832,-0.23812 0.3466,-0.52916 z m 0.92605,-1.15823 c 0,-0.0549 0.20836,-0.2633 0.46302,-0.46302 0.41965,-0.32911 0.42899,-0.31975 0.0999,0.0999 -0.34565,0.44073 -0.56292,0.58089 -0.56292,0.36313 z m 1.05833,-1.32292 c 0,-0.0549 0.20836,-0.2633 0.46302,-0.46302 0.41966,-0.32911 0.429,-0.31975 0.0999,0.0999 -0.34565,0.44073 -0.56293,0.58088 -0.56293,0.36312 z m 0.79375,-1.05833 c 0,-0.0549 0.20836,-0.2633 0.46302,-0.46302 0.41966,-0.32911 0.429,-0.31975 0.0999,0.0999 -0.34565,0.44073 -0.56293,0.58089 -0.56293,0.36313 z m 2.38125,-3.175 c 0,-0.0549 0.20836,-0.2633 0.46302,-0.46302 0.41966,-0.32911 0.429,-0.31975 0.0999,0.0999 -0.34565,0.44073 -0.56293,0.58089 -0.56293,0.36313 z m 12.43542,-19.74386 c 0.15576,-0.29104 0.34274,-0.52916 0.4155,-0.52916 0.0728,0 0.005,0.23812 -0.15092,0.52916 -0.15576,0.29105 -0.34274,0.52917 -0.4155,0.52917 -0.0728,0 -0.005,-0.23812 0.15092,-0.52917 z m 13.51462,-35.07934 c 0.0127,-0.30822 0.0754,-0.37092 0.15986,-0.15985 0.0764,0.191 0.067,0.4192 -0.0209,0.50712 -0.0879,0.0879 -0.15047,-0.0684 -0.13898,-0.34727 z m 1.05834,-4.49791 c 0.0127,-0.30823 0.0754,-0.37092 0.15986,-0.15986 0.0764,0.191 0.067,0.4192 -0.0209,0.50712 -0.0879,0.0879 -0.15046,-0.0683 -0.13898,-0.34726 z m 0.52916,-2.38125 c 0.0127,-0.30823 0.0754,-0.37092 0.15986,-0.15986 0.0764,0.191 0.0671,0.4192 -0.0209,0.50712 -0.0879,0.0879 -0.15047,-0.0684 -0.13898,-0.34726 z m 0.26459,-1.32292 c 0.0127,-0.30823 0.0754,-0.37092 0.15986,-0.15985 0.0764,0.19099 0.067,0.4192 -0.0209,0.50712 -0.0879,0.0879 -0.15046,-0.0684 -0.13898,-0.34727 z m 0.52916,-2.91042 c 0.0127,-0.30822 0.0754,-0.37092 0.15986,-0.15985 0.0764,0.191 0.067,0.4192 -0.0209,0.50712 -0.0879,0.0879 -0.15047,-0.0684 -0.13898,-0.34727 z m 0.26459,-1.5875 c 0.0127,-0.30822 0.0754,-0.37092 0.15986,-0.15985 0.0764,0.191 0.067,0.4192 -0.0209,0.50712 -0.0879,0.0879 -0.15046,-0.0684 -0.13898,-0.34727 z m 0.26458,-1.5875 c 0.0127,-0.30822 0.0754,-0.37092 0.15986,-0.15985 0.0764,0.191 0.067,0.4192 -0.0209,0.50712 -0.0879,0.0879 -0.15047,-0.0683 -0.13899,-0.34727 z m -74.63338,-40.19212 v -40.34647 l -13.03073,-0.0712 -13.03073,-0.0712 13.16303,-0.0636 13.16302,-0.0636 v 40.48125 c 0,22.26469 -0.0595,40.48125 -0.13229,40.48125 -0.0728,0 -0.1323,-18.15591 -0.1323,-40.34646 z m 74.91886,38.49438 c 0,-0.3638 0.0601,-0.51263 0.13346,-0.33073 0.0734,0.1819 0.0734,0.47956 0,0.66146 -0.0734,0.1819 -0.13346,0.0331 -0.13346,-0.33073 z m 0.26459,-1.85208 c 0,-0.36381 0.0601,-0.51263 0.13345,-0.33073 0.0734,0.1819 0.0734,0.47955 0,0.66146 -0.0734,0.1819 -0.13345,0.0331 -0.13345,-0.33073 z m 0.26458,-2.11667 c 0,-0.3638 0.0601,-0.51263 0.13346,-0.33073 0.0734,0.1819 0.0734,0.47956 0,0.66146 -0.0734,0.1819 -0.13346,0.0331 -0.13346,-0.33073 z m 0.26458,-2.38125 c 0,-0.3638 0.0601,-0.51263 0.13346,-0.33073 0.0734,0.1819 0.0734,0.47956 0,0.66146 -0.0734,0.1819 -0.13346,0.0331 -0.13346,-0.33073 z m -146.88552,-5.88367 v -4.03159 l 3.96875,3.96213 c 2.18281,2.17918 3.96875,3.99339 3.96875,4.03159 0,0.0382 -1.78594,0.0695 -3.96875,0.0695 h -3.96875 z m 147.16971,2.97325 c 0,-0.50932 0.0544,-0.71768 0.121,-0.46302 0.0666,0.25466 0.0666,0.67138 0,0.92604 -0.0666,0.25467 -0.121,0.0463 -0.121,-0.46302 z m 0.27528,-3.43958 c 0,-0.65484 0.0516,-0.92273 0.11464,-0.59531 0.0631,0.32742 0.0631,0.8632 0,1.19062 -0.063,0.32742 -0.11464,0.0595 -0.11464,-0.59531 z m 0.29149,-6.48229 c 0,-1.60073 0.0442,-2.22146 0.0968,-1.3794 0.0527,0.84205 0.0522,2.15174 0,2.91041 -0.0533,0.75867 -0.0964,0.0697 -0.0958,-1.53101 z m 0,-7.67292 c 0,-1.60073 0.0442,-2.22146 0.0968,-1.3794 0.0527,0.84206 0.0522,2.15174 0,2.91042 -0.0533,0.75867 -0.0964,0.0697 -0.0958,-1.53102 z m -0.29149,-6.48229 c 0,-0.65484 0.0516,-0.92273 0.11464,-0.59531 0.0631,0.32742 0.0631,0.8632 0,1.19062 -0.063,0.32742 -0.11464,0.0595 -0.11464,-0.59531 z m -0.27528,-3.43958 c 0,-0.50933 0.0544,-0.71769 0.121,-0.46302 0.0666,0.25466 0.0666,0.67138 0,0.92604 -0.0666,0.25466 -0.121,0.0463 -0.121,-0.46302 z m -0.28419,-2.91042 c 0,-0.3638 0.0601,-0.51263 0.13346,-0.33073 0.0734,0.1819 0.0734,0.47956 0,0.66146 -0.0734,0.1819 -0.13346,0.0331 -0.13346,-0.33073 z m -114.34177,-4.4959 v -4.76048 l -16.33802,-0.0702 -16.33803,-0.0702 16.47032,-0.0641 16.47031,-0.0641 v 4.89479 c 0,2.69214 -0.0595,4.89479 -0.13229,4.89479 -0.0728,0 -0.13229,-2.14221 -0.13229,-4.76048 z m 114.07719,2.11465 c 0,-0.3638 0.0601,-0.51263 0.13346,-0.33073 0.0734,0.1819 0.0734,0.47956 0,0.66146 -0.0734,0.1819 -0.13346,0.0331 -0.13346,-0.33073 z m -0.26458,-2.11667 c 0,-0.3638 0.0601,-0.51263 0.13345,-0.33073 0.0734,0.18191 0.0734,0.47956 0,0.66146 -0.0734,0.1819 -0.13345,0.0331 -0.13345,-0.33073 z m -0.26459,-1.85208 c 0,-0.3638 0.0601,-0.51263 0.13346,-0.33073 0.0734,0.1819 0.0734,0.47956 0,0.66146 -0.0734,0.1819 -0.13346,0.0331 -0.13346,-0.33073 z m -0.28548,-1.74184 c 0.0127,-0.30823 0.0754,-0.37092 0.15986,-0.15985 0.0764,0.19099 0.067,0.4192 -0.0209,0.50712 -0.0879,0.0879 -0.15047,-0.0684 -0.13899,-0.34727 z m -0.26458,-1.5875 c 0.0127,-0.30823 0.0754,-0.37092 0.15986,-0.15985 0.0764,0.19099 0.067,0.4192 -0.0209,0.50712 -0.0879,0.0879 -0.15046,-0.0684 -0.13898,-0.34727 z m -0.26459,-1.5875 c 0.0127,-0.30823 0.0754,-0.37092 0.15986,-0.15985 0.0764,0.19099 0.067,0.4192 -0.0209,0.50712 -0.0879,0.0879 -0.15047,-0.0684 -0.13898,-0.34727 z m -0.52916,-2.91042 c 0.0127,-0.30822 0.0754,-0.37092 0.15986,-0.15985 0.0764,0.191 0.067,0.4192 -0.0209,0.50712 -0.0879,0.0879 -0.15046,-0.0683 -0.13898,-0.34727 z m -0.26459,-1.32291 c 0.0127,-0.30823 0.0754,-0.37092 0.15986,-0.15986 0.0764,0.191 0.0671,0.4192 -0.0209,0.50712 -0.0879,0.0879 -0.15047,-0.0684 -0.13898,-0.34726 z m -0.52916,-2.38125 c 0.0127,-0.30823 0.0754,-0.37092 0.15986,-0.15986 0.0764,0.191 0.067,0.4192 -0.0209,0.50712 -0.0879,0.0879 -0.15046,-0.0684 -0.13898,-0.34726 z m -1.05834,-4.49792 c 0.0127,-0.30823 0.0754,-0.37092 0.15986,-0.15985 0.0764,0.19099 0.067,0.4192 -0.0209,0.50712 -0.0879,0.0879 -0.15047,-0.0684 -0.13898,-0.34727 z m -125.49952,-16.97644 17.52865,-0.0709 v -4.75916 -4.75914 l -22.95261,-0.0698 -22.9526,-0.0698 23.01875,0.002 23.01875,0.002 v 4.89479 4.89479 l -17.59479,0.003 -17.5948,0.003 17.52865,-0.0709 z m 71.19135,-8e-4 c 3.68453,-0.0415 9.63767,-0.0415 13.22918,9e-5 3.59148,0.0416 0.57687,0.0755 -6.69918,0.0755 -7.27604,-5e-5 -10.21454,-0.034 -6.53,-0.0756 z m -27.38236,-9.78974 c 8.70611,-0.0387 22.87455,-0.0387 31.48541,1e-5 8.61088,0.0387 1.48768,0.0704 -15.8293,0.0704 -17.31697,-10e-6 -24.36223,-0.0317 -15.65611,-0.0704 z m 71.51587,-1.53162 c -0.25529,-0.66534 -0.17999,-0.83702 0.13193,-0.30065 0.15443,0.26557 0.22505,0.5386 0.15692,0.60672 -0.0681,0.0681 -0.19809,-0.0696 -0.28885,-0.30607 z m -3.33996,-6.73664 c -0.15576,-0.29105 -0.22368,-0.52917 -0.15092,-0.52917 0.0728,0 0.25974,0.23812 0.4155,0.52917 0.15576,0.29104 0.22368,0.52916 0.15092,0.52916 -0.0728,0 -0.25974,-0.23812 -0.4155,-0.52916 z m -3.70417,-6.61459 c -0.15576,-0.29104 -0.22368,-0.52916 -0.15092,-0.52916 0.0728,0 0.25974,0.23812 0.4155,0.52916 0.15576,0.29105 0.22368,0.52917 0.15092,0.52917 -0.0728,0 -0.25974,-0.23812 -0.4155,-0.52917 z m -7.70668,-11.8401 c -0.32909,-0.41965 -0.31975,-0.429 0.0999,-0.0999 0.44072,0.34565 0.58089,0.56292 0.36311,0.56292 -0.0549,0 -0.26328,-0.20836 -0.46302,-0.46302 z m -3.175,-4.23333 c -0.32909,-0.41965 -0.31975,-0.42901 0.0999,-0.0999 0.25466,0.19972 0.46302,0.40808 0.46302,0.46302 0,0.21776 -0.21728,0.0776 -0.56293,-0.36312 z m -0.79375,-1.05834 c -0.32909,-0.41964 -0.31975,-0.429 0.0999,-0.0999 0.25466,0.19972 0.46302,0.40808 0.46302,0.46302 0,0.21776 -0.21728,0.0776 -0.56293,-0.36313 z m -1.05833,-1.32291 c -0.32909,-0.41965 -0.31975,-0.42901 0.0999,-0.0999 0.44071,0.34564 0.58089,0.56292 0.36311,0.56292 -0.0549,0 -0.26329,-0.20836 -0.46302,-0.46302 z m -1.182,-1.45521 -0.50403,-0.59532 0.59531,0.50403 c 0.55944,0.47367 0.71575,0.6866 0.50403,0.6866 -0.0502,0 -0.31811,-0.26789 -0.59531,-0.59531 z m -1.32292,-1.5875 -0.50403,-0.59532 0.59531,0.50403 c 0.55944,0.47367 0.71575,0.6866 0.50404,0.6866 -0.0502,0 -0.31811,-0.26789 -0.59532,-0.59531 z m -1.4501,-1.71979 -0.64143,-0.72761 0.72761,0.64143 c 0.40018,0.35279 0.7276,0.68022 0.7276,0.72761 0,0.20751 -0.21426,0.0386 -0.81378,-0.64143 z m -2.11087,-2.38125 -0.91181,-0.99219 0.99219,0.9118 c 0.9235,0.84868 1.11384,1.07257 0.91181,1.07257 -0.0442,0 -0.4907,-0.44648 -0.99219,-0.99218 z m -5.67431,-5.88698 c -2.17916,-2.18282 -3.9026,-3.96875 -3.82984,-3.96875 0.0728,0 1.91526,1.78593 4.09442,3.96875 2.17917,2.18281 3.90261,3.96875 3.82985,3.96875 -0.0728,0 -1.91527,-1.78594 -4.09443,-3.96875 z m -218.41354,-5.68855 c 0.49365,-0.50932 0.95709,-0.92604 1.02985,-0.92604 0.0728,0 -0.27161,0.41672 -0.76527,0.92604 -0.49365,0.50933 -0.95708,0.92605 -1.02984,0.92605 -0.0728,0 0.27161,-0.41672 0.76526,-0.92605 z m 212.44618,-0.0661 -0.9118,-0.99219 0.99218,0.9118 c 0.9235,0.84868 1.11385,1.07258 0.91181,1.07258 -0.0442,0 -0.4907,-0.44649 -0.99219,-0.99219 z M 174.21619,195.9811 c 0.34178,-0.3638 0.68094,-0.66146 0.7537,-0.66146 0.0728,0 -0.14734,0.29766 -0.48912,0.66146 -0.34177,0.3638 -0.68094,0.66146 -0.7537,0.66146 -0.0728,0 0.14734,-0.29766 0.48912,-0.66146 z m 207.67789,-0.0661 -0.64143,-0.7276 0.7276,0.64143 c 0.40018,0.35279 0.72761,0.68021 0.72761,0.7276 0,0.20751 -0.21426,0.0386 -0.81378,-0.64143 z m -205.9581,-1.38906 c 0.26339,-0.29104 0.53842,-0.52917 0.61118,-0.52917 0.0728,0 -0.0832,0.23813 -0.3466,0.52917 -0.26339,0.29104 -0.53842,0.52917 -0.61118,0.52917 -0.0728,0 0.0832,-0.23813 0.3466,-0.52917 z m 204.10602,-0.19844 -0.64143,-0.7276 0.7276,0.64143 c 0.40018,0.35279 0.7276,0.68021 0.7276,0.7276 0,0.20751 -0.21426,0.0386 -0.81377,-0.64143 z m -202.51852,-1.12448 c 0.26339,-0.29104 0.53842,-0.52916 0.61118,-0.52916 0.0728,0 -0.0832,0.23812 -0.34659,0.52916 -0.2634,0.29104 -0.53843,0.52917 -0.61119,0.52917 -0.0728,0 0.0832,-0.23813 0.3466,-0.52917 z m 200.91729,-0.19843 c -0.3291,-0.41965 -0.31975,-0.42901 0.0999,-0.0999 0.25466,0.19972 0.46302,0.40808 0.46302,0.46302 0,0.21776 -0.21727,0.0776 -0.56292,-0.36312 z m -199.72666,-0.69521 c 0,-0.0549 0.20836,-0.2633 0.46302,-0.46302 0.41964,-0.32911 0.429,-0.31975 0.0999,0.0999 -0.34564,0.44073 -0.56291,0.58089 -0.56291,0.36313 z m 198.40375,-0.36313 c -0.32911,-0.41964 -0.31975,-0.429 0.0999,-0.0999 0.44073,0.34564 0.58089,0.56291 0.36313,0.56291 -0.0549,0 -0.2633,-0.20836 -0.46302,-0.46302 z m -197.08084,-0.69521 c 0,-0.0549 0.20836,-0.2633 0.46302,-0.46302 0.41965,-0.3291 0.42901,-0.31975 0.0999,0.0999 -0.34564,0.44073 -0.56292,0.58089 -0.56292,0.36312 z m 195.75792,-0.36312 c -0.32911,-0.41965 -0.31975,-0.429 0.0999,-0.0999 0.25466,0.19972 0.46302,0.40808 0.46302,0.46302 0,0.21777 -0.21728,0.0776 -0.56292,-0.36312 z m -194.69958,-0.43063 c 0,-0.0549 0.20836,-0.2633 0.46302,-0.46302 0.41964,-0.3291 0.429,-0.31975 0.0999,0.0999 -0.34564,0.44073 -0.56291,0.58089 -0.56291,0.36312 z m 193.64125,-0.36312 c -0.32911,-0.41965 -0.31975,-0.429 0.0999,-0.0999 0.25466,0.19972 0.46302,0.40808 0.46302,0.46302 0,0.21777 -0.21727,0.0776 -0.56291,-0.36312 z m -190.46625,-2.01813 c 0,-0.0549 0.20836,-0.2633 0.46302,-0.46302 0.41964,-0.3291 0.429,-0.31975 0.0999,0.0999 -0.34564,0.44073 -0.56291,0.58089 -0.56291,0.36312 z m 187.29125,-0.36312 c -0.32911,-0.41965 -0.31975,-0.429 0.0999,-0.0999 0.25466,0.19972 0.46302,0.40808 0.46302,0.46302 0,0.21777 -0.21727,0.0776 -0.56291,-0.36312 z m -1.05834,-0.79375 c -0.3291,-0.41965 -0.31975,-0.429 0.0999,-0.0999 0.44073,0.34565 0.58089,0.56292 0.36312,0.56292 -0.0549,0 -0.2633,-0.20836 -0.46302,-0.46302 z m -2.64583,-1.85208 c -0.32911,-0.41965 -0.31975,-0.42901 0.0999,-0.0999 0.44073,0.34564 0.58088,0.56292 0.36312,0.56292 -0.0549,0 -0.2633,-0.20836 -0.46302,-0.46302 z m -15.19537,-9.20887 c -0.49319,-0.39513 -0.48994,-0.40001 0.0817,-0.12298 0.32743,0.15866 0.59532,0.34383 0.59532,0.41147 0,0.20246 -0.13722,0.14399 -0.67704,-0.28849 z m -149.07713,0.0332 c 0,-0.0728 0.23812,-0.25973 0.52917,-0.41549 0.29104,-0.15576 0.52916,-0.22367 0.52916,-0.15091 0,0.0728 -0.23812,0.25973 -0.52916,0.41549 -0.29105,0.15576 -0.52917,0.22367 -0.52917,0.15091 z m 141.81667,-3.59049 c -0.21828,-0.14106 -0.27782,-0.25648 -0.1323,-0.25648 0.14553,0 0.44318,0.11542 0.66146,0.25648 0.21828,0.14106 0.27782,0.25648 0.13229,0.25648 -0.14552,0 -0.44317,-0.11542 -0.66145,-0.25648 z M 238.9895,162.06598 c 0.19099,-0.0764 0.4192,-0.067 0.50712,0.0209 0.0879,0.0879 -0.0684,0.15045 -0.34727,0.13897 -0.30823,-0.0127 -0.37092,-0.0754 -0.15985,-0.15986 z m 78.05208,0 c 0.191,-0.0764 0.4192,-0.067 0.50712,0.0209 0.0879,0.0879 -0.0684,0.15045 -0.34727,0.13897 -0.30822,-0.0127 -0.37092,-0.0754 -0.15985,-0.15986 z m -1.05833,-0.26458 c 0.19099,-0.0764 0.4192,-0.067 0.50712,0.0209 0.0879,0.0879 -0.0684,0.15045 -0.34727,0.13896 -0.30823,-0.0127 -0.37092,-0.0754 -0.15985,-0.15985 z m -1.05834,-0.26458 c 0.191,-0.0764 0.4192,-0.067 0.50712,0.0209 0.0879,0.0879 -0.0684,0.15046 -0.34726,0.13897 -0.30823,-0.0127 -0.37092,-0.0754 -0.15986,-0.15985 z m -71.4375,-0.52917 c 0.191,-0.0764 0.4192,-0.067 0.50712,0.0209 0.0879,0.0879 -0.0684,0.15045 -0.34726,0.13896 -0.30823,-0.0127 -0.37092,-0.0754 -0.15986,-0.15985 z m 69.05625,0 c 0.191,-0.0764 0.4192,-0.067 0.50712,0.0209 0.0879,0.0879 -0.0683,0.15045 -0.34726,0.13896 -0.30823,-0.0127 -0.37092,-0.0754 -0.15986,-0.15985 z m -66.675,-0.52917 c 0.191,-0.0764 0.4192,-0.067 0.50712,0.0209 0.0879,0.0879 -0.0683,0.15045 -0.34726,0.13897 -0.30823,-0.0127 -0.37092,-0.0754 -0.15986,-0.15986 z m 64.29375,0 c 0.191,-0.0764 0.4192,-0.067 0.50712,0.0209 0.0879,0.0879 -0.0684,0.15045 -0.34726,0.13897 -0.30823,-0.0127 -0.37092,-0.0754 -0.15986,-0.15986 z m -1.32291,-0.26458 c 0.19099,-0.0764 0.4192,-0.067 0.50712,0.0209 0.0879,0.0879 -0.0684,0.15045 -0.34727,0.13896 -0.30823,-0.0127 -0.37092,-0.0754 -0.15985,-0.15985 z m -58.7375,-0.52917 c 0.19099,-0.0764 0.4192,-0.067 0.50712,0.0209 0.0879,0.0879 -0.0684,0.15045 -0.34727,0.13897 -0.30823,-0.0127 -0.37092,-0.0754 -0.15985,-0.15986 z m 55.82708,0 c 0.191,-0.0764 0.4192,-0.067 0.50712,0.0209 0.0879,0.0879 -0.0684,0.15045 -0.34727,0.13897 -0.30822,-0.0127 -0.37092,-0.0754 -0.15985,-0.15986 z m -54.23958,-0.26458 c 0.19099,-0.0764 0.4192,-0.067 0.50712,0.0209 0.0879,0.0879 -0.0684,0.15045 -0.34727,0.13896 -0.30823,-0.0127 -0.37092,-0.0754 -0.15985,-0.15985 z m 52.65208,0 c 0.191,-0.0764 0.4192,-0.067 0.50712,0.0209 0.0879,0.0879 -0.0684,0.15045 -0.34727,0.13896 -0.30822,-0.0127 -0.37092,-0.0754 -0.15985,-0.15985 z M 253.277,159.15557 c 0.19099,-0.0764 0.4192,-0.067 0.50712,0.0209 0.0879,0.0879 -0.0684,0.15046 -0.34727,0.13897 -0.30823,-0.0127 -0.37092,-0.0754 -0.15985,-0.15985 z m 49.47708,0 c 0.191,-0.0764 0.4192,-0.067 0.50712,0.0209 0.0879,0.0879 -0.0683,0.15046 -0.34727,0.13897 -0.30822,-0.0127 -0.37092,-0.0754 -0.15985,-0.15985 z m -47.90612,-0.25908 c 0.1819,-0.0734 0.47956,-0.0734 0.66146,0 0.1819,0.0734 0.0331,0.13346 -0.33073,0.13346 -0.3638,0 -0.51263,-0.0601 -0.33073,-0.13346 z m 46.0375,0 c 0.1819,-0.0734 0.47956,-0.0734 0.66146,0 0.1819,0.0734 0.0331,0.13346 -0.33073,0.13346 -0.3638,0 -0.51263,-0.0601 -0.33073,-0.13346 z m -44.18542,-0.26458 c 0.18191,-0.0734 0.47956,-0.0734 0.66146,0 0.1819,0.0734 0.0331,0.13345 -0.33073,0.13345 -0.3638,0 -0.51263,-0.06 -0.33073,-0.13345 z m 42.33334,0 c 0.1819,-0.0734 0.47955,-0.0734 0.66146,0 0.1819,0.0734 0.0331,0.13345 -0.33073,0.13345 -0.36381,0 -0.51263,-0.06 -0.33073,-0.13345 z m -40.21667,-0.26458 c 0.1819,-0.0734 0.47956,-0.0734 0.66146,0 0.1819,0.0734 0.0331,0.13345 -0.33073,0.13345 -0.3638,0 -0.51263,-0.06 -0.33073,-0.13345 z m 38.1,0 c 0.1819,-0.0734 0.47956,-0.0734 0.66146,0 0.1819,0.0734 0.0331,0.13345 -0.33073,0.13345 -0.3638,0 -0.51263,-0.06 -0.33073,-0.13345 z m -35.71875,-0.26459 c 0.1819,-0.0734 0.47956,-0.0734 0.66146,0 0.1819,0.0734 0.0331,0.13346 -0.33073,0.13346 -0.3638,0 -0.51263,-0.0601 -0.33073,-0.13346 z m 33.3375,0 c 0.1819,-0.0734 0.47956,-0.0734 0.66146,0 0.1819,0.0734 0.0331,0.13346 -0.33073,0.13346 -0.3638,0 -0.51263,-0.0601 -0.33073,-0.13346 z m -30.55937,-0.27173 c 0.25466,-0.0665 0.67138,-0.0665 0.92604,0 0.25466,0.0666 0.0463,0.121 -0.46302,0.121 -0.50933,0 -0.71769,-0.0545 -0.46302,-0.121 z m 27.78125,0 c 0.25466,-0.0665 0.67138,-0.0665 0.92604,0 0.25466,0.0666 0.0463,0.121 -0.46302,0.121 -0.50933,0 -0.71769,-0.0545 -0.46302,-0.121 z m -24.47396,-0.26893 c 0.32742,-0.0631 0.8632,-0.0631 1.19062,0 0.32742,0.0631 0.0595,0.11466 -0.59531,0.11466 -0.65484,0 -0.92273,-0.0516 -0.59531,-0.11466 z m 20.6375,0 c 0.32742,-0.0631 0.8632,-0.0631 1.19062,0 0.32742,0.0631 0.0595,0.11466 -0.59531,0.11466 -0.65484,0 -0.92273,-0.0516 -0.59531,-0.11466 z m -14.94896,-0.27338 c 0.83674,-0.0525 2.20596,-0.0525 3.04271,0 0.83674,0.0525 0.15213,0.0955 -1.52136,0.0955 -1.67349,0 -2.3581,-0.043 -1.52135,-0.0955 z m 7.40833,0 c 0.83675,-0.0525 2.20597,-0.0525 3.04271,0 0.83675,0.0525 0.15214,0.0955 -1.52135,0.0955 -1.67349,0 -2.3581,-0.043 -1.52136,-0.0955 z"
         id="path957" />
      <path
         style="fill:#5b2c90;stroke-width:0.264583"
         d="m 349.75508,383.42624 -42.58515,-42.58577 h 9.59084 9.59084 v -5.02708 -5.02708 h -14.62143 -14.62143 l -4.0317,-4.038 -4.03169,-4.038 v -11.57242 -11.57242 h 16.40416 16.40417 v -4.89479 -4.89479 h -16.40417 -16.40416 v -14.81478 -14.81478 l 17.52864,-0.068 17.52865,-0.068 v -4.89479 -4.89479 l -22.95261,-0.0676 -22.9526,-0.0676 v 30.89044 30.89043 l -11.63995,-11.6377 -11.63996,-11.6377 -0.0679,-19.18513 -0.0679,-19.18513 h -5.29166 -5.29167 l -0.13229,13.69266 -0.13229,13.69265 -37.92592,-37.92673 -37.92593,-37.92674 2.86863,-2.63078 c 26.14434,-23.97658 59.05819,-38.35486 94.41447,-41.24457 5.87662,-0.48031 18.54572,-0.55043 24.20937,-0.134 34.28814,2.52108 65.9687,15.62689 92.33959,38.19963 4.18518,3.5824 14.01939,13.56266 17.63577,17.89767 19.39282,23.24655 31.41724,50.09803 35.66361,79.63959 2.03195,14.1362 2.03195,30.84296 0,44.97916 -4.48196,31.18058 -17.70216,59.5272 -38.82279,83.24349 -1.79861,2.01968 -3.44577,3.81549 -3.66035,3.99072 -0.32581,0.26604 -7.41095,-6.70235 -42.97527,-42.26719 z m 21.31111,-82.93473 v -40.34895 h 13.09687 13.09688 v -5.02817 -5.02816 l -31.41927,0.0672 -31.41927,0.0672 -0.072,4.96094 -0.072,4.96094 h 12.97042 12.97042 v 40.34895 40.34896 h 5.42396 5.42396 z"
         id="path955" />
    </g>
  </g>
</svg>
