<?xml version="1.0" encoding="UTF-8" standalone="no"?>
<svg
   xmlns:dc="http://purl.org/dc/elements/1.1/"
   xmlns:cc="http://creativecommons.org/ns#"
   xmlns:rdf="http://www.w3.org/1999/02/22-rdf-syntax-ns#"
   xmlns:svg="http://www.w3.org/2000/svg"
   xmlns="http://www.w3.org/2000/svg"
   xmlns:sodipodi="http://sodipodi.sourceforge.net/DTD/sodipodi-0.dtd"
   xmlns:inkscape="http://www.inkscape.org/namespaces/inkscape"
   width="623.55054mm"
   height="619.45984mm"
   viewBox="0 0 623.55052 619.45986"
   version="1.1"
   id="svg8"
   inkscape:version="1.0.1 (3bc2e813f5, 2020-09-07)"
   sodipodi:docname="elastic.svg">
  <defs
     id="defs2" />
  <sodipodi:namedview
     id="base"
     pagecolor="#ffffff"
     bordercolor="#666666"
     borderopacity="1.0"
     inkscape:pageopacity="0.0"
     inkscape:pageshadow="2"
     inkscape:zoom="0.35"
     inkscape:cx="932.02105"
     inkscape:cy="962.72073"
     inkscape:document-units="mm"
     inkscape:current-layer="layer1"
     inkscape:document-rotation="0"
     showgrid="false"
     inkscape:window-width="1920"
     inkscape:window-height="1016"
     inkscape:window-x="1920"
     inkscape:window-y="27"
     inkscape:window-maximized="0" />
  <metadata
     id="metadata5">
    <rdf:RDF>
      <cc:Work
         rdf:about="">
        <dc:format>image/svg+xml</dc:format>
        <dc:type
           rdf:resource="http://purl.org/dc/dcmitype/StillImage" />
        <dc:title></dc:title>
      </cc:Work>
    </rdf:RDF>
  </metadata>
  <g
     inkscape:label="Layer 1"
     inkscape:groupmode="layer"
     id="layer1"
     transform="translate(122.35519,19.712612)">
    <g
       id="g991"
       transform="translate(-144.15768,34.188389)">
      <path
         style="fill:#f3bc18;stroke-width:0.276087"
         d="m 335.03222,242.41835 -73.60817,-33.71833 -14.2565,-30.66807 c -7.84108,-16.86744 -14.25576,-30.91584 -14.25485,-31.21867 8.3e-4,-0.30283 5.56524,-29.33101 12.36518,-64.507053 l 12.36353,-63.956449 1.21613,-1.752247 c 19.20507,-27.671409 47.20438,-49.10349 79.43731,-60.805298 13.3048,-4.830157 26.54664,-7.740091 42.46077,-9.330869 4.83491,-0.483299 23.5519,-0.48311 28.71304,3.04e-4 16.51919,1.547219 32.26772,5.289408 47.21087,11.21832 5.70525,2.26364 17.09784,7.833639 22.36304,10.933609 19.21577,11.313575 35.87129,26.1990708 49.29017,44.051972 6.07794,8.086308 10.9747,16.063788 15.82748,25.785163 9.90296,19.838212 15.445,40.296018 17.04376,62.914958 0.36913,5.22257 0.18526,21.94137 -0.2934,26.67526 -0.36313,3.59169 -1.82203,13.69456 -2.29756,15.91084 l -0.33349,1.55433 -74.50996,65.32773 c -40.98047,35.93026 -74.64928,65.32215 -74.81957,65.3153 -0.17029,-0.007 -33.43327,-15.18569 -73.91778,-33.73078 z"
         id="path1003" />
      <path
         style="fill:#e8468b;stroke-width:0.276087"
         d="m 157.40127,121.02013 c -47.23349,-11.14306 -49.98955,-11.82589 -50.2968,-12.4613 -0.64339,-1.33059 -2.32117,-7.29264 -2.97585,-10.574778 -1.14977,-5.764246 -1.58003,-10.13057 -1.59514,-16.18768 -0.0201,-8.062316 0.89345,-14.895239 2.94395,-22.019257 3.4428,-11.9612 10.00523,-23.617978 18.18519,-32.302155 13.62441,-14.464215 30.11626,-22.9141658 49.4756,-25.3498822 4.70962,-0.5925462 13.90151,-0.5929989 18.88822,-8.283e-4 13.73723,1.6310058 26.34049,6.4296677 36.95016,14.0686875 l 2.18109,1.570394 -3.36588,17.038855 c -1.85124,9.371372 -6.95431,35.270093 -11.34017,57.552712 -7.45054,37.852932 -8.01055,40.511902 -8.52646,40.484132 -0.3037,-0.0164 -23.03946,-5.33481 -50.52391,-11.81879 z"
         id="path1001" />
      <path
         style="fill:#3bbcb0;stroke-width:0.276087"
         d="m 266.04148,565.45702 c -29.53572,-0.9043 -59.60297,-10.44721 -84.63165,-26.86086 -30.38733,-19.92782 -53.22949,-48.43587 -65.8531,-82.18769 -9.91256,-26.50325 -12.79881,-55.58713 -8.38019,-84.4447 0.38363,-2.50549 0.84597,-5.13224 1.02742,-5.83723 0.32106,-1.24739 2.26089,-3.02544 72.25057,-66.22448 39.55636,-35.7185 72.25624,-65.25605 72.6664,-65.63901 l 0.74575,-0.69632 74.03435,33.77615 c 49.40872,22.54139 74.15135,33.96455 74.38611,34.34254 0.19345,0.3115 7.64007,14.44202 16.54802,31.4011 l 16.19625,30.83472 -12.16726,64.35521 -12.16729,64.35521 -1.41776,1.99268 c -7.87787,11.07239 -17.72716,21.84864 -27.97131,30.60388 -19.54881,16.70751 -42.52612,28.71172 -67.02246,35.01501 -16.27957,4.18901 -30.72524,5.75017 -48.24385,5.21379 z M 603.41975,357.77908 c 0,-0.0573 0.21742,-0.27473 0.48315,-0.48315 0.4379,-0.3434 0.44765,-0.33365 0.10425,0.10425 -0.36068,0.45988 -0.5874,0.60615 -0.5874,0.3789 z m 1.65652,-1.38043 c 0,-0.0573 0.21742,-0.27474 0.48315,-0.48316 0.4379,-0.34339 0.44765,-0.33365 0.10425,0.10425 -0.36068,0.45988 -0.5874,0.60615 -0.5874,0.37891 z m 2.62283,-2.38054 c 0.27484,-0.30369 0.56183,-0.55217 0.63776,-0.55217 0.0759,0 -0.0868,0.24848 -0.36168,0.55217 -0.27484,0.3037 -0.56183,0.55218 -0.63776,0.55218 -0.0759,0 0.0868,-0.24848 0.36168,-0.55218 z m 4.69347,-4.41739 c 0.90159,-0.91109 1.70136,-1.65652 1.77729,-1.65652 0.0759,0 -0.59961,0.74543 -1.5012,1.65652 -0.90159,0.91109 -1.70136,1.65652 -1.77728,1.65652 -0.0759,0 0.5996,-0.74543 1.50119,-1.65652 z m 4.14131,-4.41739 c 0.27484,-0.3037 0.56183,-0.55217 0.63776,-0.55217 0.0759,0 -0.0868,0.24847 -0.36168,0.55217 -0.27484,0.3037 -0.56183,0.55217 -0.63776,0.55217 -0.0759,0 0.0868,-0.24847 0.36168,-0.55217 z m 1.51848,-1.76077 c 0,-0.0573 0.21741,-0.27474 0.48315,-0.48315 0.4379,-0.3434 0.44765,-0.33366 0.10425,0.10425 -0.36068,0.45987 -0.5874,0.60615 -0.5874,0.3789 z M 95.143657,342.5943 c 0,-0.0573 0.217419,-0.27474 0.483152,-0.48315 0.437891,-0.3434 0.447656,-0.33366 0.10424,0.10425 -0.360672,0.45987 -0.587392,0.60614 -0.587392,0.3789 z m 524.289133,-0.82826 c 0,-0.0573 0.21742,-0.27474 0.48315,-0.48316 0.4379,-0.34339 0.44765,-0.33365 0.10425,0.10425 -0.36068,0.45988 -0.5874,0.60615 -0.5874,0.37891 z M 98.318657,339.66159 c 0.274842,-0.30369 0.561832,-0.55217 0.637756,-0.55217 0.07592,0 -0.08683,0.24848 -0.361669,0.55217 -0.274842,0.3037 -0.561831,0.55218 -0.637755,0.55218 -0.07592,0 0.08683,-0.24848 0.361668,-0.55218 z m 3.036953,-2.76087 c 0.27485,-0.30369 0.56184,-0.55217 0.63776,-0.55217 0.0759,0 -0.0868,0.24848 -0.36167,0.55217 -0.27484,0.3037 -0.56183,0.55218 -0.63775,0.55218 -0.0759,0 0.0868,-0.24848 0.36166,-0.55218 z m 2.76087,-2.48478 c 0.27485,-0.3037 0.56183,-0.55217 0.63776,-0.55217 0.0759,0 -0.0868,0.24847 -0.36167,0.55217 -0.27484,0.30369 -0.56183,0.55217 -0.63776,0.55217 -0.0759,0 0.0868,-0.24848 0.36167,-0.55217 z m 3.03696,-2.76087 c 0.27484,-0.3037 0.56183,-0.55217 0.63776,-0.55217 0.0759,0 -0.0868,0.24847 -0.36167,0.55217 -0.27484,0.30369 -0.56183,0.55217 -0.63776,0.55217 -0.0759,0 0.0868,-0.24848 0.36167,-0.55217 z m 2.76087,-2.48478 c 0.27484,-0.3037 0.56183,-0.55218 0.63775,-0.55218 0.0759,0 -0.0868,0.24848 -0.36166,0.55218 -0.27485,0.30369 -0.56184,0.55217 -0.63776,0.55217 -0.0759,0 0.0868,-0.24848 0.36167,-0.55217 z m 3.03696,-2.76087 c 0.27484,-0.3037 0.56183,-0.55218 0.63775,-0.55218 0.0759,0 -0.0868,0.24848 -0.36167,0.55218 -0.27484,0.30369 -0.56183,0.55217 -0.63775,0.55217 -0.0759,0 0.0868,-0.24848 0.36167,-0.55217 z m -52.077613,-1.86359 c -0.343417,-0.4379 -0.333651,-0.44765 0.104239,-0.10425 0.459892,0.36068 0.606144,0.5874 0.378913,0.5874 -0.05733,0 -0.274748,-0.21742 -0.483152,-0.48315 z m 54.838483,-0.6212 c 0.27484,-0.30369 0.56183,-0.55217 0.63775,-0.55217 0.0759,0 -0.0868,0.24848 -0.36167,0.55217 -0.27484,0.3037 -0.56183,0.55218 -0.63775,0.55218 -0.0759,0 0.0868,-0.24848 0.36167,-0.55218 z m -57.323266,-1.5875 c -0.343416,-0.4379 -0.333651,-0.44764 0.104239,-0.10425 0.265734,0.20842 0.483153,0.42584 0.483153,0.48316 0,0.22724 -0.22672,0.081 -0.587392,-0.37891 z m 60.360216,-1.17337 c 0.27484,-0.30369 0.56183,-0.55217 0.63776,-0.55217 0.0759,0 -0.0868,0.24848 -0.36167,0.55217 -0.27484,0.3037 -0.56183,0.55218 -0.63776,0.55218 -0.0759,0 0.0868,-0.24848 0.36167,-0.55218 z m 2.62283,-2.31294 c 0,-0.0573 0.21742,-0.27474 0.48315,-0.48315 0.43789,-0.3434 0.44766,-0.33365 0.10424,0.10425 -0.36067,0.45988 -0.58739,0.60615 -0.58739,0.3789 z m 3.175,-2.93271 c 0.27484,-0.30369 0.56183,-0.55217 0.63775,-0.55217 0.0759,0 -0.0868,0.24848 -0.36166,0.55217 -0.27485,0.3037 -0.56184,0.55218 -0.63776,0.55218 -0.0759,0 0.0868,-0.24848 0.36167,-0.55218 z m -74.017538,-1.44945 -0.525942,-0.6212 0.621195,0.52595 c 0.341658,0.28925 0.621196,0.56879 0.621196,0.62119 0,0.22093 -0.222192,0.0578 -0.716449,-0.52594 z m 76.778408,-1.03533 c 0.27484,-0.3037 0.56183,-0.55217 0.63775,-0.55217 0.0759,0 -0.0868,0.24847 -0.36167,0.55217 -0.27484,0.3037 -0.56183,0.55217 -0.63775,0.55217 -0.0759,0 0.0868,-0.24847 0.36167,-0.55217 z m 3.03695,-2.76087 c 0.27485,-0.3037 0.56184,-0.55217 0.63776,-0.55217 0.0759,0 -0.0868,0.24847 -0.36167,0.55217 -0.27484,0.3037 -0.56183,0.55217 -0.63775,0.55217 -0.0759,0 0.0868,-0.24847 0.36166,-0.55217 z M 47.069309,310.4654 c -0.343416,-0.43791 -0.333651,-0.44765 0.104239,-0.10426 0.265734,0.20842 0.483152,0.42584 0.483152,0.48316 0,0.22724 -0.226719,0.081 -0.587391,-0.3789 z m 86.036301,-2.27772 c 0.27485,-0.3037 0.56184,-0.55218 0.63776,-0.55218 0.0759,0 -0.0868,0.24848 -0.36167,0.55218 -0.27484,0.30369 -0.56183,0.55217 -0.63775,0.55217 -0.0759,0 0.0868,-0.24848 0.36166,-0.55217 z m 3.03696,-2.76087 c 0.27484,-0.3037 0.56183,-0.55218 0.63776,-0.55218 0.0759,0 -0.0868,0.24848 -0.36167,0.55218 -0.27484,0.30369 -0.56183,0.55217 -0.63776,0.55217 -0.0759,0 0.0868,-0.24848 0.36167,-0.55217 z m 2.76087,-2.48478 c 0.27484,-0.3037 0.56183,-0.55218 0.63776,-0.55218 0.0759,0 -0.0868,0.24848 -0.36167,0.55218 -0.27484,0.30369 -0.56183,0.55217 -0.63776,0.55217 -0.0759,0 0.0868,-0.24848 0.36167,-0.55217 z m 3.03696,-2.76087 c 0.27484,-0.3037 0.56183,-0.55218 0.63775,-0.55218 0.0759,0 -0.0868,0.24848 -0.36167,0.55218 -0.27484,0.30369 -0.56183,0.55217 -0.63775,0.55217 -0.0759,0 0.0868,-0.24848 0.36167,-0.55217 z m 2.76087,-2.48479 c 0.27484,-0.30369 0.56183,-0.55217 0.63775,-0.55217 0.0759,0 -0.0868,0.24848 -0.36167,0.55217 -0.27484,0.3037 -0.56183,0.55218 -0.63775,0.55218 -0.0759,0 0.0868,-0.24848 0.36167,-0.55218 z m 3.03695,-2.76087 c 0.27484,-0.30369 0.56183,-0.55217 0.63776,-0.55217 0.0759,0 -0.0868,0.24848 -0.36167,0.55217 -0.27484,0.3037 -0.56183,0.55218 -0.63776,0.55218 -0.0759,0 0.0868,-0.24848 0.36167,-0.55218 z m 2.76087,-2.48478 c 0.27484,-0.30369 0.56183,-0.55217 0.63776,-0.55217 0.0759,0 -0.0868,0.24848 -0.36167,0.55217 -0.27484,0.3037 -0.56183,0.55218 -0.63776,0.55218 -0.0759,0 0.0868,-0.24848 0.36167,-0.55218 z m 279.12392,-0.27609 c 0.27484,-0.30369 0.56183,-0.55217 0.63776,-0.55217 0.0759,0 -0.0868,0.24848 -0.36168,0.55217 -0.27484,0.3037 -0.56183,0.55218 -0.63776,0.55218 -0.0759,0 0.0868,-0.24848 0.36168,-0.55218 z m 2.20869,-1.9326 c 0.27485,-0.3037 0.56184,-0.55218 0.63776,-0.55218 0.0759,0 -0.0868,0.24848 -0.36167,0.55218 -0.27484,0.30369 -0.56184,0.55217 -0.63776,0.55217 -0.0759,0 0.0868,-0.24848 0.36167,-0.55217 z m -278.29565,-0.55218 c 0.27484,-0.30369 0.56183,-0.55217 0.63775,-0.55217 0.0759,0 -0.0868,0.24848 -0.36166,0.55217 -0.27485,0.3037 -0.56184,0.55218 -0.63776,0.55218 -0.0759,0 0.0868,-0.24848 0.36167,-0.55218 z m 490.21418,-0.71321 c 0.0132,-0.32165 0.0787,-0.38705 0.16681,-0.16682 0.0798,0.19931 0.07,0.43744 -0.0218,0.52918 -0.0917,0.0917 -0.15701,-0.0713 -0.14503,-0.36236 z M 434.0404,288.30942 c 0.27484,-0.3037 0.56184,-0.55218 0.63776,-0.55218 0.0759,0 -0.0868,0.24848 -0.36167,0.55218 -0.27485,0.30369 -0.56184,0.55217 -0.63777,0.55217 -0.0759,0 0.0868,-0.24848 0.36168,-0.55217 z m 209.98591,-0.98931 c 0.0133,-0.32164 0.0787,-0.38704 0.16682,-0.16681 0.0798,0.19931 0.07,0.43743 -0.0218,0.52918 -0.0917,0.0917 -0.15701,-0.0713 -0.14502,-0.36237 z m -487.86744,0.0568 c 0,-0.0573 0.21742,-0.27474 0.48316,-0.48316 0.43789,-0.34339 0.44765,-0.33365 0.10424,0.10425 -0.36068,0.45988 -0.5874,0.60615 -0.5874,0.37891 z m 280.09022,-1.0001 c 0.27485,-0.3037 0.56184,-0.55218 0.63777,-0.55218 0.0759,0 -0.0868,0.24848 -0.36168,0.55218 -0.27484,0.30369 -0.56184,0.55217 -0.63776,0.55217 -0.0759,0 0.0868,-0.24848 0.36167,-0.55217 z m 208.05331,-0.9893 c 0.0132,-0.32165 0.0787,-0.38705 0.16681,-0.16682 0.0798,0.19931 0.07,0.43744 -0.0218,0.52918 -0.0917,0.0917 -0.15701,-0.0713 -0.14503,-0.36236 z M 159.33388,284.4442 c 0.27484,-0.3037 0.56183,-0.55217 0.63775,-0.55217 0.0759,0 -0.0868,0.24847 -0.36167,0.55217 -0.27484,0.3037 -0.56183,0.55217 -0.63775,0.55217 -0.0759,0 0.0868,-0.24847 0.36167,-0.55217 z m 279.12391,0 c 0.27484,-0.3037 0.56184,-0.55217 0.63776,-0.55217 0.0759,0 -0.0868,0.24847 -0.36167,0.55217 -0.27485,0.3037 -0.56184,0.55217 -0.63776,0.55217 -0.0759,0 0.0868,-0.24847 0.36167,-0.55217 z m 206.14251,-1.38044 c 0,-0.37961 0.0627,-0.53491 0.13926,-0.3451 0.0766,0.18981 0.0766,0.5004 0,0.69021 -0.0766,0.18981 -0.13926,0.0345 -0.13926,-0.34511 z m -203.93381,-0.55217 c 0.27484,-0.30369 0.56183,-0.55217 0.63776,-0.55217 0.0759,0 -0.0868,0.24848 -0.36168,0.55217 -0.27484,0.3037 -0.56183,0.55217 -0.63776,0.55217 -0.0759,0 0.0868,-0.24847 0.36168,-0.55217 z M 161.9567,282.13125 c 0,-0.0573 0.21742,-0.27473 0.48315,-0.48315 0.43789,-0.3434 0.44766,-0.33365 0.10424,0.10425 -0.36067,0.45988 -0.58739,0.60615 -0.58739,0.3789 z m 280.91848,-1.55227 c 0.27485,-0.30369 0.56184,-0.55217 0.63776,-0.55217 0.0759,0 -0.0868,0.24848 -0.36167,0.55217 -0.27485,0.3037 -0.56184,0.55218 -0.63776,0.55218 -0.0759,0 0.0868,-0.24848 0.36167,-0.55218 z m 202.01142,-0.13804 c 0.006,-0.45554 0.0675,-0.60847 0.13752,-0.33986 0.07,0.26863 0.0654,0.64135 -0.0102,0.82826 -0.0756,0.18693 -0.13288,-0.0329 -0.12727,-0.4884 z m -479.7549,-1.24239 c 0.27484,-0.3037 0.56183,-0.55218 0.63776,-0.55218 0.0759,0 -0.0868,0.24848 -0.36167,0.55218 -0.27484,0.30369 -0.56183,0.55217 -0.63776,0.55217 -0.0759,0 0.0868,-0.24848 0.36167,-0.55217 z m 279.95218,-0.55218 c 0.27484,-0.30369 0.56183,-0.55217 0.63776,-0.55217 0.0759,0 -0.0868,0.24848 -0.36168,0.55217 -0.27484,0.3037 -0.56183,0.55218 -0.63776,0.55218 -0.0759,0 0.0868,-0.24848 0.36168,-0.55218 z m 200.1002,-2.20869 c 0,-0.68332 0.0538,-0.96286 0.11963,-0.6212 0.0658,0.34166 0.0658,0.90074 0,1.24239 -0.0658,0.34166 -0.11963,0.0621 -0.11963,-0.62119 z m -198.30564,0.72401 c 0,-0.0573 0.21742,-0.27474 0.48315,-0.48315 0.43791,-0.3434 0.44765,-0.33366 0.10425,0.10425 -0.36068,0.45987 -0.5874,0.60615 -0.5874,0.3789 z m -278.70978,-0.72401 c 0.27484,-0.3037 0.56183,-0.55218 0.63775,-0.55218 0.0759,0 -0.0868,0.24848 -0.36167,0.55218 -0.27484,0.30369 -0.56183,0.55217 -0.63775,0.55217 -0.0759,0 0.0868,-0.24848 0.36167,-0.55217 z m 280.91848,-1.2086 c 0,-0.0573 0.21742,-0.27473 0.48315,-0.48315 0.4379,-0.3434 0.44765,-0.33365 0.10425,0.10425 -0.36068,0.45988 -0.5874,0.60615 -0.5874,0.3789 z M 170.92953,273.9529 c 0.27484,-0.3037 0.56183,-0.55218 0.63775,-0.55218 0.0759,0 -0.0868,0.24848 -0.36167,0.55218 -0.27484,0.30369 -0.56183,0.55217 -0.63775,0.55217 -0.0759,0 0.0868,-0.24848 0.36167,-0.55217 z m 280.3663,-0.65643 c 0,-0.0573 0.21742,-0.27473 0.48316,-0.48315 0.4379,-0.3434 0.44764,-0.33365 0.10425,0.10425 -0.36068,0.45988 -0.58741,0.60615 -0.58741,0.3789 z m -277.32935,-2.10444 c 0.27485,-0.3037 0.56184,-0.55218 0.63776,-0.55218 0.0759,0 -0.0868,0.24848 -0.36167,0.55218 -0.27484,0.30369 -0.56183,0.55217 -0.63775,0.55217 -0.0759,0 0.0868,-0.24848 0.36166,-0.55217 z m 279.53805,0.17183 c 0,-0.0573 0.21742,-0.27473 0.48315,-0.48315 0.4379,-0.3434 0.44765,-0.33365 0.10425,0.10425 -0.36068,0.45988 -0.5874,0.60615 -0.5874,0.3789 z m 2.20869,-1.93261 c 0,-0.0573 0.21742,-0.27473 0.48316,-0.48315 0.4379,-0.3434 0.44764,-0.33365 0.10425,0.10425 -0.36068,0.45988 -0.58741,0.60615 -0.58741,0.3789 z m -278.98587,-0.72401 c 0.27485,-0.30369 0.56183,-0.55217 0.63776,-0.55217 0.0759,0 -0.0868,0.24848 -0.36167,0.55217 -0.27484,0.3037 -0.56183,0.55218 -0.63776,0.55218 -0.0759,0 0.0868,-0.24848 0.36167,-0.55218 z m 281.19457,-1.2086 c 0,-0.0573 0.21742,-0.27473 0.48315,-0.48315 0.4379,-0.34339 0.44765,-0.33365 0.10425,0.10425 -0.36068,0.45988 -0.5874,0.60615 -0.5874,0.3789 z m -278.15761,-1.55227 c 0.27484,-0.30369 0.56183,-0.55217 0.63776,-0.55217 0.0759,0 -0.0868,0.24848 -0.36167,0.55217 -0.27484,0.3037 -0.56183,0.55218 -0.63776,0.55218 -0.0759,0 0.0868,-0.24848 0.36167,-0.55218 z m 465.4142,-0.41413 c 0.003,-0.60739 0.0596,-0.82337 0.12564,-0.47992 0.066,0.34343 0.0635,0.84038 -0.006,1.10435 -0.0691,0.26394 -0.12313,-0.0171 -0.12007,-0.62443 z M 460.26866,265.3942 c 0.27484,-0.3037 0.56184,-0.55217 0.63776,-0.55217 0.0759,0 -0.0868,0.24847 -0.36167,0.55217 -0.27485,0.30369 -0.56184,0.55217 -0.63776,0.55217 -0.0759,0 0.0868,-0.24848 0.36167,-0.55217 z m -277.74348,-1.93261 c 0.27484,-0.3037 0.56183,-0.55217 0.63775,-0.55217 0.0759,0 -0.0868,0.24847 -0.36166,0.55217 -0.27485,0.3037 -0.56183,0.55217 -0.63776,0.55217 -0.0759,0 0.0868,-0.24847 0.36167,-0.55217 z m 279.95218,0 c 0.27484,-0.3037 0.56183,-0.55217 0.63776,-0.55217 0.0759,0 -0.0868,0.24847 -0.36168,0.55217 -0.27484,0.3037 -0.56183,0.55217 -0.63776,0.55217 -0.0759,0 0.0868,-0.24847 0.36168,-0.55217 z m 2.20869,-1.93261 c 0.27485,-0.30369 0.56184,-0.55217 0.63776,-0.55217 0.0759,0 -0.0868,0.24848 -0.36167,0.55217 -0.27485,0.3037 -0.56184,0.55218 -0.63776,0.55218 -0.0759,0 0.0868,-0.24848 0.36167,-0.55218 z m 180.19034,-0.27609 c 0,-0.37961 0.0627,-0.53491 0.13925,-0.3451 0.0766,0.18981 0.0766,0.5004 0,0.69021 -0.0766,0.18981 -0.13925,0.0345 -0.13925,-0.34511 z m -459.31425,-0.55217 c 0.27484,-0.30369 0.56183,-0.55217 0.63775,-0.55217 0.0759,0 -0.0868,0.24848 -0.36167,0.55217 -0.27484,0.3037 -0.56183,0.55217 -0.63775,0.55217 -0.0759,0 0.0868,-0.24847 0.36167,-0.55217 z m 281.33261,-1.10435 c 0.27484,-0.30369 0.56183,-0.55217 0.63776,-0.55217 0.0759,0 -0.0868,0.24848 -0.36168,0.55217 -0.27484,0.3037 -0.56183,0.55218 -0.63776,0.55218 -0.0759,0 0.0868,-0.24848 0.36168,-0.55218 z m 177.70555,-1.10434 c 0,-0.37962 0.0627,-0.53492 0.13926,-0.34511 0.0766,0.18981 0.0766,0.5004 0,0.69021 -0.0766,0.18981 -0.13926,0.0345 -0.13926,-0.3451 z m -456.27729,-0.27609 c 0.27484,-0.3037 0.56183,-0.55218 0.63775,-0.55218 0.0759,0 -0.0868,0.24848 -0.36167,0.55218 -0.27484,0.30369 -0.56183,0.55217 -0.63775,0.55217 -0.0759,0 0.0868,-0.24848 0.36167,-0.55217 z m 280.78043,-0.55218 c 0.27485,-0.30369 0.56184,-0.55217 0.63776,-0.55217 0.0759,0 -0.0868,0.24848 -0.36167,0.55217 -0.27485,0.3037 -0.56184,0.55218 -0.63776,0.55218 -0.0759,0 0.0868,-0.24848 0.36167,-0.55218 z m 175.19896,-1.54147 c 0.0132,-0.32164 0.0787,-0.38705 0.16681,-0.16681 0.0798,0.1993 0.07,0.43743 -0.0218,0.52917 -0.0917,0.0917 -0.15701,-0.0713 -0.14503,-0.36236 z m -172.99026,-0.39113 c 0.27484,-0.3037 0.56183,-0.55218 0.63776,-0.55218 0.0759,0 -0.0868,0.24848 -0.36168,0.55218 -0.27484,0.30369 -0.56183,0.55217 -0.63776,0.55217 -0.0759,0 0.0868,-0.24848 0.36168,-0.55217 z m -279.95218,-0.27609 c 0.27484,-0.3037 0.56183,-0.55218 0.63776,-0.55218 0.0759,0 -0.0868,0.24848 -0.36167,0.55218 -0.27484,0.30369 -0.56183,0.55217 -0.63776,0.55217 -0.0759,0 0.0868,-0.24848 0.36167,-0.55217 z M 22.83067,255.01794 c 0.01325,-0.32164 0.07867,-0.38705 0.166803,-0.16681 0.07975,0.19931 0.06995,0.43743 -0.0218,0.52917 -0.09174,0.0917 -0.156994,-0.0713 -0.145006,-0.36236 z m 621.19564,-0.82826 c 0.0133,-0.32164 0.0787,-0.38705 0.16682,-0.16681 0.0798,0.1993 0.07,0.43743 -0.0218,0.52917 -0.0917,0.0917 -0.15701,-0.0713 -0.14502,-0.36236 z m -170.50548,-0.39113 c 0.27485,-0.3037 0.56184,-0.55218 0.63776,-0.55218 0.0759,0 -0.0868,0.24848 -0.36167,0.55218 -0.27484,0.30369 -0.56184,0.55217 -0.63776,0.55217 -0.0759,0 0.0868,-0.24848 0.36167,-0.55217 z m -279.4,-0.82826 c 0.27484,-0.3037 0.56183,-0.55218 0.63776,-0.55218 0.0759,0 -0.0868,0.24848 -0.36167,0.55218 -0.27484,0.30369 -0.56183,0.55217 -0.63776,0.55217 -0.0759,0 0.0868,-0.24848 0.36167,-0.55217 z m 449.6294,-0.43713 c 0.0132,-0.32164 0.0787,-0.38705 0.16681,-0.16681 0.0798,0.1993 0.07,0.43743 -0.0218,0.52917 -0.0917,0.0917 -0.15701,-0.0713 -0.14503,-0.36236 z m -168.0207,-0.66722 c 0.27484,-0.3037 0.56184,-0.55218 0.63776,-0.55218 0.0759,0 -0.0868,0.24848 -0.36167,0.55218 -0.27485,0.30369 -0.56184,0.55217 -0.63776,0.55217 -0.0759,0 0.0868,-0.24848 0.36167,-0.55217 z M 22.300293,250.20942 c 0,-0.37962 0.06266,-0.53492 0.139254,-0.34511 0.07659,0.18981 0.07659,0.50041 0,0.69022 -0.07659,0.18981 -0.139254,0.0345 -0.139254,-0.34511 z m 174.857497,0 c 0.27484,-0.3037 0.56183,-0.55218 0.63775,-0.55218 0.0759,0 -0.0868,0.24848 -0.36166,0.55218 -0.27485,0.30369 -0.56184,0.55217 -0.63776,0.55217 -0.0759,0 0.0868,-0.24848 0.36167,-0.55217 z m 280.78043,-0.27609 c 0.27485,-0.3037 0.56184,-0.55217 0.63777,-0.55217 0.0759,0 -0.0868,0.24847 -0.36168,0.55217 -0.27484,0.3037 -0.56184,0.55217 -0.63776,0.55217 -0.0759,0 0.0868,-0.24847 0.36167,-0.55217 z m 2.2087,-1.93261 c 0.27485,-0.30369 0.56184,-0.55217 0.63776,-0.55217 0.0759,0 -0.0868,0.24848 -0.36167,0.55217 -0.27485,0.3037 -0.56184,0.55217 -0.63776,0.55217 -0.0759,0 0.0868,-0.24847 0.36167,-0.55217 z m -280.36631,-0.10425 c 0,-0.0573 0.21742,-0.27473 0.48316,-0.48315 0.43789,-0.3434 0.44765,-0.33365 0.10424,0.10425 -0.36068,0.45988 -0.5874,0.60615 -0.5874,0.3789 z m -177.735944,-1.0001 c 0,-0.53146 0.05682,-0.74888 0.126261,-0.48315 0.06944,0.26573 0.06944,0.70057 0,0.96631 -0.06944,0.26573 -0.126261,0.0483 -0.126261,-0.48316 z m 460.310954,-0.82826 c 0.27484,-0.30369 0.56183,-0.55217 0.63776,-0.55217 0.0759,0 -0.0868,0.24848 -0.36168,0.55217 -0.27484,0.3037 -0.56183,0.55218 -0.63776,0.55218 -0.0759,0 0.0868,-0.24848 0.36168,-0.55218 z m -279.40001,-1.10435 c 0.27485,-0.30369 0.56184,-0.55217 0.63776,-0.55217 0.0759,0 -0.0868,0.24848 -0.36167,0.55217 -0.27484,0.3037 -0.56183,0.55218 -0.63775,0.55218 -0.0759,0 0.0868,-0.24848 0.36166,-0.55218 z m 281.19457,-0.38033 c 0,-0.0573 0.21742,-0.27474 0.48315,-0.48316 0.43791,-0.34339 0.44765,-0.33365 0.10425,0.10426 -0.36068,0.45987 -0.5874,0.60614 -0.5874,0.3789 z m -278.29565,-2.24249 c 0.35663,-0.37962 0.71054,-0.69022 0.78647,-0.69022 0.0759,0 -0.15375,0.3106 -0.51039,0.69022 -0.35663,0.37962 -0.71054,0.69022 -0.78647,0.69022 -0.0759,0 0.15375,-0.3106 0.51039,-0.69022 z m 280.50435,0.30988 c 0,-0.0573 0.21742,-0.27474 0.48315,-0.48315 0.4379,-0.3434 0.44765,-0.33365 0.10425,0.10425 -0.36068,0.45987 -0.5874,0.60615 -0.5874,0.3789 z M 21.802525,239.58007 c -8.29e-4,-1.36663 0.04584,-1.96052 0.103747,-1.31975 0.0579,0.64077 0.05859,1.75892 0.0015,2.48478 -0.05706,0.72586 -0.104435,0.2016 -0.105277,-1.16503 z m 466.765045,1.13814 c 0,-0.0573 0.21742,-0.27473 0.48316,-0.48315 0.4379,-0.3434 0.44764,-0.33365 0.10425,0.10425 -0.36068,0.45988 -0.58741,0.60615 -0.58741,0.3789 z m -279.81413,-1.0001 c 0.27484,-0.30369 0.56183,-0.55217 0.63776,-0.55217 0.0759,0 -0.0868,0.24848 -0.36167,0.55217 -0.27484,0.3037 -0.56183,0.55218 -0.63776,0.55218 -0.0759,0 0.0868,-0.24848 0.36167,-0.55218 z m 282.02283,-0.93251 c 0,-0.0573 0.21742,-0.27473 0.48315,-0.48315 0.4379,-0.3434 0.44765,-0.33365 0.10425,0.10425 -0.36068,0.45988 -0.5874,0.60615 -0.5874,0.3789 z m -279.26196,-1.55227 c 0.27484,-0.3037 0.56183,-0.55217 0.63776,-0.55217 0.0759,0 -0.0868,0.24847 -0.36167,0.55217 -0.27484,0.3037 -0.56183,0.55217 -0.63776,0.55217 -0.0759,0 0.0868,-0.24847 0.36167,-0.55217 z m 281.47065,-0.38034 c 0,-0.0573 0.21742,-0.27473 0.48316,-0.48315 0.4379,-0.3434 0.44764,-0.33365 0.10425,0.10425 -0.36068,0.45988 -0.58741,0.60615 -0.58741,0.3789 z m -278.43369,-2.38053 c 0.27484,-0.3037 0.56183,-0.55217 0.63775,-0.55217 0.0759,0 -0.0868,0.24847 -0.36167,0.55217 -0.27484,0.3037 -0.56183,0.55217 -0.63775,0.55217 -0.0759,0 0.0868,-0.24847 0.36167,-0.55217 z m 280.64239,0.44792 c 0,-0.0573 0.21742,-0.27473 0.48315,-0.48315 0.4379,-0.3434 0.44765,-0.33365 0.10425,0.10425 -0.36068,0.45988 -0.5874,0.60615 -0.5874,0.3789 z m 2.2087,-1.93261 c 0,-0.0573 0.21741,-0.27473 0.48315,-0.48315 0.4379,-0.34339 0.44765,-0.33365 0.10425,0.10425 -0.36068,0.45988 -0.5874,0.60615 -0.5874,0.3789 z M 22.034436,232.12572 c 0.0056,-0.45554 0.0675,-0.60847 0.137503,-0.33986 0.07,0.26863 0.0654,0.64135 -0.01023,0.82826 -0.07563,0.18694 -0.132899,-0.0329 -0.127273,-0.4884 z m 195.277704,-0.13804 c 0.27484,-0.3037 0.56183,-0.55218 0.63775,-0.55218 0.0759,0 -0.0868,0.24848 -0.36167,0.55218 -0.27484,0.30369 -0.56183,0.55217 -0.63775,0.55217 -0.0759,0 0.0868,-0.24848 0.36167,-0.55217 z m 282.43695,-1.10435 c 0.27485,-0.3037 0.56184,-0.55217 0.63777,-0.55217 0.0759,0 -0.0868,0.24847 -0.36168,0.55217 -0.27484,0.3037 -0.56184,0.55217 -0.63776,0.55217 -0.0759,0 0.0868,-0.24847 0.36167,-0.55217 z m -279.4,-1.65652 c 0.27484,-0.3037 0.56183,-0.55218 0.63776,-0.55218 0.0759,0 -0.0868,0.24848 -0.36167,0.55218 -0.27484,0.30369 -0.56183,0.55217 -0.63776,0.55217 -0.0759,0 0.0868,-0.24848 0.36167,-0.55217 z M 22.278496,228.78968 c 0.01325,-0.32164 0.07867,-0.38705 0.166803,-0.16681 0.07975,0.1993 0.06995,0.43743 -0.0218,0.52917 -0.09174,0.0917 -0.156994,-0.0713 -0.145006,-0.36236 z m 479.541254,0.33288 c 0,-0.0573 0.21742,-0.27474 0.48315,-0.48315 0.4379,-0.3434 0.44765,-0.33366 0.10425,0.10425 -0.36068,0.45987 -0.5874,0.60614 -0.5874,0.3789 z m 2.34674,-2.10445 c 0.27484,-0.30369 0.56183,-0.55217 0.63776,-0.55217 0.0759,0 -0.0868,0.24848 -0.36168,0.55217 -0.27484,0.3037 -0.56183,0.55218 -0.63776,0.55218 -0.0759,0 0.0868,-0.24848 0.36168,-0.55218 z m -281.19457,-0.10425 c 0,-0.0573 0.21742,-0.27473 0.48315,-0.48315 0.43789,-0.3434 0.44766,-0.33365 0.10424,0.10425 -0.36067,0.45988 -0.58739,0.60615 -0.58739,0.3789 z M 22.554583,226.3049 c 0.01325,-0.32164 0.07867,-0.38705 0.166803,-0.16682 0.07975,0.19931 0.06995,0.43744 -0.0218,0.52918 -0.09174,0.0917 -0.156994,-0.0713 -0.145006,-0.36236 z m 483.820597,-1.2194 c 0.27485,-0.30369 0.56184,-0.55217 0.63776,-0.55217 0.0759,0 -0.0868,0.24848 -0.36167,0.55217 -0.27485,0.3037 -0.56184,0.55218 -0.63776,0.55218 -0.0759,0 0.0868,-0.24848 0.36167,-0.55218 z m -280.22826,-1.10434 c 0.27484,-0.3037 0.56183,-0.55218 0.63775,-0.55218 0.0759,0 -0.0868,0.24848 -0.36166,0.55218 -0.27485,0.30369 -0.56184,0.55217 -0.63776,0.55217 -0.0759,0 0.0868,-0.24848 0.36167,-0.55217 z m 282.43696,-0.82827 c 0.27484,-0.30369 0.56183,-0.55217 0.63776,-0.55217 0.0759,0 -0.0868,0.24848 -0.36168,0.55217 -0.27484,0.3037 -0.56183,0.55218 -0.63776,0.55218 -0.0759,0 0.0868,-0.24848 0.36168,-0.55218 z m -279.81413,-1.48468 c 0,-0.0573 0.21741,-0.27473 0.48315,-0.48315 0.43789,-0.3434 0.44765,-0.33365 0.10424,0.10425 -0.36068,0.45988 -0.58739,0.60615 -0.58739,0.3789 z m 282.02282,-0.44792 c 0.27485,-0.3037 0.56184,-0.55218 0.63776,-0.55218 0.0759,0 -0.0868,0.24848 -0.36167,0.55218 -0.27484,0.30369 -0.56184,0.55217 -0.63776,0.55217 -0.0759,0 0.0868,-0.24848 0.36167,-0.55217 z m 2.2087,-1.93261 c 0.27484,-0.3037 0.56184,-0.55218 0.63776,-0.55218 0.0759,0 -0.0868,0.24848 -0.36167,0.55218 -0.27485,0.30369 -0.56184,0.55217 -0.63777,0.55217 -0.0759,0 0.0868,-0.24848 0.36168,-0.55217 z M 231.94475,218.7355 c 0.27484,-0.30369 0.56183,-0.55217 0.63775,-0.55217 0.0759,0 -0.0868,0.24848 -0.36167,0.55217 -0.27484,0.3037 -0.56183,0.55218 -0.63775,0.55218 -0.0759,0 0.0868,-0.24848 0.36167,-0.55218 z m 283.26521,-1.38043 c 0.27485,-0.3037 0.56184,-0.55218 0.63777,-0.55218 0.0759,0 -0.0868,0.24848 -0.36168,0.55218 -0.27484,0.30369 -0.56184,0.55217 -0.63776,0.55217 -0.0759,0 0.0868,-0.24848 0.36167,-0.55217 z M 234.9817,215.97463 c 0.27484,-0.30369 0.56183,-0.55217 0.63776,-0.55217 0.0759,0 -0.0868,0.24848 -0.36167,0.55217 -0.27484,0.3037 -0.56183,0.55218 -0.63776,0.55218 -0.0759,0 0.0868,-0.24848 0.36167,-0.55218 z m 282.43696,-0.55217 c 0.27484,-0.3037 0.56184,-0.55217 0.63776,-0.55217 0.0759,0 -0.0868,0.24847 -0.36167,0.55217 -0.27485,0.3037 -0.56184,0.55217 -0.63776,0.55217 -0.0759,0 0.0868,-0.24847 0.36167,-0.55217 z m 2.2087,-1.93261 c 0.27484,-0.30369 0.56183,-0.55217 0.63776,-0.55217 0.0759,0 -0.0868,0.24848 -0.36168,0.55217 -0.27484,0.3037 -0.56183,0.55218 -0.63776,0.55218 -0.0759,0 0.0868,-0.24848 0.36168,-0.55218 z m 1.79456,-1.48468 c 0,-0.0573 0.21742,-0.27474 0.48315,-0.48316 0.4379,-0.34339 0.44765,-0.33365 0.10425,0.10425 -0.36068,0.45988 -0.5874,0.60615 -0.5874,0.37891 z m 2.2087,-1.93261 c 0,-0.0573 0.21742,-0.27474 0.48315,-0.48315 0.4379,-0.3434 0.44765,-0.33366 0.10425,0.10425 -0.36068,0.45987 -0.5874,0.60614 -0.5874,0.3789 z m 2.20869,-1.93261 c 0,-0.0573 0.21742,-0.27474 0.48315,-0.48315 0.43791,-0.3434 0.44765,-0.33365 0.10425,0.10425 -0.36068,0.45987 -0.5874,0.60615 -0.5874,0.3789 z m 2.2087,-1.93261 c 0,-0.0573 0.21742,-0.27473 0.48315,-0.48315 0.4379,-0.3434 0.44765,-0.33365 0.10425,0.10425 -0.36068,0.45988 -0.5874,0.60615 -0.5874,0.3789 z m 2.20869,-1.93261 c 0,-0.0573 0.21742,-0.27473 0.48316,-0.48315 0.4379,-0.3434 0.44764,-0.33365 0.10425,0.10425 -0.36068,0.45988 -0.58741,0.60615 -0.58741,0.3789 z m 2.2087,-1.93261 c 0,-0.0573 0.21742,-0.27473 0.48315,-0.48315 0.4379,-0.3434 0.44765,-0.33365 0.10425,0.10425 -0.36068,0.45988 -0.5874,0.60615 -0.5874,0.3789 z m 2.34674,-2.10444 c 0.27484,-0.3037 0.56184,-0.55218 0.63776,-0.55218 0.0759,0 -0.0868,0.24848 -0.36167,0.55218 -0.27485,0.30369 -0.56184,0.55217 -0.63777,0.55217 -0.0759,0 0.0868,-0.24848 0.36168,-0.55217 z m 2.20869,-1.93261 c 0.27485,-0.3037 0.56184,-0.55218 0.63776,-0.55218 0.0759,0 -0.0868,0.24848 -0.36167,0.55218 -0.27484,0.30369 -0.56184,0.55217 -0.63776,0.55217 -0.0759,0 0.0868,-0.24848 0.36167,-0.55217 z m 80.59117,-0.89728 -0.52595,-0.6212 0.6212,0.52594 c 0.58376,0.49426 0.74687,0.71645 0.52594,0.71645 -0.0524,0 -0.33194,-0.27954 -0.62119,-0.62119 z m -78.38247,-1.03533 c 0.27484,-0.3037 0.56184,-0.55217 0.63776,-0.55217 0.0759,0 -0.0868,0.24847 -0.36167,0.55217 -0.27485,0.3037 -0.56184,0.55217 -0.63776,0.55217 -0.0759,0 0.0868,-0.24847 0.36167,-0.55217 z m 75.36136,-2.27772 -1.37006,-1.44945 1.44946,1.37005 c 0.7972,0.75353 1.44946,1.40579 1.44946,1.44946 0,0.20601 -0.25577,-0.0232 -1.52886,-1.37006 z m -73.15266,0.34511 c 0.27484,-0.30369 0.56183,-0.55217 0.63776,-0.55217 0.0759,0 -0.0868,0.24848 -0.36168,0.55217 -0.27484,0.3037 -0.56183,0.55217 -0.63776,0.55217 -0.0759,0 0.0868,-0.24847 0.36168,-0.55217 z m 2.20869,-1.93261 c 0.27485,-0.30369 0.56184,-0.55217 0.63776,-0.55217 0.0759,0 -0.0868,0.24848 -0.36167,0.55217 -0.27485,0.3037 -0.56184,0.55218 -0.63776,0.55218 -0.0759,0 0.0868,-0.24848 0.36167,-0.55218 z m 2.2087,-1.93261 c 0.27484,-0.30369 0.56183,-0.55217 0.63776,-0.55217 0.0759,0 -0.0868,0.24848 -0.36168,0.55217 -0.27484,0.3037 -0.56183,0.55218 -0.63776,0.55218 -0.0759,0 0.0868,-0.24848 0.36168,-0.55218 z m 64.4663,-0.69021 c -0.67061,-0.68332 -1.15719,-1.2424 -1.08127,-1.2424 0.0759,0 0.68674,0.55908 1.35736,1.2424 0.67061,0.68331 1.15719,1.24239 1.08127,1.24239 -0.0759,0 -0.68674,-0.55908 -1.35736,-1.24239 z m -62.25761,-1.2424 c 0.27485,-0.30369 0.56184,-0.55217 0.63776,-0.55217 0.0759,0 -0.0868,0.24848 -0.36167,0.55217 -0.27485,0.3037 -0.56184,0.55218 -0.63776,0.55218 -0.0759,0 0.0868,-0.24848 0.36167,-0.55218 z m 59.05638,-1.72554 -0.52594,-0.62119 0.62119,0.52594 c 0.58376,0.49426 0.74687,0.71645 0.52595,0.71645 -0.0524,0 -0.33194,-0.27954 -0.6212,-0.6212 z m -56.84768,-0.20706 c 0.27484,-0.3037 0.56183,-0.55218 0.63776,-0.55218 0.0759,0 -0.0868,0.24848 -0.36168,0.55218 -0.27484,0.30369 -0.56183,0.55217 -0.63776,0.55217 -0.0759,0 0.0868,-0.24848 0.36168,-0.55217 z m 2.20869,-1.93261 c 0.27485,-0.3037 0.56184,-0.55218 0.63776,-0.55218 0.0759,0 -0.0868,0.24848 -0.36167,0.55218 -0.27484,0.30369 -0.56184,0.55217 -0.63776,0.55217 -0.0759,0 0.0868,-0.24848 0.36167,-0.55217 z m 51.17891,-0.75924 c -0.3434,-0.43789 -0.33366,-0.44766 0.10425,-0.10424 0.45987,0.36067 0.60615,0.58739 0.3789,0.58739 -0.0573,0 -0.27474,-0.21742 -0.48315,-0.48315 z M 554.6904,182.8442 c 0.27484,-0.3037 0.56184,-0.55218 0.63776,-0.55218 0.0759,0 -0.0868,0.24848 -0.36167,0.55218 -0.27485,0.30369 -0.56184,0.55217 -0.63776,0.55217 -0.0759,0 0.0868,-0.24848 0.36167,-0.55217 z m 2.2087,-1.93261 c 0.27484,-0.3037 0.56183,-0.55217 0.63776,-0.55217 0.0759,0 -0.0868,0.24847 -0.36168,0.55217 -0.27484,0.3037 -0.56183,0.55217 -0.63776,0.55217 -0.0759,0 0.0868,-0.24847 0.36168,-0.55217 z m 1.79456,-1.48467 c 0,-0.0573 0.21742,-0.27475 0.48315,-0.48316 0.4379,-0.34341 0.44765,-0.33365 0.10425,0.10424 -0.36068,0.45989 -0.5874,0.60615 -0.5874,0.37892 z m 2.2087,-1.93261 c 0,-0.0573 0.21741,-0.27475 0.48315,-0.48315 0.4379,-0.34342 0.44765,-0.33366 0.10425,0.10423 -0.36068,0.4599 -0.5874,0.60615 -0.5874,0.37892 z m 2.20869,-1.93261 c 0,-0.0573 0.21742,-0.27475 0.48315,-0.48315 0.43791,-0.34342 0.44765,-0.33365 0.10425,0.10424 -0.36068,0.45989 -0.5874,0.60614 -0.5874,0.37891 z m 2.2087,-1.93261 c 0,-0.0573 0.21742,-0.27475 0.48315,-0.48315 0.4379,-0.34342 0.44765,-0.33365 0.10425,0.10424 -0.36068,0.45989 -0.5874,0.60614 -0.5874,0.37891 z m 2.20869,-1.93261 c 0,-0.0573 0.21742,-0.27475 0.48316,-0.48315 0.4379,-0.34342 0.44764,-0.33365 0.10425,0.10424 -0.36068,0.45989 -0.58741,0.60614 -0.58741,0.37891 z m 2.2087,-1.93261 c 0,-0.0573 0.21742,-0.27475 0.48315,-0.48315 0.4379,-0.34342 0.44765,-0.33365 0.10425,0.10424 -0.36068,0.45989 -0.5874,0.60614 -0.5874,0.37891 z m 2.20869,-1.93261 c 0,-0.0573 0.21742,-0.27474 0.48316,-0.48315 0.4379,-0.34341 0.44764,-0.33365 0.10425,0.10424 -0.36068,0.45989 -0.58741,0.60614 -0.58741,0.37891 z M 48.484961,167.27909 c 0,-0.0573 0.217419,-0.27475 0.483152,-0.48315 0.437891,-0.34342 0.447656,-0.33365 0.10424,0.10424 -0.360672,0.45989 -0.587392,0.60614 -0.587392,0.37891 z m 1.932609,-2.2087 c 0,-0.0573 0.217418,-0.27474 0.483152,-0.48315 0.437891,-0.34341 0.447656,-0.33365 0.10424,0.10424 -0.360672,0.45989 -0.587392,0.60614 -0.587392,0.37891 z m 4.555435,-4.86532 c 0.747823,-0.75924 1.421798,-1.38044 1.497722,-1.38044 0.07592,0 -0.473812,0.6212 -1.221635,1.38044 -0.747823,0.75924 -1.421798,1.38043 -1.497722,1.38043 -0.07592,0 0.473812,-0.62119 1.221635,-1.38043 z m 4.279348,-3.96946 c 0,-0.0573 0.217418,-0.27475 0.483152,-0.48315 0.43789,-0.34342 0.447655,-0.33365 0.104239,0.10424 -0.360672,0.45989 -0.587391,0.60614 -0.587391,0.37891 z"
         id="path999" />
      <path
         style="fill:#94c53c;stroke-width:0.276087"
         d="m 480.14692,508.73901 c -5.33789,-0.54171 -7.16004,-0.80007 -10.76739,-1.52679 -10.42284,-2.09969 -20.96157,-6.73928 -30.23152,-13.30918 -1.29071,-0.91476 -2.3812,-1.68601 -2.42333,-1.71387 -0.0905,-0.0599 22.02763,-114.52175 22.15421,-114.64834 0.0686,-0.0685 98.97199,23.09247 100.67997,23.57703 0.54182,0.15372 1.80382,3.8182 2.99969,8.71018 2.65728,10.87024 2.91136,23.63269 0.68994,34.65419 -3.98413,19.76697 -15.2921,37.30434 -31.72833,49.20695 -10.78931,7.81332 -23.2566,12.74147 -36.74063,14.52311 -3.20973,0.4241 -12.38811,0.75449 -14.63261,0.52672 z"
         id="path997" />
      <path
         style="fill:#2b448e;stroke-width:0.276087"
         d="M 90.864309,342.68869 C 89.345831,342.08152 85.867135,340.4716 83.133875,339.11113 54.443478,324.83039 33.220284,298.30051 25.331806,266.85605 22.806963,256.79172 21.845163,248.005 22.074175,237.09529 c 0.160265,-7.6348 0.669482,-12.51403 1.973727,-18.91196 6.391869,-31.35511 25.446171,-58.38674 52.597929,-74.61872 5.88185,-3.51631 15.202182,-7.82297 20.49018,-9.46794 l 1.578226,-0.49094 31.552213,7.35437 c 17.35371,4.0449 42.36101,9.86627 55.57177,12.93637 13.21076,3.0701 24.05932,5.60923 24.10792,5.64252 0.15803,0.10827 26.01999,55.68184 25.94073,55.74283 -0.12573,0.0968 -67.72868,61.25083 -106.19156,96.06156 -19.64186,17.7768 -35.792948,32.35021 -35.891304,32.38536 -0.09836,0.0351 -1.421218,-0.43288 -2.939697,-1.04005 z"
         id="path995" />
      <path
         style="fill:#166554;stroke-width:0.276087"
         d="m 513.4154,363.96815 c -30.29364,-7.07628 -55.3344,-12.93727 -55.64613,-13.02446 -0.42109,-0.11772 -3.99997,-6.71628 -13.92149,-25.66755 -7.34507,-14.03003 -14.01878,-26.76683 -14.83045,-28.30403 l -1.47577,-2.79491 36.794,-32.1636 c 20.23668,-17.69 51.88902,-45.36054 70.33853,-61.49009 18.44952,-16.12957 34.73727,-30.36769 36.19503,-31.64027 l 2.65047,-2.31378 3.14736,1.3337 c 30.12622,12.76612 53.03048,37.59541 63.2124,68.52521 2.21601,6.73161 4.0979,15.77492 4.99356,23.99626 0.52089,4.78139 0.44135,16.92342 -0.14379,21.94892 -2.24028,19.24066 -8.86628,36.71225 -19.87401,52.40409 -7.09971,10.12088 -16.97059,20.01611 -27.37143,27.43896 -7.51804,5.36547 -17.61766,10.63056 -26.09002,13.60112 l -2.89891,1.01641 z"
         id="path993" />
    </g>
  </g>
</svg>
