<?xml version="1.0" encoding="UTF-8" standalone="no"?>
<svg
   xmlns:dc="http://purl.org/dc/elements/1.1/"
   xmlns:cc="http://creativecommons.org/ns#"
   xmlns:rdf="http://www.w3.org/1999/02/22-rdf-syntax-ns#"
   xmlns:svg="http://www.w3.org/2000/svg"
   xmlns="http://www.w3.org/2000/svg"
   xmlns:sodipodi="http://sodipodi.sourceforge.net/DTD/sodipodi-0.dtd"
   xmlns:inkscape="http://www.inkscape.org/namespaces/inkscape"
   width="482.51022mm"
   height="662.3822mm"
   viewBox="0 0 482.51021 662.38222"
   version="1.1"
   id="svg8"
   inkscape:version="1.0.1 (3bc2e813f5, 2020-09-07)"
   sodipodi:docname="firebase.svg">
  <defs
     id="defs2" />
  <sodipodi:namedview
     id="base"
     pagecolor="#ffffff"
     bordercolor="#666666"
     borderopacity="1.0"
     inkscape:pageopacity="0.0"
     inkscape:pageshadow="2"
     inkscape:zoom="0.35"
     inkscape:cx="864.04826"
     inkscape:cy="1263.855"
     inkscape:document-units="mm"
     inkscape:current-layer="layer1"
     inkscape:document-rotation="0"
     showgrid="false"
     inkscape:window-width="1920"
     inkscape:window-height="1016"
     inkscape:window-x="1920"
     inkscape:window-y="27"
     inkscape:window-maximized="0" />
  <metadata
     id="metadata5">
    <rdf:RDF>
      <cc:Work
         rdf:about="">
        <dc:format>image/svg+xml</dc:format>
        <dc:type
           rdf:resource="http://purl.org/dc/dcmitype/StillImage" />
        <dc:title></dc:title>
      </cc:Work>
    </rdf:RDF>
  </metadata>
  <g
     inkscape:label="Layer 1"
     inkscape:groupmode="layer"
     id="layer1"
     transform="translate(104.37072,99.387722)">
    <g
       id="g1037"
       transform="translate(151.73659,-21.771742)">
      <path
         style="fill:#fac83d;stroke-width:0.201587"
         d="m -20.906376,584.557 c -2.88038,-0.37144 -6.426885,-1.19329 -9.135855,-2.11711 -3.509655,-1.19688 -5.069598,-1.91645 -9.410176,-4.34074 -1.829405,-1.02174 -51.314046,-28.64535 -109.965873,-61.38579 -58.65182,-32.74042 -106.66187,-59.54484 -106.689,-59.56536 -0.0271,-0.0205 18.31665,-117.64129 40.76397,-261.37952 30.66872,-196.38275608 40.94275,-261.74307 41.33407,-262.954914 0.74625,-2.310994 1.92496,-4.185536 3.80809,-6.05614 1.37012,-1.360998 1.97182,-1.787292 3.74875,-2.655885 2.7831,-1.360435 4.33601,-1.72791 7.25714,-1.717299 2.79866,0.01017 4.73777,0.466553 7.01256,1.650468 2.52704,1.315203 4.71175,3.37915 6.09177,5.755046 0.322,0.554365 19.254,36.088081 42.07112,78.9638148 22.817112,42.8757332 41.537008,77.9594842 41.599772,77.9638912 0.06276,0.0044 7.447627,-13.984666 16.410803,-31.086829 8.963196,-17.102163 16.644196,-31.698552 17.06892,-32.43642 2.044902,-3.552587 5.333093,-6.1008 9.386288,-7.273974 2.103845,-0.608946 6.516631,-0.642364 8.525429,-0.06456 4.0459374,1.163752 7.542973,3.781399 9.4746026,7.092073 0.3880556,0.665099 14.4034124,27.364992 31.1452374,59.333096 l 30.439682,58.123822 39.511109,-39.6188 C 121.27314,78.995525 139.4995,60.833349 140.04505,60.425474 c 1.32155,-0.988052 2.92993,-1.782943 4.76043,-2.352693 1.23873,-0.385556 1.95037,-0.46804 4.02465,-0.466471 2.91636,0.0022 4.27621,0.304425 6.75317,1.500867 3.62196,1.7495 6.54133,5.135838 7.64746,8.870679 0.1806,0.609801 14.39839,87.695514 31.59508,193.523814 17.1967,105.8283 31.36057,192.98479 31.47529,193.68109 0.12676,0.76946 0.13585,1.33389 0.0231,1.43906 -0.52324,0.48832 -221.237506,123.39973 -223.0401803,124.20667 -3.76002636,1.68311 -7.8048553,2.89237 -11.8165433,3.53269 -2.7453774,0.43821 -9.6473634,0.54743 -12.3739324,0.19582 z M -137.43807,338.10497 C -73.305861,273.85399 -3.0249779,203.45072 18.741693,181.65326 c 21.76665,-21.79745 39.575738,-39.72489 39.575738,-39.83877 0,-0.11388 -1.176302,-2.43612 -2.613982,-5.16052 C 54.265749,133.92956 40.74043,108.17809 25.647166,79.428464 10.553902,50.678844 -2.1534757,26.54355 -2.5914442,25.794482 c -2.1065066,-3.602845 -5.0252286,-6.042419 -8.7886218,-7.34587 -1.360996,-0.47138 -1.890143,-0.543086 -4.083453,-0.553379 -2.066532,-0.0097 -2.7737,0.06861 -3.930952,0.435281 -2.97567,0.94283 -5.663192,3.090271 -7.387449,5.902896 -0.509774,0.831547 -7.983643,15.119048 -16.608575,31.750001 -8.624953,16.630953 -16.101052,31.023668 -16.613555,31.98381 l -0.931828,1.745714 -0.669945,-1.292143 c -0.368469,-0.710678 -0.728081,-1.292049 -0.799136,-1.291937 -0.07106,1.13e-4 -0.388535,0.461948 -0.705511,1.026302 -0.316974,0.564353 -0.642852,0.949796 -0.724172,0.85654 -0.08132,-0.09325 -16.549755,-31.193842 -36.596518,-69.112414 -48.77357,-92.255468 -46.53941,-88.056834 -47.56734,-89.392715 -2.87203,-3.732418 -6.67618,-5.655701 -11.18665,-5.655701 -6.11483,0 -11.25285,3.861666 -13.29122,9.989499 -0.4668,1.403298 -1.11958,5.135037 -2.94256,16.821613 -3.06731,19.663572 -57.99782,370.932141 -69.44329,444.074601 l -8.87637,56.72462 -1.14314,2.13888 -1.14313,2.1389 0.99139,-0.90702 c 0.54526,-0.49887 53.46319,-53.47602 117.5954,-117.72699 z"
         id="path1043" />
      <path
         style="fill:#faa210;stroke-width:0.201587"
         d="m -247.89367,448.67549 c 3.60209,-3.60338 6.59462,-6.55159 6.65005,-6.55159 0.0554,0 -2.84637,2.94821 -6.44846,6.55159 -3.6021,3.60337 -6.59462,6.55158 -6.65006,6.55158 -0.0554,0 2.84638,-2.94821 6.44847,-6.55158 z m -5.75149,3.1246 c 0.0587,-0.27718 4.51024,-28.67076 9.89225,-63.09683 5.382,-34.42607 22.43176,-143.46465 37.88836,-242.30794 15.45661,-98.843298 29.15713,-186.473301 30.44561,-194.733341 2.50591,-16.064541 2.78977,-17.385939 4.25187,-19.792818 1.66967,-2.74857 3.52206,-4.459972 6.18833,-5.717319 2.04272,-0.963293 3.54651,-1.300975 5.79359,-1.300975 4.51858,0 8.31392,1.922378 11.19981,5.672815 0.51476,0.66896 4.76422,8.460953 9.63586,17.668699 4.79325,9.059588 23.52828,44.4788648 41.633398,78.7095 21.399563,40.459319 32.998384,62.189608 33.146989,62.100591 0.169105,-0.101295 0.170079,-0.06129 0.0037,0.153751 -0.123668,0.159875 -2.358291,4.372824 -4.965829,9.36211 -6.407303,12.259787 -99.178678,189.542107 -113.138148,216.202387 -6.12467,11.6971 -15.74127,30.06675 -21.37021,40.82143 -5.62895,10.75468 -13.70403,26.17611 -17.94462,34.26984 -8.80085,16.79759 -27.02817,51.63022 -29.53642,56.44445 -2.4445,4.69188 -3.24505,6.11223 -3.12458,5.54365 z m 102.91657,-100.49127 c 9.92267,-9.92314 18.08657,-18.04207 18.14201,-18.04207 0.0554,0 -8.01776,8.11893 -17.94043,18.04207 -9.92267,9.92313 -18.08657,18.04206 -18.14201,18.04206 -0.0554,0 8.01775,-8.11893 17.94043,-18.04206 z M -41.972248,242.35088 c 9.978107,-9.97857 18.187367,-18.14286 18.242803,-18.14286 0.05544,0 -8.063108,8.16429 -18.041216,18.14286 -9.978107,9.97857 -18.187373,18.14285 -18.24281,18.14285 -0.05544,0 8.063115,-8.16428 18.041223,-18.14285 z m 71.765077,-71.96667 c 13.415292,-13.41564 24.436795,-24.39207 24.492232,-24.39207 0.05544,0 -10.875353,10.97643 -24.290645,24.39207 -13.415291,13.41563 -24.4367946,24.39206 -24.4922311,24.39206 -0.055436,0 10.8753521,-10.97643 24.2906441,-24.39206 z M -1.5539954,189.639 c -0.7206745,-0.16175 -2.1701477,-0.71914 -3.2210626,-1.23863 -1.6160044,-0.79883 -2.2110094,-1.24283 -3.8572922,-2.87837 -2.6276498,-2.61047 -3.9764708,-4.73399 -9.8073228,-15.44017 -5.259372,-9.65684 -7.606897,-14.07918 -18.19152,-34.26985 -3.360137,-6.40965 -5.876128,-11.20261 -9.550198,-18.19325 -1.150862,-2.18974 -3.5662,-6.79349 -5.367403,-10.23056 -1.801202,-3.43706 -4.157056,-7.927417 -5.235238,-9.978568 -1.07818,-2.05115 -2.437392,-4.63989 -3.020471,-5.752755 l -1.060144,-2.023392 6.441218,-12.3901 c 3.542655,-6.814557 11.002837,-21.189389 16.578177,-31.944072 5.57534,-10.754682 10.553961,-20.234326 11.063594,-21.065873 1.723572,-2.812292 4.411335,-4.960016 7.387187,-5.902896 1.157252,-0.366671 1.86442,-0.444978 3.930952,-0.435281 2.19331,0.0103 2.722457,0.082 4.083453,0.553379 3.763373,1.303447 6.6820547,3.742978 8.7886419,7.34587 0.4379686,0.749068 13.2023351,24.992917 28.3652271,53.87522 15.162913,28.882298 28.45699,54.191578 29.542397,56.242858 1.085406,2.05127 1.898307,3.75613 1.806424,3.78857 -0.09186,0.0324 -3.10134,3.07136 -6.687719,6.75317 -34.566275,35.486 -36.490224,37.42539 -39.001578,39.31449 -4.4500802,3.34745 -9.1184187,4.73861 -12.9873224,3.87021 z M 57.914257,141.15405 c -0.118675,-0.22175 -0.170422,-0.40318 -0.114985,-0.40318 0.05544,0 0.197898,0.18143 0.316572,0.40318 0.118675,0.22174 0.170422,0.40317 0.114986,0.40317 -0.05544,0 -0.197899,-0.18143 -0.316573,-0.40317 z"
         id="path1041" />
      <path
         style="fill:#f4850b;stroke-width:0.201587"
         d="m -253.45222,451.91705 c 1.27275,-2.48575 2.7617,-5.36593 3.30877,-6.4004 0.54707,-1.03446 4.60001,-8.77513 9.00654,-17.20148 4.40652,-8.42635 12.47798,-23.84778 17.93658,-34.26984 5.45859,-10.42207 14.53058,-27.7485 20.15998,-38.50318 5.62939,-10.75468 15.24635,-29.12433 21.37102,-40.82143 6.12466,-11.6971 33.01951,-63.08675 59.76632,-114.19921 65.947421,-126.023823 59.317546,-113.384309 59.476781,-113.389405 0.05936,-0.0018 0.400333,0.563509 0.757719,1.256465 0.357388,0.692957 0.906858,1.668135 1.221046,2.167064 0.314188,0.498929 1.777617,3.220357 3.252065,6.047619 2.530142,4.851557 6.275195,11.997177 11.01429,21.015477 3.863663,7.35237 6.254125,11.90637 9.549916,18.19325 10.584623,20.19067 12.932148,24.61301 18.19152,34.26985 5.830852,10.70618 7.179673,12.8297 9.8073228,15.44017 1.6475326,1.63679 2.2400582,2.07877 3.8572922,2.87726 2.3618573,1.16616 4.3669453,1.62141 6.4464594,1.46364 4.6363667,-0.35171 8.8187386,-2.7286 14.2149686,-8.07859 2.371533,-2.35121 15.995024,-16.28287 34.556921,-35.33859 3.590995,-3.68653 6.582248,-6.70202 6.64724,-6.70109 0.06499,0 0.365175,0.46835 0.667052,1.0387 l 0.548882,1.037 -52.9615787,53.1234 C -70.416169,270.93626 -255.58781,456.4366 -255.68464,456.4366 c -0.0449,0 0.95966,-2.0338 2.23242,-4.51955 z"
         id="path1039" />
    </g>
  </g>
</svg>
