<?xml version="1.0" encoding="UTF-8" standalone="no"?>
<svg
   xmlns:dc="http://purl.org/dc/elements/1.1/"
   xmlns:cc="http://creativecommons.org/ns#"
   xmlns:rdf="http://www.w3.org/1999/02/22-rdf-syntax-ns#"
   xmlns:svg="http://www.w3.org/2000/svg"
   xmlns="http://www.w3.org/2000/svg"
   xmlns:sodipodi="http://sodipodi.sourceforge.net/DTD/sodipodi-0.dtd"
   xmlns:inkscape="http://www.inkscape.org/namespaces/inkscape"
   width="183.40289mm"
   height="147.60516mm"
   viewBox="0 0 183.40289 147.60517"
   version="1.1"
   id="svg8"
   inkscape:version="1.0.1 (3bc2e813f5, 2020-09-07)"
   sodipodi:docname="gcp.svg">
  <defs
     id="defs2" />
  <sodipodi:namedview
     id="base"
     pagecolor="#ffffff"
     bordercolor="#666666"
     borderopacity="1.0"
     inkscape:pageopacity="0.0"
     inkscape:pageshadow="2"
     inkscape:zoom="0.98994949"
     inkscape:cx="330.03432"
     inkscape:cy="205.24646"
     inkscape:document-units="mm"
     inkscape:current-layer="layer1"
     inkscape:document-rotation="0"
     showgrid="false"
     inkscape:window-width="1920"
     inkscape:window-height="1016"
     inkscape:window-x="1920"
     inkscape:window-y="27"
     inkscape:window-maximized="0" />
  <metadata
     id="metadata5">
    <rdf:RDF>
      <cc:Work
         rdf:about="">
        <dc:format>image/svg+xml</dc:format>
        <dc:type
           rdf:resource="http://purl.org/dc/dcmitype/StillImage" />
        <dc:title></dc:title>
      </cc:Work>
    </rdf:RDF>
  </metadata>
  <g
     inkscape:label="Layer 1"
     inkscape:groupmode="layer"
     id="layer1"
     transform="translate(-16.423589,-151.06702)">
    <g
       id="g1077"
       transform="translate(-57.264193,13.185569)">
      <path
         style="fill:#f9ba37;stroke-width:0.264583"
         d="m 91.711426,272.85657 c -8.188973,-7.22907 -13.674672,-15.93834 -16.236668,-25.77786 -3.887978,-14.93205 -1.393715,-29.82204 7.112801,-42.46125 3.34743,-4.97371 6.71739,-8.53288 11.668209,-12.32336 0.945885,-0.7242 1.680104,-1.45365 1.631597,-1.621 -0.04851,-0.16736 -0.0073,-0.22343 0.09149,-0.1246 0.182343,0.18234 0.52457,0.0116 3.538979,-1.76515 9.624076,-5.67278 21.687636,-8.02604 33.102516,-6.45738 2.76086,0.3794 2.78828,0.38469 5.19016,1.00192 10.31053,2.64956 20.03823,8.61972 26.68006,16.37429 l 1.97707,2.3083 -11.55104,11.56186 -11.55105,11.56186 -0.77957,-1.3754 c -1.84172,-3.24934 -5.25772,-6.58749 -8.24584,-8.05791 -5.631,-2.77095 -12.2396,-2.84346 -17.74822,-0.19473 -4.98866,2.39871 -8.57417,6.53538 -10.43289,12.03661 -0.80321,2.37725 -1.02024,7.58901 -0.42194,10.13252 1.26866,5.39333 4.85463,10.32503 9.36995,12.88623 0.89792,0.50933 1.63387,0.98609 1.63545,1.05948 0.002,0.0734 -5.16045,5.29572 -11.47117,11.60519 L 93.797293,274.69794 Z M 162.7167,169.68838 c 0.1819,-0.0734 0.47956,-0.0734 0.66146,0 0.1819,0.0734 0.0331,0.13345 -0.33073,0.13345 -0.3638,0 -0.51263,-0.0601 -0.33073,-0.13345 z m 4.63021,-0.007 c 0.25466,-0.0666 0.67138,-0.0666 0.92604,0 0.25467,0.0666 0.0463,0.121 -0.46302,0.121 -0.50932,0 -0.71768,-0.0545 -0.46302,-0.121 z M 114.62868,158.3544 c 0.79043,-0.80036 1.49667,-1.4552 1.56943,-1.4552 0.0728,0 -0.51442,0.65484 -1.30484,1.4552 -0.79042,0.80037 -1.49667,1.45521 -1.56943,1.45521 -0.0728,0 0.51442,-0.65484 1.30484,-1.45521 z m 46.10365,-20.423 c 0.25466,-0.0666 0.67138,-0.0666 0.92604,0 0.25466,0.0666 0.0463,0.121 -0.46302,0.121 -0.50932,0 -0.71768,-0.0545 -0.46302,-0.121 z m 6.87917,0 c 0.25466,-0.0666 0.67138,-0.0666 0.92604,0 0.25466,0.0666 0.0463,0.121 -0.46302,0.121 -0.50933,0 -0.71769,-0.0545 -0.46302,-0.121 z"
         id="path1085" />
      <path
         style="fill:#4184ed;stroke-width:0.264583"
         d="m 164.89952,269.48653 v -15.99999 l 22.02656,-0.0734 22.02656,-0.0734 2.11667,-0.72083 c 3.13097,-1.06626 5.28086,-2.43425 7.80521,-4.96648 3.98769,-4.00016 5.54654,-7.58867 5.75697,-13.2527 0.10374,-2.79236 0.0338,-3.68502 -0.43334,-5.53236 -2.06527,-8.16707 -9.17585,-14.30075 -17.38261,-14.99447 l -1.89798,-0.16044 -0.14135,-5.18949 c -0.116,-4.2588 -0.25918,-5.68807 -0.79838,-7.96962 -0.71146,-3.01043 -2.18741,-7.18412 -3.37883,-9.55466 -1.59961,-3.1827 -4.58313,-7.2393 -7.40252,-10.06496 l -2.81434,-2.8206 11.16402,-11.1617 11.16401,-11.1617 3.09122,3.1027 c 8.11092,8.14107 13.79218,17.34212 17.35128,28.10117 l 1.2466,3.76844 2.35794,1.76162 c 7.84115,5.85815 14.55344,15.27823 17.6946,24.83275 6.69785,20.37292 0.40292,42.29874 -16.12699,56.17175 -7.80132,6.5474 -17.80502,10.71058 -28.07702,11.68465 -1.70672,0.16185 -11.5443,0.27345 -24.11547,0.27358 l -21.23281,2.2e-4 z"
         id="path1083" />
      <path
         style="fill:#e7433b;stroke-width:0.264583"
         d="m 95.951728,190.19981 c 2.641219,-8.31224 5.203762,-13.99472 8.801362,-19.51717 5.60304,-8.60088 13.9123,-16.74482 22.51273,-22.06483 21.60027,-13.36138 49.05298,-14.22954 71.50036,-2.26111 4.73947,2.52698 13.49375,8.73563 13.49375,9.56995 0,0.1723 -4.98364,5.29586 -11.07476,11.38569 l -11.07476,11.07241 -1.60043,-1.17818 c -11.72337,-8.63025 -27.79417,-9.99148 -40.92584,-3.4665 -4.20007,2.08696 -6.78883,3.92171 -10.60414,7.51556 l -1.59347,1.50098 -2.11069,-0.33321 c -11.56356,-1.82554 -24.4778,0.69756 -34.355656,6.71217 -2.037332,1.24053 -3.151383,1.63994 -2.968456,1.06424 z"
         id="path1081" />
      <path
         style="fill:#36a759;stroke-width:0.264583"
         d="m 118.33285,284.8187 c -6.08007,-0.84353 -10.53909,-2.20352 -16.00729,-4.8822 -3.747874,-1.83595 -8.333796,-4.67898 -8.334171,-5.16674 -1.13e-4,-0.14615 5.149248,-5.41336 11.443021,-11.70491 l 11.44323,-11.43918 1.96394,0.66544 c 1.08016,0.36599 3.04469,0.77934 4.36562,0.91855 1.32093,0.13921 11.24208,0.25517 22.047,0.2577 l 19.64532,0.005 v 15.875 15.875 l -22.02657,-0.0273 c -16.65222,-0.0206 -22.63985,-0.11235 -24.5401,-0.37598 z"
         id="path1079" />
    </g>
  </g>
</svg>
