<?xml version="1.0" encoding="UTF-8" standalone="no"?>
<svg
   xmlns:dc="http://purl.org/dc/elements/1.1/"
   xmlns:cc="http://creativecommons.org/ns#"
   xmlns:rdf="http://www.w3.org/1999/02/22-rdf-syntax-ns#"
   xmlns:svg="http://www.w3.org/2000/svg"
   xmlns="http://www.w3.org/2000/svg"
   version="1.1"
   id="svg983"
   width="695.51941"
   height="529.92212"
   viewBox="0 0 695.51941 529.92212">
  <metadata
     id="metadata989">
    <rdf:RDF>
      <cc:Work
         rdf:about="">
        <dc:format>image/svg+xml</dc:format>
        <dc:type
           rdf:resource="http://purl.org/dc/dcmitype/StillImage" />
        <dc:title></dc:title>
      </cc:Work>
    </rdf:RDF>
  </metadata>
  <defs
     id="defs987" />
  <g
     id="g991"
     transform="translate(-832.34167,-173.11561)">
    <g
       id="g1556"
       transform="translate(226.17709,-104.02832)">
      <path
         style="fill:#73b3fe"
         d="m 620.22748,804.88357 c -8.57994,-4.24699 -12.98906,-12.59838 -13.92921,-26.38357 -0.96915,-14.21039 3.36519,-25.60177 11.88715,-31.24146 3.46329,-2.29195 5.44929,-2.80941 11.74146,-3.0593 10.50142,-0.41706 14.4479,1.5753 14.8787,7.51143 l 0.30557,4.21066 -4.61054,-2.57688 c -3.88274,-2.17011 -5.54308,-2.50943 -10.5181,-2.14957 -3.96273,0.28664 -6.62612,1.06563 -8.09022,2.36622 -5.64462,5.01425 -8.27387,19.31699 -5.88165,31.99529 1.80642,9.57368 5.51727,13.57406 13.18119,14.20961 C 637.97109,800.49405 639,799.4719 639,790.02231 V 782.115 l -4.25,-0.3075 C 630.61809,781.50854 630.5,781.40275 630.5,778 v -3.5 l 8.25,-0.29044 8.25,-0.29044 v 13.95099 13.95099 l -5.19634,2.58945 c -6.74013,3.35875 -15.36434,3.54782 -21.57618,0.47302 z m 198.654,0.61334 c -5.28765,-2.87352 -6.34871,-7.18152 -6.7109,-27.24691 L 811.84116,760 h 4.0163 4.01629 l 0.31313,17.89783 c 0.36813,21.0424 0.78979,22.10217 8.79379,22.10217 8.94725,0 10.95826,-4.80097 10.99547,-26.25 L 840,760 h 3.5 3.5 v 23 23 h -3.5 c -3.25604,0 -3.5,-0.21861 -3.5,-3.13636 v -3.13637 l -2.75,2.75392 c -1.5125,1.51466 -3.79179,3.15102 -5.0651,3.63637 -3.45131,1.31553 -10.33124,0.99456 -13.30342,-0.62065 z M 877,806.29629 c -0.825,-0.30019 -2.7375,-1.69886 -4.25,-3.10814 L 870,800.62582 v 2.68709 C 870,805.7172 869.63165,806 866.5,806 H 863 v -32 -32 h 3.5 3.5 v 11.67431 11.67432 l 2.25,-2.04935 c 7.0576,-6.42823 17.45305,-5.59378 22.98008,1.84461 C 898.85168,770.01793 900,774.31665 900,783 c 0,4.23585 -0.51215,9.2312 -1.1381,11.10078 -1.56732,4.68119 -5.39798,9.60796 -8.86393,11.40027 -2.82006,1.45831 -9.97303,1.89594 -12.99797,0.79524 z m 8.37723,-6.68055 C 889.77831,797.77686 892,792.21794 892,783.04486 892,771.29078 888.67255,766 881.28023,766 c -5.86867,0 -8.69942,2.88529 -10.27451,10.47243 -2.13399,10.27938 0.65047,20.60683 6.20685,23.02096 4.12462,1.79207 4.16695,1.7927 8.16466,0.12235 z m 143.30777,6.3674 c -8.4455,-2.53499 -13.817,-10.90199 -13.9564,-21.73957 -0.1517,-11.79165 3.3399,-18.60386 11.6608,-22.75032 5.9359,-2.958 13.5493,-3.30181 19.5904,-0.88467 3.7298,1.49238 4.0202,1.88983 4.0202,5.50194 v 3.89337 l -3.7352,-2.00195 C 1043.7959,766.67871 1040.6209,766 1036.8997,766 c -9.5733,0 -13.9011,5.36155 -13.8981,17.21788 0,7.17508 2.0207,12.05625 6.278,15.17841 3.814,2.79696 12.2464,2.67093 17.2092,-0.2572 l 3.6262,-2.1395 -0.3075,4.16663 c -0.2767,3.74919 -0.6581,4.2926 -3.8075,5.42412 -3.996,1.4357 -13.1488,1.64334 -17.315,0.3928 z M 1173.9619,804.75 c -3.1272,-1.57697 -5.2097,-3.59607 -6.9619,-6.75 -2.2222,-4 -2.5,-5.66667 -2.5,-15 0,-9.64067 0.2239,-10.88088 2.7359,-15.15395 6.9356,-11.7981 25.5031,-11.97304 32.3412,-0.30472 4.8621,8.29656 4.4858,25.34855 -0.7208,32.66054 -4.8059,6.74917 -16.3479,8.85787 -24.8944,4.54813 z m 16.6405,-6.89361 c 6.4528,-5.91653 5.4545,-27.07963 -1.4516,-30.77571 -3.675,-1.96677 -10.0036,-1.31875 -12.614,1.29159 -7.6622,7.66223 -4.97,30.18936 3.8176,31.94453 3.4739,0.69384 7.9905,-0.39056 10.248,-2.46041 z m 81.8976,7.79038 c -3.6378,-1.09091 -4.0281,-1.53668 -4.3104,-4.92315 -0.1707,-2.04799 -0.044,-3.72362 0.2816,-3.72362 0.3255,0 3.3728,0.93683 6.7717,2.08184 9.8401,3.31487 16.8238,1.48494 18.407,-4.82314 0.9445,-3.76319 -2.8704,-6.60717 -11.7973,-8.79483 -8.5214,-2.08827 -12.1803,-5.06643 -13.2536,-10.78787 -0.8615,-4.59208 1.5046,-10.02599 5.7017,-13.09459 3.6095,-2.63892 15.3675,-3.36222 21.1993,-1.3041 3.6072,1.27304 4.0313,1.78367 4.3183,5.20037 0.2802,3.33489 0.1005,3.69603 -1.5,3.01493 -11.4939,-4.89134 -22.3183,-3.09756 -22.3183,3.69852 0,3.22287 3.5825,5.51522 11.3038,7.23304 4.1591,0.92531 8.6846,2.56544 10.0567,3.64474 4.8189,3.7906 5.7881,12.41849 2.0021,17.82376 -3.813,5.44382 -16.8617,7.75317 -26.8626,4.7541 z M 662,803 v -3 h 7.5 7.5 v -17 -17 h -6 -6 v -3 -3 h 10 10 v 20 20 h 7.5 7.5 v 3 3 h -19 -19 z m 65.21257,1.49339 C 722.00148,802.22928 721,798.45497 721,781.07984 v -14.98441 l -6.25,-0.29771 c -5.92061,-0.28203 -6.25,-0.42948 -6.25,-2.79772 0,-2.36824 0.32939,-2.51569 6.25,-2.79772 L 721,759.90457 V 753.45228 747 h 4 4 v 6.5 6.5 h 8.5 8.5 v 3 3 h -8.5 -8.5 l 0.0153,14.75 c 0.008,8.1125 0.34592,15.24513 0.75,15.8503 1.47148,2.20374 5.22465,3.3997 10.66895,3.3997 5.51749,0 5.56574,0.026 5.56574,3 v 3 l -7.75,-0.0391 c -4.42806,-0.0224 -9.15912,-0.65138 -11.03743,-1.46747 z M 759,775.5 V 745 h 4.5 4.5 v 11.5 11.5 h 11 11 V 756.5 745 h 4.5 4.5 V 775.5 806 H 794.5 790 V 790.5 775 h -11 -11 v 15.5 15.5 h -4.5 -4.5 z m 199,29.49027 c 0,-0.97817 12.33758,-41.9707 16.62574,-55.24027 l 1.53499,-4.75 h 5.21007 5.21007 l 8.86521,29.25 c 4.87582,16.0875 9.06832,29.8125 9.31652,30.5 0.3184,0.88164 -0.8743,1.25 -4.0472,1.25 -4.078,0 -4.5614,-0.2571 -5.17045,-2.75 -0.36952,-1.5125 -1.35456,-5.12736 -2.18896,-8.03301 l -1.5171,-5.28302 -10.6395,0.28302 -10.6395,0.28301 -2.1205,7.5 -2.1205,7.5 -4.15945,0.3075 C 959.56337,805.99942 958,805.69225 958,804.99027 Z M 987.77418,775.75 c -1.13944,-3.9875 -3.06346,-10.85 -4.2756,-15.25 -1.52876,-5.54931 -2.38627,-7.38733 -2.79925,-6 C 979.10097,759.86943 973,782.05285 973,782.49512 973,782.7728 976.79033,783 981.42295,783 h 8.42294 z m 93.43842,28.74339 C 1076.0015,802.22928 1075,798.45497 1075,781.07984 v -14.98441 l -6.25,-0.29771 c -5.9206,-0.28203 -6.25,-0.42948 -6.25,-2.79772 0,-2.36824 0.3294,-2.51569 6.25,-2.79772 l 6.25,-0.29771 V 753.45228 747 h 4 4 v 6.5 6.5 h 8.5 8.5 v 3 3 h -8.5 -8.5 l 0.015,14.75 c 0.01,8.1125 0.3459,15.24513 0.75,15.8503 1.4715,2.20374 5.2247,3.3997 10.669,3.3997 5.5174,0 5.5657,0.026 5.5657,3 v 3 l -7.75,-0.0391 c -4.4281,-0.0224 -9.1591,-0.65138 -11.0374,-1.46747 z M 1117,803 v -3 h 7.5 7.5 v -17 -17 h -5.5 c -5.4444,0 -5.5,-0.0303 -5.5,-3 v -3 h 9.5 9.5 v 20 20 h 7.5 7.5 v 3 3 h -19 -19 z m 100,-20 v -23 h 3.5 c 3.2482,0 3.5,0.2233 3.5,3.10359 v 3.10359 l 3.5183,-3.08914 c 4.1613,-3.65364 7.1584,-4.55887 12.6537,-3.8218 5.2192,0.70005 9.3148,4.60848 10.7336,10.24326 0.6019,2.39038 1.0944,11.57187 1.0944,20.40332 V 806 h -3.9369 -3.9369 l -0.3131,-18.09041 c -0.3051,-17.6267 -0.3736,-18.13936 -2.6739,-20 -2.5717,-2.08018 -8.1349,-2.51747 -11.1946,-0.87995 -4.2262,2.26181 -5.3021,6.60299 -5.7546,23.22036 L 1223.761,806 H 1220.3805 1217 Z M 677,747 v -5 h 4 4 v 5 5 h -4 -4 z m 455.1952,0.25 c 0.3019,-4.70421 0.341,-4.75299 4.0548,-5.06037 l 3.75,-0.31036 V 746.93963 752 h -4.0548 -4.0548 z M 884.5,654.58938 c -16.54329,-3.34914 -32.70797,-17.65656 -38.02097,-33.65252 -1.5038,-4.5275 -1.90258,-4.93784 -4.8094,-4.94873 -5.32391,-0.0199 -13.74342,-2.69386 -22.66651,-7.19858 C 802.42669,600.42113 789.58298,584.41928 784.972,566.39052 783.10529,559.09174 783,555.08836 783,491.40743 c 0,-75.1022 0.78045,-67.41509 -7,-68.94744 -16.78111,-3.30502 -37.13184,-20.05811 -45.92309,-37.80473 -11.46355,-23.14111 -10.46219,-50.06988 2.70868,-72.84234 4.25305,-7.35353 15.95835,-19.20088 24.21441,-24.50827 10.38396,-6.67531 20.31305,-9.6019 34.25871,-10.09774 22.5821,-0.8029 39.39009,6.04176 54.49934,22.1936 C 860.16456,314.80111 866,329.56166 866,350.60182 c 0,23.83792 -8.64001,42.3886 -27.0227,58.01958 -10.2314,8.69985 -25.68036,15.24279 -36.2273,15.34298 -3.27943,0.0311 -3.75,0.33612 -3.75,2.43028 0,8.58885 8.18816,24.03791 16.81305,31.72214 5.52591,4.92323 17.26953,10.65865 23.60124,11.52651 4.31996,0.59211 4.50548,0.5098 5.10366,-2.26443 2.25196,-10.44397 6.72271,-18.45935 14.95767,-26.81682 24.72649,-25.09438 66.6214,-17.47848 81.99782,14.90603 1.83634,3.86755 3.6456,8.94441 4.02058,11.28191 l 0.68178,4.25 h 18.87355 18.87356 l 1.08532,-4.25 c 2.83851,-11.11529 7.11889,-18.54132 15.18817,-26.34995 10.8859,-10.53425 20.4749,-14.54502 34.8834,-14.59063 15.5055,-0.0491 26.031,4.46614 37.0728,15.90346 10.4711,10.84619 14.8577,21.7117 14.8355,36.74722 -0.023,15.57957 -5.2402,27.72549 -16.5061,38.42701 -10.9233,10.37607 -20.0612,14.05312 -34.982,14.07658 -14.1964,0.0223 -24.8443,-4.28711 -35.2271,-14.25715 -7.10781,-6.82528 -10.38001,-12.0916 -13.79789,-22.20654 l -2.36533,-7 -18.90072,-0.27105 -18.90072,-0.27106 -1.76184,6.50878 c -4.47048,16.51527 -18.23243,30.64673 -34.72337,35.6557 -9.10775,2.7664 -24.47987,2.31751 -32.82303,-0.95848 -15.07858,-5.92068 -28.33179,-21.21038 -31.97307,-36.88603 -1.14596,-4.93332 -1.4153,-5.25587 -4.86999,-5.83178 -13.27882,-2.21365 -26.82121,-8.70132 -35.36351,-16.9414 C 801.65481,465.47711 798.81124,463 798.47437,463 c -0.33686,0 -0.44341,21.4875 -0.23678,47.75 0.33588,42.68935 0.56699,48.3329 2.18058,53.25 3.07686,9.37612 6.44104,14.89624 13.19361,21.64882 7.17896,7.17895 18.23719,13.24169 25.68324,14.08097 l 4.2298,0.47676 1.14129,-7.24805 c 4.45806,-28.31212 33.11324,-47.80012 61.53467,-41.84888 12.03005,2.519 26.70215,13.22354 33.10881,24.15568 10.82274,18.46762 9.50763,42.81036 -3.22766,59.744 -7.70617,10.24659 -20.183,17.99053 -32.10133,19.92417 -7.94709,1.28935 -11.74334,1.22229 -19.4806,-0.34409 z m 25.61497,-17.8572 c 16.1231,-7.8883 24.54559,-27.33249 19.44275,-44.88564 -9.27844,-31.91672 -52.51356,-35.31714 -66.72276,-5.24773 -9.62254,20.36316 0.62591,45.06082 21.5641,51.96714 6.7328,2.22078 19.25363,1.32793 25.71591,-1.83377 z M 876.17431,607.68555 C 871.60251,602.81909 874.78372,595.6 881.5,595.6 c 2.71964,0 4.27458,0.63834 5.62884,2.31078 5.89218,7.27654 -4.54895,16.5932 -10.95453,9.77477 z m 26.41665,0.41496 c -2.74647,-3.03481 -2.37149,-8.03238 0.80789,-10.76716 C 904.89082,596.05001 906.96134,595 908,595 c 3.39858,0 7.3239,4.31286 7.22094,7.93386 C 915.09181,607.47577 912.51228,610 908,610 c -2.35495,0 -4.31198,-0.68725 -5.40904,-1.89949 z m 7.45375,-95.70106 c 7.18116,-3.22272 14.01764,-10.26641 17.85814,-18.39945 2.25639,-4.77837 2.59715,-6.81205 2.59715,-15.5 0,-8.75678 -0.33319,-10.71088 -2.68006,-15.71807 -3.75313,-8.00753 -10.54707,-14.92047 -18.08563,-18.40241 -5.34818,-2.47023 -7.44247,-2.87541 -14.73431,-2.85061 -7.08577,0.0241 -9.4665,0.47694 -14.30897,2.72167 -20.80553,9.64446 -27.94712,36.4296 -14.83997,55.65864 10.06126,14.76053 27.90025,19.80227 44.19365,12.49023 z M 878.28085,489.50351 C 872.19885,483.24139 871,481.45885 871,478.67783 871,474.54396 874.47217,471 878.52229,471 c 1.98622,0 4.07935,1.15806 6.67598,3.6936 l 3.78259,3.69361 9.37487,-9.19361 c 8.17214,-8.01413 9.81881,-9.1936 12.83525,-9.1936 4.2159,0 7.80902,3.39758 7.80902,7.38404 0,2.12107 -2.32719,5.21317 -10.11189,13.43555 C 893.8174,496.73761 893.49918,497 889.26508,497 c -3.29433,0 -4.50755,-0.828 -10.98423,-7.49649 z m 172.27895,22.61529 c 23.0684,-10.79501 28.2705,-42.90066 9.8163,-60.5829 -14.8042,-14.18492 -35.6385,-13.88579 -50.3542,0.72295 -12.67744,12.58526 -13.94191,34.85291 -2.787,49.07935 4.317,5.50567 6.3436,7.22688 12.011,10.2009 10.1464,5.3244 20.7551,5.52079 31.3139,0.5797 z m -31.5348,-22.59366 c -6.5149,-6.5586 -7.425,-7.92276 -7.425,-11.12884 0,-2.61129 0.6594,-4.18793 2.3108,-5.52514 3.6524,-2.95756 7.5266,-2.37421 12.1855,1.83478 l 4.102,3.70595 8.9214,-9.20595 c 7.6533,-7.89739 9.3844,-9.20594 12.1784,-9.20594 5.0223,0 7.7019,2.40729 7.7019,6.91916 0,3.51077 -0.9761,4.824 -12.5941,16.94329 C 1034.7204,496.05211 1033.5461,497 1030.1308,497 c -3.2506,0 -4.5487,-0.87364 -11.1058,-7.47486 z M 808.35566,407.41581 C 828.33184,402.26536 845.11904,384.34546 849.4956,363.5 855.91863,332.90726 839.61922,304.40037 810,294.42405 c -8.67241,-2.92103 -24.40852,-2.56202 -33.71602,0.76922 -21.07444,7.54273 -35.74717,26.28359 -38.14454,48.7204 -3.15978,29.57224 14.11119,55.82936 41.86056,63.64075 6.43556,1.8116 21.06914,1.74006 28.35566,-0.13861 z m -33.51509,-20.76008 c -3.53579,-1.57128 -6.73132,-4.54379 -8.44295,-7.85371 -2.02833,-3.92236 -2.01982,-51.37712 0.0101,-56.23537 C 768.42307,317.7432 774.35709,314 779.98825,314 c 3.97181,0 7.01353,1.45521 24.9215,11.92287 24.66444,14.41699 26.30808,15.87201 26.86146,23.77907 0.69563,9.93937 -0.11986,10.64733 -36.20073,31.42747 -12.33288,7.1029 -15.36391,7.91093 -20.72991,5.52632 z M 796.52796,362.75 c 7.70665,-4.5375 15.24057,-8.88854 16.74206,-9.66898 C 814.77151,352.30058 816,351.37869 816,351.03238 816,350.34948 781.84335,330 780.6971,330 780.31369,330 780,339.225 780,350.5 c 0,15.80232 0.28826,20.5 1.25794,20.5 0.69186,0 7.56337,-3.7125 15.27002,-8.25 z M 1029,654.95095 C 1008.8319,652.35342 991.50775,636.95257 986.02838,616.75 l -1.2883,-4.75 h -9.80494 c -13.42668,0 -17.87153,-1.98969 -17.87153,-8 0,-6.00059 4.44744,-8 17.79505,-8 h 9.72847 l 1.16963,-5.57625 c 3.59583,-17.14324 17.47014,-32.10633 35.24324,-38.00896 7.8324,-2.60121 22.4704,-2.37302 30.4201,0.4742 20.4147,7.31169 33.4364,24.3393 35.161,45.97788 2.6178,32.84633 -25.4844,60.21794 -57.5811,56.08408 z m 22.6888,-18.59074 c 21.5139,-10.88505 26.6345,-40.8095 10.0824,-58.9202 -14.4342,-15.7933 -37.6024,-16.01872 -52.1117,-0.50704 -11.29462,12.07483 -13.39561,29.34633 -5.3996,44.38796 9.101,17.12029 30.134,23.78967 47.4289,15.03928 z"
         id="path1562" />
      <path
         style="fill:#1d87fe"
         d="m 620.31437,804.56606 c -9.25314,-4.30822 -13.53208,-13.49911 -13.53208,-29.06606 0,-10.78485 1.33926,-16.03652 5.82097,-22.82583 5.13244,-7.77509 18.67675,-10.99969 28.14674,-6.7011 3.99005,1.81115 4.25,2.17863 4.25,6.00798 v 4.07882 l -2.84113,-2.10053 c -4.02499,-2.97581 -10.43402,-4.23161 -15.13536,-2.96567 -8.62633,2.32283 -12.62065,11.6335 -11.8556,27.63513 0.71639,14.98401 5.38842,21.53787 15.35361,21.53787 7.68853,0 8.47848,-0.9971 8.47848,-10.70185 L 639,781 h -4 c -3.77778,0 -4,-0.16667 -4,-3 v -3 h 8 8 v 12.84501 c 0,11.42846 -0.21326,13.03801 -1.9338,14.59508 -5.42863,4.91284 -16.68895,5.88001 -24.75183,2.12597 z m 199.78203,1.1692 c -6.46776,-3.32391 -7.94806,-9.0311 -8.03679,-30.98526 L 812,760 h 4 4 v 17.44424 c 0,16.95923 0.0666,17.52161 2.39387,20.22727 3.00066,3.48847 9.21182,3.88366 12.66427,0.80576 C 839.20662,794.77886 840,791.0149 840,775.03212 V 760 h 3.5 3.5 v 23 23 h -3.5 c -3.26788,0 -3.5,-0.21137 -3.5,-3.18709 v -3.18709 l -2.75,2.5649 c -1.5125,1.4107 -3.73292,3.06989 -4.93426,3.68709 -2.87876,1.479 -9.20776,1.40516 -12.21934,-0.14255 z m 56.4036,0.156 c -1.1,-0.64042 -3.0125,-2.08138 -4.25,-3.20214 L 870,800.65137 v 2.67432 C 870,805.71538 869.6275,806 866.5,806 H 863 v -32 -32 h 3.5 3.5 v 11.58889 11.5889 l 3.02944,-2.54911 c 7.55741,-6.35914 19.24459,-3.66112 24.18022,5.58209 1.96937,3.68813 2.29034,5.76072 2.29034,14.78923 0,11.92766 -1.81969,16.95526 -7.63573,21.09665 -3.66285,2.60818 -12.24505,3.61062 -15.36427,1.79461 z m 11.19412,-7.05136 c 4.55177,-3.77481 6.1916,-20.06378 2.74998,-27.31645 -3.07238,-6.47456 -11.55078,-8.37802 -15.90189,-3.57009 -6.26172,6.91912 -5.92743,23.81527 0.60034,30.34303 2.5595,2.5595 3.48697,2.88251 6.94494,2.4187 2.19502,-0.29441 4.71801,-1.13825 5.60663,-1.87519 z m 142.06988,7.22435 c -9.5105,-3.07211 -14.7679,-10.91289 -14.7584,-22.01059 0.01,-9.32504 1.5597,-13.88215 6.3628,-18.68524 6.2468,-6.24677 13.5874,-7.7586 23.4501,-4.82968 5.1013,1.51492 5.1815,1.59954 5.1815,5.46628 v 3.92753 l -3.6722,-2.16665 c -5.0268,-2.96587 -13.1326,-3.04281 -17.0018,-0.16137 -4.7981,3.57313 -6.7399,8.00625 -6.7196,15.34038 0.021,7.47078 2.014,12.49085 6.1767,15.55509 4.0029,2.94662 13.9909,2.78257 18.1579,-0.29824 l 3.059,-2.26163 v 3.86942 c 0,3.24511 -0.4437,4.07534 -2.75,5.14572 -3.4739,1.61226 -13.884,2.27248 -17.486,1.10898 z M 1176,805.93484 c -4.4708,-1.86865 -8.9916,-7.16746 -10.5274,-12.33907 -2.7876,-9.387 -1.3741,-21.41403 3.2256,-27.44456 5.8676,-7.69276 18.7119,-9.35694 26.1971,-3.39423 5.9022,4.70169 7.6047,9.23359 7.6047,20.24302 0,11.23873 -2.2177,16.97477 -8.1037,20.96016 -4.077,2.76046 -13.9745,3.82288 -18.3963,1.97468 z m 13.4863,-7.10274 C 1193.3922,795.75977 1195,791.14296 1195,783 c 0,-11.76488 -3.7688,-17.5 -11.5,-17.5 -4.9143,0 -8.0184,2.21004 -10.138,7.21788 -1.7632,4.16572 -1.7532,16.41011 0.017,20.64634 1.835,4.39172 6.135,7.63578 10.1212,7.63578 1.7995,0 4.451,-0.96024 5.9863,-2.1679 z m 84.0137,6.87936 c -4.8416,-1.1763 -5.0101,-1.3378 -5.3183,-5.09633 -0.2804,-3.41883 -0.1016,-3.79172 1.5,-3.12813 4.7013,1.94797 10.9503,3.513 14.0269,3.513 6.689,0 11.7276,-4.81501 9.9328,-9.49204 -0.8591,-2.23889 -6.4375,-5.29928 -11.0576,-6.06639 -9.5696,-1.58892 -13.529,-5.46274 -13.5616,-13.26849 -0.019,-4.53559 0.4,-5.74912 2.8198,-8.16891 3.6055,-3.60552 10.1476,-5.39557 16.847,-4.60972 8.3513,0.97963 10.311,2.06065 10.311,5.68779 0,2.48295 -0.3374,3.00226 -1.6288,2.50673 C 1285.881,763.17975 1276,765.21919 1276,772 c 0,3.60997 2.5224,5.67015 8.5162,6.95549 12.5144,2.68369 16.4572,5.71965 16.7432,12.89237 0.3661,9.18091 -5.1376,14.22363 -16.1045,14.75559 -3.6602,0.17754 -8.9049,-0.22386 -11.6549,-0.89199 z M 662,803 v -3 h 7.5 7.5 v -17 -17 h -5.5 c -5.45954,0 -5.5,-0.0223 -5.5,-3.03753 v -3.03752 l 9.25,0.28752 9.25,0.28753 0.27114,19.75 0.27114,19.75 H 692.52114 700 v 3 3 h -19 -19 z m 66.5,1.47116 c -2.2,-0.79257 -4.06364,-1.44782 -4.14142,-1.4561 -0.0778,-0.008 -0.86528,-1.82417 -1.75,-4.0353 C 721.38963,795.93331 721,791.45223 721,780.47976 V 766 h -6 -6 v -3 -3 h 6 6 v -6.5 -6.5 h 3.5 3.5 v 6.5 6.5 h 8.5 8.5 v 3 3 h -8.59172 -8.59171 l 0.34171,15.08965 c 0.32728,14.45184 0.44151,15.17039 2.7025,17 1.72636,1.39697 3.94343,1.91035 8.25,1.91035 5.87691,0 5.88922,0.006 5.88922,3 v 3 l -6.25,-0.0439 c -3.4375,-0.0241 -8.05,-0.69237 -10.25,-1.48495 z M 759,775.5 V 745 h 4.5 4.5 V 756.5 768 H 779.5 791 V 756.5 745 h 4 4 v 30.5 30.5 h -3.97395 -3.97396 L 790.77605,790.75 790.5,775.5 779.25,775.21725 768,774.9345 V 790.46725 806 h -4.5 -4.5 z m 199,29.90889 c 0,-0.32511 4.12845,-14.0709 9.17434,-30.54621 l 9.17434,-29.95511 5.04014,0.29622 5.04015,0.29621 7.80554,25.5 c 4.29305,14.025 8.44729,27.6375 9.23159,30.25 l 1.4261,4.75 h -4.2526 -4.25262 l -2.00925,-7.75 -2.00926,-7.75 -11.06788,-0.28166 -11.06788,-0.28167 -0.67981,2.78167 c -0.3739,1.52991 -1.35819,5.14416 -2.18731,8.03166 -1.48934,5.18674 -1.55485,5.25 -5.43655,5.25 C 959.76807,806 958,805.734 958,805.40889 Z M 989.76348,782.25 c -4.72223,-17.59111 -8.18991,-29.1569 -8.61456,-28.73225 -0.76263,0.76262 -8.06665,26.63467 -8.1115,28.73225 -0.0328,1.53416 1.02531,1.75 8.57921,1.75 7.71861,0 8.56767,-0.18238 8.14685,-1.75 z M 1082.5,804.47116 c -2.2,-0.79257 -4.0636,-1.44782 -4.1414,-1.4561 -0.078,-0.008 -0.8653,-1.82417 -1.75,-4.0353 -1.219,-3.04645 -1.6086,-7.52753 -1.6086,-18.5 V 766 h -6 -6 v -3 -3 h 6 6 v -6.5 -6.5 h 3.5 3.5 v 6.5 6.5 h 8.5 8.5 v 3 3 h -8.5917 -8.5917 l 0.3417,15.08965 c 0.3273,14.45184 0.4415,15.17039 2.7025,17 1.7263,1.39697 3.9434,1.91035 8.25,1.91035 5.8769,0 5.8892,0.006 5.8892,3 v 3 l -6.25,-0.0439 c -3.4375,-0.0241 -8.05,-0.69237 -10.25,-1.48495 z M 1118,803 v -3 h 7.5 7.5 v -17 -17 h -6 -6 v -3 -3 h 9.5 9.5 v 20 20 h 7.5 7.5 v 3 3 h -18.5 -18.5 z m 99,-20 v -23 h 3.5 c 3.2679,0 3.5,0.21137 3.5,3.18709 v 3.18709 l 2.75,-2.62347 c 7.4573,-7.11415 18.3995,-5.94259 22.9302,2.45507 1.4709,2.72636 1.8404,6.44019 2.1439,21.54422 l 0.3666,18.25 H 1248.0954 1244 v -17.44424 c 0,-16.79518 -0.086,-17.5444 -2.3157,-20.13636 -3.1012,-3.60541 -9.5944,-3.79197 -13.2262,-0.38002 -3.611,3.39235 -4.4463,7.84051 -4.4525,23.71062 L 1224,806 h -3.5 -3.5 z M 677,747.5 V 743 h 4 4 v 4.5 4.5 h -4 -4 z m 456,0 c 0,-4.47619 0.018,-4.5 3.5,-4.5 3.4815,0 3.5,0.0238 3.5,4.5 0,4.47619 -0.018,4.5 -3.5,4.5 -3.4815,0 -3.5,-0.0238 -3.5,-4.5 z M 882,653.62984 c -11.68829,-3.41025 -22.13005,-11.05034 -28.86526,-21.12033 -2.65545,-3.97021 -5.42933,-9.25487 -6.16419,-11.74368 l -1.3361,-4.52511 -8.56723,-1.63668 c -13.49887,-2.57883 -23.63726,-8.07579 -34.12751,-18.50369 -6.6159,-6.57658 -9.51545,-10.36519 -12.32213,-16.10035 -7.22513,-14.76379 -6.90586,-10.95852 -7.35599,-87.67429 l -0.40588,-69.17429 -4.17786,-0.67676 c -11.41029,-1.8483 -24.26911,-9.17703 -35.0928,-20.00072 C 725.74263,384.63152 718.80476,358.24359 724.9247,331.5 c 3.4029,-14.87035 15.98067,-32.40083 30.23592,-42.14182 30.73208,-21.00005 71.88685,-14.22381 94.99208,15.64068 6.0506,7.82066 12.15136,20.29695 13.93672,28.50114 1.66466,7.64953 1.68473,26.28174 0.0364,33.75424 -5.92605,26.86438 -27.74206,49.17672 -53.89992,55.1262 -3.91637,0.89076 -8.26934,1.61956 -9.67327,1.61956 -2.98518,0 -3.061,0.62788 -1.0214,8.45845 4.5743,17.56193 18.20147,31.36592 36.6106,37.08566 3.10299,0.9641 6.27711,1.50912 7.05361,1.21115 0.7765,-0.29797 1.94758,-2.86278 2.60239,-5.69957 4.16505,-18.04399 20.70085,-34.13426 39.00143,-37.95061 26.9209,-5.614 53.89852,12.16102 60.20235,39.66615 l 1.2081,5.27122 19.04376,-0.27122 19.04376,-0.27123 1.64224,-6.00221 c 5.35839,-19.58425 20.34693,-34.34195 39.06053,-38.45891 21.3804,-4.70365 43.6362,5.75298 55.2553,25.96112 8.5113,14.803 8.0945,37.30882 -0.9778,52.78941 -5.6525,9.64536 -16.746,18.66239 -27.3604,22.23914 -28.5121,9.60776 -58.358,-7.15759 -66.02965,-37.0908 L 984.6219,486 h -19.27241 -19.2724 l -1.0994,4.25 c -4.24885,16.42499 -14.21849,28.91983 -28.47769,35.69076 -17.13452,8.13625 -34.12973,6.57258 -50.16091,-4.61513 -10.51104,-7.33537 -17.98165,-18.14452 -20.64483,-29.87078 l -1.31202,-5.777 -9.44112,-2.14356 C 822.05724,480.60906 813.02182,475.73095 802.75,466.15467 L 798,461.72632 v 47.95534 c 0,40.96484 0.23256,48.74709 1.59538,53.38684 5.62385,19.14651 22.0114,34.27989 40.44989,37.3542 l 3.54526,0.59111 1.24314,-7.25691 c 2.34664,-13.69862 10.80235,-27.00202 21.80423,-34.30465 27.9576,-18.5572 64.32372,-6.62452 76.3357,25.04775 3.14192,8.28438 3.85377,22.65715 1.55715,31.44002 -4.33795,16.58951 -15.36781,29.20146 -31.53075,36.05344 -6.74843,2.86087 -23.73072,3.75731 -31,1.63638 z m 19.52613,-13.7193 c 8.45626,-1.56323 14.50185,-4.99944 20.36027,-11.57245 6.88794,-7.72809 9.35489,-14.38445 9.39068,-25.33809 0.0375,-11.48741 -2.65318,-18.44495 -10.19101,-26.35155 -6.49281,-6.81045 -10.33941,-9.00273 -18.89804,-10.77049 -11.51147,-2.37765 -23.34971,1.11829 -32.02055,9.45598 -7.6451,7.35136 -11.1903,16.0529 -11.27237,27.66754 -0.14339,20.29307 14.8723,36.46904 35.17123,37.88895 0.86149,0.0603 4.21839,-0.38069 7.45979,-0.97989 z m 9.67993,-127.68915 c 14.51582,-7.15062 22.75327,-23.90168 19.78995,-40.24339 -1.52528,-8.4114 -5.12003,-15.25462 -11.04468,-21.0254 -8.41165,-8.19321 -19.05721,-11.57411 -30.69658,-9.74888 -7.6802,1.20437 -13.09314,4.05903 -19.33628,10.19753 -19.11166,18.79129 -12.8903,51.86948 11.69474,62.17953 4.97348,2.08569 7.20944,2.42607 14.41201,2.19396 7.29094,-0.23496 9.48883,-0.74942 15.18084,-3.55335 z m -31.21437,-21.7996 c -8.10501,-7.82473 -9.77169,-11.02842 -7.83206,-15.05479 2.46926,-5.12584 9.12609,-4.80954 14.38894,0.68369 l 2.82894,2.95278 9.67117,-9.50173 C 906.33718,462.34092 909.37028,460 911.35992,460 c 3.64056,0 6.64236,3.28263 6.62976,7.25 -0.009,2.79661 -1.78757,5.10107 -12.75,16.5189 -15.55118,16.1972 -15.4024,16.158 -25.24799,6.65289 z m 168.46741,23.50761 c 7.7413,-2.89637 15.6672,-10.40928 19.7668,-18.73668 3.0385,-6.17218 3.2741,-7.37164 3.2741,-16.67169 0,-8.94809 -0.3106,-10.69364 -2.9009,-16.30306 -3.756,-8.13353 -12.2729,-16.20394 -20.2505,-19.18874 -17.6261,-6.59474 -37.0167,1.3948 -45.5745,18.77805 -3.03854,6.17218 -3.2741,7.37164 -3.2741,16.67169 0,8.73031 0.33618,10.72943 2.6101,15.52103 4.6464,9.79103 12.0054,16.58409 22.3899,20.66803 5.0777,1.99693 17.6866,1.60822 23.9591,-0.73863 z M 1027,496.33896 c -0.825,-0.27673 -4.5375,-3.71047 -8.25,-7.63053 -7.4415,-7.85754 -8.6351,-11.69249 -4.7371,-15.22011 3.3532,-3.03463 7.5468,-2.32418 12.0108,2.03483 l 3.9494,3.85648 8.7635,-9.21652 c 10.1839,-10.71045 13.3901,-12.12728 17.6971,-7.82031 4.7443,4.74433 3.833,6.57084 -10.6065,21.25826 -12.8814,13.10255 -14.4918,14.19211 -18.8272,12.7379 z M 805.79216,408.40934 c 9.53862,-1.96848 16.11778,-5.04055 23.0673,-10.77106 14.81964,-12.22011 22.23873,-27.59781 22.29058,-46.20211 0.0466,-16.70446 -4.85957,-29.76472 -15.44117,-41.10492 -7.67413,-8.2243 -14.24875,-12.51955 -24.35745,-15.91293 -7.00608,-2.35186 -8.93167,-2.57658 -18.82783,-2.19723 -17.01251,0.65214 -27.11829,5.22374 -39.41629,17.83093 -16.69791,17.1177 -20.83459,45.40358 -9.90757,67.74609 4.49396,9.18883 16.9182,21.73985 25.80027,26.06355 12.00098,5.84197 23.58325,7.27359 36.79216,4.54768 z m -32.89195,-23.54302 c -6.88693,-3.99416 -7.34846,-5.76525 -7.74715,-29.72877 -0.47183,-28.36049 -0.035,-31.60363 4.88795,-36.28932 5.6359,-5.36428 10.47614,-5.93192 17.80259,-2.0878 13.57337,7.12181 38.8453,22.60213 40.88014,25.04112 3.37761,4.04848 3.93597,10.20422 1.40062,15.44156 -2.19094,4.52587 -3.13894,5.16245 -36.49601,24.50689 -10.27725,5.95998 -14.68289,6.62234 -20.72814,3.11632 z m 24.20515,-21.78743 c 8.46705,-4.90661 16.43746,-9.74411 17.71201,-10.75 L 817.13475,350.5 799.38369,340 c -9.76308,-5.775 -18.1184,-10.65 -18.56737,-10.83333 C 780.36734,328.98333 780,338.54583 780,350.41667 780,362.2875 780.38491,372 780.85536,372 c 0.47046,0 7.78296,-4.0145 16.25,-8.92111 z"
         id="path1560" />
      <path
         style="fill:#575f68"
         d="m 620.31437,804.56606 c -9.25314,-4.30822 -13.53208,-13.49911 -13.53208,-29.06606 0,-10.78485 1.33926,-16.03652 5.82097,-22.82583 5.13244,-7.77509 18.67675,-10.99969 28.14674,-6.7011 3.99005,1.81115 4.25,2.17863 4.25,6.00798 v 4.07882 l -2.84113,-2.10053 c -4.02499,-2.97581 -10.43402,-4.23161 -15.13536,-2.96567 -8.62633,2.32283 -12.62065,11.6335 -11.8556,27.63513 0.71639,14.98401 5.38842,21.53787 15.35361,21.53787 7.68853,0 8.47848,-0.9971 8.47848,-10.70185 L 639,781 h -4 c -3.77778,0 -4,-0.16667 -4,-3 v -3 h 8 8 v 12.84501 c 0,11.42846 -0.21326,13.03801 -1.9338,14.59508 -5.42863,4.91284 -16.68895,5.88001 -24.75183,2.12597 z m 199.78203,1.1692 c -6.46776,-3.32391 -7.94806,-9.0311 -8.03679,-30.98526 L 812,760 h 4 4 v 17.44424 c 0,16.95923 0.0666,17.52161 2.39387,20.22727 3.00066,3.48847 9.21182,3.88366 12.66427,0.80576 C 839.20662,794.77886 840,791.0149 840,775.03212 V 760 h 3.5 3.5 v 23 23 h -3.5 c -3.26788,0 -3.5,-0.21137 -3.5,-3.18709 v -3.18709 l -2.75,2.5649 c -1.5125,1.4107 -3.73292,3.06989 -4.93426,3.68709 -2.87876,1.479 -9.20776,1.40516 -12.21934,-0.14255 z m 56.4036,0.156 c -1.1,-0.64042 -3.0125,-2.08138 -4.25,-3.20214 L 870,800.65137 v 2.67432 C 870,805.71538 869.6275,806 866.5,806 H 863 v -32 -32 h 3.5 3.5 v 11.58889 11.5889 l 3.02944,-2.54911 c 7.55741,-6.35914 19.24459,-3.66112 24.18022,5.58209 1.96937,3.68813 2.29034,5.76072 2.29034,14.78923 0,11.92766 -1.81969,16.95526 -7.63573,21.09665 -3.66285,2.60818 -12.24505,3.61062 -15.36427,1.79461 z m 11.19412,-7.05136 c 4.55177,-3.77481 6.1916,-20.06378 2.74998,-27.31645 -3.07238,-6.47456 -11.55078,-8.37802 -15.90189,-3.57009 -6.26172,6.91912 -5.92743,23.81527 0.60034,30.34303 2.5595,2.5595 3.48697,2.88251 6.94494,2.4187 2.19502,-0.29441 4.71801,-1.13825 5.60663,-1.87519 z m 142.06988,7.22435 c -9.5105,-3.07211 -14.7679,-10.91289 -14.7584,-22.01059 0.01,-9.32504 1.5597,-13.88215 6.3628,-18.68524 6.2468,-6.24677 13.5874,-7.7586 23.4501,-4.82968 5.1013,1.51492 5.1815,1.59954 5.1815,5.46628 v 3.92753 l -3.6722,-2.16665 c -5.0268,-2.96587 -13.1326,-3.04281 -17.0018,-0.16137 -4.7981,3.57313 -6.7399,8.00625 -6.7196,15.34038 0.021,7.47078 2.014,12.49085 6.1767,15.55509 4.0029,2.94662 13.9909,2.78257 18.1579,-0.29824 l 3.059,-2.26163 v 3.86942 c 0,3.24511 -0.4437,4.07534 -2.75,5.14572 -3.4739,1.61226 -13.884,2.27248 -17.486,1.10898 z M 1176,805.93484 c -4.4708,-1.86865 -8.9916,-7.16746 -10.5274,-12.33907 -2.7876,-9.387 -1.3741,-21.41403 3.2256,-27.44456 5.8676,-7.69276 18.7119,-9.35694 26.1971,-3.39423 5.9022,4.70169 7.6047,9.23359 7.6047,20.24302 0,11.23873 -2.2177,16.97477 -8.1037,20.96016 -4.077,2.76046 -13.9745,3.82288 -18.3963,1.97468 z m 13.4863,-7.10274 C 1193.3922,795.75977 1195,791.14296 1195,783 c 0,-11.76488 -3.7688,-17.5 -11.5,-17.5 -4.9143,0 -8.0184,2.21004 -10.138,7.21788 -1.7632,4.16572 -1.7532,16.41011 0.017,20.64634 1.835,4.39172 6.135,7.63578 10.1212,7.63578 1.7995,0 4.451,-0.96024 5.9863,-2.1679 z m 84.0137,6.87936 c -4.8416,-1.1763 -5.0101,-1.3378 -5.3183,-5.09633 -0.2804,-3.41883 -0.1016,-3.79172 1.5,-3.12813 4.7013,1.94797 10.9503,3.513 14.0269,3.513 6.689,0 11.7276,-4.81501 9.9328,-9.49204 -0.8591,-2.23889 -6.4375,-5.29928 -11.0576,-6.06639 -9.5696,-1.58892 -13.529,-5.46274 -13.5616,-13.26849 -0.019,-4.53559 0.4,-5.74912 2.8198,-8.16891 3.6055,-3.60552 10.1476,-5.39557 16.847,-4.60972 8.3513,0.97963 10.311,2.06065 10.311,5.68779 0,2.48295 -0.3374,3.00226 -1.6288,2.50673 C 1285.881,763.17975 1276,765.21919 1276,772 c 0,3.60997 2.5224,5.67015 8.5162,6.95549 12.5144,2.68369 16.4572,5.71965 16.7432,12.89237 0.3661,9.18091 -5.1376,14.22363 -16.1045,14.75559 -3.6602,0.17754 -8.9049,-0.22386 -11.6549,-0.89199 z M 662,803 v -3 h 7.5 7.5 v -17 -17 h -5.5 c -5.45954,0 -5.5,-0.0223 -5.5,-3.03753 v -3.03752 l 9.25,0.28752 9.25,0.28753 0.27114,19.75 0.27114,19.75 H 692.52114 700 v 3 3 h -19 -19 z m 66.5,1.47116 c -2.2,-0.79257 -4.06364,-1.44782 -4.14142,-1.4561 -0.0778,-0.008 -0.86528,-1.82417 -1.75,-4.0353 C 721.38963,795.93331 721,791.45223 721,780.47976 V 766 h -6 -6 v -3 -3 h 6 6 v -6.5 -6.5 h 3.5 3.5 v 6.5 6.5 h 8.5 8.5 v 3 3 h -8.59172 -8.59171 l 0.34171,15.08965 c 0.32728,14.45184 0.44151,15.17039 2.7025,17 1.72636,1.39697 3.94343,1.91035 8.25,1.91035 5.87691,0 5.88922,0.006 5.88922,3 v 3 l -6.25,-0.0439 c -3.4375,-0.0241 -8.05,-0.69237 -10.25,-1.48495 z M 759,775.5 V 745 h 4.5 4.5 V 756.5 768 H 779.5 791 V 756.5 745 h 4 4 v 30.5 30.5 h -3.97395 -3.97396 L 790.77605,790.75 790.5,775.5 779.25,775.21725 768,774.9345 V 790.46725 806 h -4.5 -4.5 z m 199,29.90889 c 0,-0.32511 4.12845,-14.0709 9.17434,-30.54621 l 9.17434,-29.95511 5.04014,0.29622 5.04015,0.29621 7.80554,25.5 c 4.29305,14.025 8.44729,27.6375 9.23159,30.25 l 1.4261,4.75 h -4.2526 -4.25262 l -2.00925,-7.75 -2.00926,-7.75 -11.06788,-0.28166 -11.06788,-0.28167 -0.67981,2.78167 c -0.3739,1.52991 -1.35819,5.14416 -2.18731,8.03166 -1.48934,5.18674 -1.55485,5.25 -5.43655,5.25 C 959.76807,806 958,805.734 958,805.40889 Z M 989.76348,782.25 c -4.72223,-17.59111 -8.18991,-29.1569 -8.61456,-28.73225 -0.76263,0.76262 -8.06665,26.63467 -8.1115,28.73225 -0.0328,1.53416 1.02531,1.75 8.57921,1.75 7.71861,0 8.56767,-0.18238 8.14685,-1.75 z M 1082.5,804.47116 c -2.2,-0.79257 -4.0636,-1.44782 -4.1414,-1.4561 -0.078,-0.008 -0.8653,-1.82417 -1.75,-4.0353 -1.219,-3.04645 -1.6086,-7.52753 -1.6086,-18.5 V 766 h -6 -6 v -3 -3 h 6 6 v -6.5 -6.5 h 3.5 3.5 v 6.5 6.5 h 8.5 8.5 v 3 3 h -8.5917 -8.5917 l 0.3417,15.08965 c 0.3273,14.45184 0.4415,15.17039 2.7025,17 1.7263,1.39697 3.9434,1.91035 8.25,1.91035 5.8769,0 5.8892,0.006 5.8892,3 v 3 l -6.25,-0.0439 c -3.4375,-0.0241 -8.05,-0.69237 -10.25,-1.48495 z M 1118,803 v -3 h 7.5 7.5 v -17 -17 h -6 -6 v -3 -3 h 9.5 9.5 v 20 20 h 7.5 7.5 v 3 3 h -18.5 -18.5 z m 99,-20 v -23 h 3.5 c 3.2679,0 3.5,0.21137 3.5,3.18709 v 3.18709 l 2.75,-2.62347 c 7.4573,-7.11415 18.3995,-5.94259 22.9302,2.45507 1.4709,2.72636 1.8404,6.44019 2.1439,21.54422 l 0.3666,18.25 H 1248.0954 1244 v -17.44424 c 0,-16.79518 -0.086,-17.5444 -2.3157,-20.13636 -3.1012,-3.60541 -9.5944,-3.79197 -13.2262,-0.38002 -3.611,3.39235 -4.4463,7.84051 -4.4525,23.71062 L 1224,806 h -3.5 -3.5 z M 677,747.5 V 743 h 4 4 v 4.5 4.5 h -4 -4 z m 456,0 c 0,-4.47619 0.018,-4.5 3.5,-4.5 3.4815,0 3.5,0.0238 3.5,4.5 0,4.47619 -0.018,4.5 -3.5,4.5 -3.4815,0 -3.5,-0.0238 -3.5,-4.5 z"
         id="path1558" />
    </g>
  </g>
</svg>
