<?xml version="1.0" encoding="UTF-8" standalone="no"?>
<svg
   xmlns:dc="http://purl.org/dc/elements/1.1/"
   xmlns:cc="http://creativecommons.org/ns#"
   xmlns:rdf="http://www.w3.org/1999/02/22-rdf-syntax-ns#"
   xmlns:svg="http://www.w3.org/2000/svg"
   xmlns="http://www.w3.org/2000/svg"
   xmlns:sodipodi="http://sodipodi.sourceforge.net/DTD/sodipodi-0.dtd"
   xmlns:inkscape="http://www.inkscape.org/namespaces/inkscape"
   width="72.392647mm"
   height="26.993595mm"
   viewBox="0 0 72.392646 26.993596"
   version="1.1"
   id="svg8"
   inkscape:version="1.0.1 (3bc2e813f5, 2020-09-07)"
   sodipodi:docname="go.svg">
  <defs
     id="defs2" />
  <sodipodi:namedview
     id="base"
     pagecolor="#ffffff"
     bordercolor="#666666"
     borderopacity="1.0"
     inkscape:pageopacity="0.0"
     inkscape:pageshadow="2"
     inkscape:zoom="1.979899"
     inkscape:cx="92.922401"
     inkscape:cy="17.765075"
     inkscape:document-units="mm"
     inkscape:current-layer="layer1"
     inkscape:document-rotation="0"
     showgrid="false"
     inkscape:window-width="1920"
     inkscape:window-height="1016"
     inkscape:window-x="1920"
     inkscape:window-y="27"
     inkscape:window-maximized="0" />
  <metadata
     id="metadata5">
    <rdf:RDF>
      <cc:Work
         rdf:about="">
        <dc:format>image/svg+xml</dc:format>
        <dc:type
           rdf:resource="http://purl.org/dc/dcmitype/StillImage" />
        <dc:title></dc:title>
      </cc:Work>
    </rdf:RDF>
  </metadata>
  <g
     inkscape:label="Layer 1"
     inkscape:groupmode="layer"
     id="layer1"
     transform="translate(-68.318825,-198.07857)">
    <path
       style="fill:#1ebbae;stroke-width:0.0846667"
       d="m 98.145764,224.99372 c -3.681017,-0.3892 -7.169345,-2.637 -9.02611,-5.81622 -2.161534,-3.70105 -2.009275,-8.93799 0.377285,-12.97673 2.769374,-4.68656 7.038893,-7.46567 12.358611,-8.04444 5.04698,-0.54909 9.62243,1.84181 11.79544,6.16372 0.40135,0.79825 0.43975,1.08894 0.15941,1.20667 -0.37657,0.15814 -6.30976,1.69437 -6.54394,1.69437 -0.18607,0 -0.40142,-0.15812 -0.96472,-0.70834 -1.13634,-1.10996 -2.21243,-1.57093 -3.82911,-1.6403 -0.89115,-0.0382 -1.0641,-0.0203 -1.77651,0.18403 -1.914863,0.54928 -3.757104,1.99035 -4.709371,3.68386 -0.658874,1.17173 -0.951183,2.35337 -0.951183,3.84506 0,1.7133 0.492845,2.93728 1.648741,4.09465 1.11767,1.11909 2.388086,1.62768 4.073883,1.6309 1.66771,0.003 3.18624,-0.63601 4.50759,-1.89737 0.48207,-0.46019 1.36912,-1.55428 1.36912,-1.68868 0,-0.0292 -1.56461,-0.0532 -3.4769,-0.0532 -3.455298,0 -3.730295,-0.0202 -3.908971,-0.28784 -0.208946,-0.31292 0.0504,-1.03173 1.292331,-3.58175 0.53903,-1.10677 0.71708,-1.39722 0.92131,-1.50283 0.2211,-0.11433 0.98132,-0.13091 6.00335,-0.13091 h 5.75019 l 0.18945,-0.52917 c 0.29985,-0.83757 1.06374,-2.3166 1.64984,-3.19439 2.88141,-4.31546 6.90784,-6.58963 12.45054,-7.03222 1.75328,-0.14 3.62064,0.0664 5.12153,0.56609 2.0014,0.66632 4.23998,2.17363 5.50333,3.70557 1.57227,1.90654 2.32564,3.87748 2.5353,6.63281 0.27979,3.67693 -0.73543,6.89371 -3.0969,9.81278 -2.43495,3.00989 -5.84788,5.00757 -9.76773,5.71732 -1.46849,0.26589 -4.0083,0.26757 -5.31095,0.004 -4.22105,-0.85564 -7.59207,-3.57355 -9.03449,-7.28413 l -0.33312,-0.85691 -0.28806,0.51973 c -1.54814,2.79323 -4.11608,5.21115 -6.90091,6.49774 -2.33711,1.07975 -5.18098,1.54223 -7.788276,1.26656 z m 29.486476,-6.86293 c 0.7176,-0.17941 1.80357,-0.67431 2.52222,-1.14945 0.66612,-0.44039 1.74881,-1.48882 2.15584,-2.0876 1.47241,-2.16605 1.70659,-4.90418 0.5996,-7.01079 -0.64982,-1.23662 -1.91841,-2.29156 -3.30029,-2.74448 -0.68397,-0.22417 -0.84993,-0.24514 -1.89271,-0.23912 -0.98261,0.006 -1.24992,0.0385 -1.905,0.23401 -2.94331,0.8784 -4.76423,2.75632 -5.55635,5.73026 -0.24291,0.91197 -0.26456,2.23662 -0.0498,3.04613 0.53276,2.0081 1.99427,3.52422 3.99748,4.14684 1.14952,0.35729 2.20534,0.38013 3.429,0.0742 z m -50.800007,-5.50035 c 0,-0.17836 0.536968,-1.1009 0.687754,-1.1816 0.09126,-0.0488 1.587421,-0.0722 3.774551,-0.0588 l 3.623361,0.0221 -0.0018,0.508 c -0.0032,0.88959 0.431566,0.80433 -4.101842,0.80433 -2.861336,0 -3.981987,-0.0264 -3.981987,-0.094 z M 68.32223,209.4208 c -0.06202,-0.10035 0.741198,-1.14098 0.939379,-1.21703 0.07359,-0.0282 3.80734,-0.0514 8.297215,-0.0514 6.777132,0 8.163409,0.0193 8.163409,0.11375 0,0.21048 -0.340202,1.10486 -0.445775,1.17191 -0.162521,0.10323 -16.890286,0.0862 -16.954228,-0.0173 z m 5.292669,-3.29226 c 0,-0.0936 0.646368,-0.93865 0.831895,-1.08762 0.102858,-0.0826 1.550707,-0.10583 6.592621,-0.10583 5.113761,0 6.460211,0.0221 6.457909,0.10583 -0.0016,0.0582 -0.165156,0.33443 -0.363457,0.61383 l -0.360548,0.508 -6.57921,0.0217 c -3.944998,0.013 -6.57921,-0.009 -6.57921,-0.0559 z"
       id="path1119" />
  </g>
</svg>
