<?xml version="1.0" encoding="UTF-8" standalone="no"?>
<svg
   xmlns:dc="http://purl.org/dc/elements/1.1/"
   xmlns:cc="http://creativecommons.org/ns#"
   xmlns:rdf="http://www.w3.org/1999/02/22-rdf-syntax-ns#"
   xmlns:svg="http://www.w3.org/2000/svg"
   xmlns="http://www.w3.org/2000/svg"
   xmlns:sodipodi="http://sodipodi.sourceforge.net/DTD/sodipodi-0.dtd"
   xmlns:inkscape="http://www.inkscape.org/namespaces/inkscape"
   width="316.81528mm"
   height="514.64111mm"
   viewBox="0 0 316.81528 514.64113"
   version="1.1"
   id="svg8"
   inkscape:version="1.0.1 (3bc2e813f5, 2020-09-07)"
   sodipodi:docname="kafka.svg">
  <defs
     id="defs2" />
  <sodipodi:namedview
     id="base"
     pagecolor="#ffffff"
     bordercolor="#666666"
     borderopacity="1.0"
     inkscape:pageopacity="0.0"
     inkscape:pageshadow="2"
     inkscape:zoom="0.35"
     inkscape:cx="-50.40272"
     inkscape:cy="834.36394"
     inkscape:document-units="mm"
     inkscape:current-layer="layer1"
     inkscape:document-rotation="0"
     showgrid="false"
     inkscape:window-width="1920"
     inkscape:window-height="1016"
     inkscape:window-x="1920"
     inkscape:window-y="27"
     inkscape:window-maximized="0" />
  <metadata
     id="metadata5">
    <rdf:RDF>
      <cc:Work
         rdf:about="">
        <dc:format>image/svg+xml</dc:format>
        <dc:type
           rdf:resource="http://purl.org/dc/dcmitype/StillImage" />
        <dc:title></dc:title>
      </cc:Work>
    </rdf:RDF>
  </metadata>
  <g
     inkscape:label="Layer 1"
     inkscape:groupmode="layer"
     id="layer1"
     transform="translate(-101.15614,10.872039)">
    <path
       style="fill:#000000;stroke-width:0.264583"
       d="m 179.39601,503.46224 c -9.02092,-1.14072 -18.99077,-4.6183 -26.52654,-9.25272 -6.57068,-4.0409 -14.43663,-11.11639 -18.70752,-16.82758 -7.40436,-9.90139 -11.99578,-21.42773 -13.29264,-33.36993 -0.6973,-6.4211 -0.20846,-15.16883 1.20524,-21.56791 5.26665,-23.83936 23.25622,-43.11425 46.59903,-49.92849 1.71248,-0.4999 3.44102,-0.97853 3.8412,-1.06365 l 0.72761,-0.15473 V 350.9594 330.62157 l -1.25677,-0.1777 c -4.31997,-0.61082 -12.89538,-3.20135 -18.44128,-5.57091 -25.34658,-10.8296 -44.326,-33.48275 -50.43112,-60.19273 -1.6427,-7.18682 -1.94774,-10.19776 -1.95679,-19.31458 -0.009,-8.92796 0.18416,-11.06543 1.61108,-17.8415 4.43078,-21.04046 16.46266,-39.55247 34.02772,-52.35437 9.46482,-6.89822 21.40189,-12.23459 32.6107,-14.57834 1.16416,-0.24343 2.38455,-0.49968 2.71198,-0.56944 l 0.59531,-0.12685 V 140.7281 121.56104 l -1.12448,-0.28712 c -11.74245,-2.99832 -22.05322,-8.76408 -30.72459,-17.1811 -10.36584,-10.061795 -16.88478,-22.506855 -19.51397,-37.25334 -0.79329,-4.449393 -0.98474,-13.67967 -0.38555,-18.588411 3.21349,-26.325594 21.23214,-48.05122395 46.58921,-56.1740169 6.56082,-2.1016681 12.32712,-2.9473531 20.10834,-2.9490881 8.10871,-0.0018 13.86325,0.9006895 21.15436,3.3176855 16.9111,5.6060155 31.09583,18.0445655 39.04822,34.2412855 4.30533,8.76871 6.42599,17.292928 6.77994,27.252676 0.82171,23.122186 -10.45811,45.049934 -29.80856,57.947269 -6.80605,4.53632 -13.61116,7.50155 -22.15886,9.6554 l -1.12448,0.28335 v 19.01497 19.01497 l 1.38906,0.18542 c 2.24158,0.29921 9.47268,2.17941 12.83435,3.33714 14.6371,5.04088 27.46074,13.78603 37.92963,25.86633 l 1.46481,1.69027 15.65796,-10.95069 c 14.35615,-10.04024 15.64925,-11.00568 15.55311,-11.61214 -0.0577,-0.36381 -0.4118,-1.96493 -0.78697,-3.55807 -1.29011,-5.47843 -1.59679,-8.30161 -1.61099,-14.83047 -0.017,-7.80191 0.67176,-12.79816 2.68076,-19.44688 8.83009,-29.22279 36.50902,-49.038528 66.75912,-47.793812 9.90638,0.407625 18.38844,2.56699 27.11979,6.904167 7.2966,3.624482 12.41785,7.32078 18.13055,13.085865 10.48972,10.5859 17.19773,24.44488 18.90786,39.06428 0.45601,3.89834 0.52277,11.53983 0.13161,15.06554 -3.47737,31.34299 -28.23888,56.21758 -59.38056,59.6518 -3.84851,0.4244 -11.91151,0.36024 -15.63185,-0.1244 -15.02293,-1.95699 -28.37393,-8.52122 -39.12692,-19.23738 -1.58728,-1.58184 -3.01603,-2.81668 -3.175,-2.74407 -0.15896,0.0726 -7.19465,4.99817 -15.63485,10.94569 -8.85576,6.24035 -15.33069,10.97335 -15.31002,11.19123 0.0197,0.20765 0.52738,1.98489 1.12817,3.94942 5.15373,16.85231 4.88973,35.40485 -0.73889,51.92551 l -0.78911,2.31614 5.34138,3.78502 c 2.93776,2.08177 9.27044,6.56574 14.07263,9.96437 4.80219,3.39863 9.48136,6.71023 10.39816,7.35912 l 1.6669,1.1798 3.49247,-3.41854 c 5.62927,-5.51008 10.82868,-9.2229 17.51539,-12.50749 6.32768,-3.10825 12.98111,-5.17901 20.10833,-6.25843 3.92759,-0.59481 13.77019,-0.67556 17.59479,-0.14433 7.52875,1.04571 14.55452,3.17299 21.03438,6.36878 7.29758,3.5991 12.39171,7.23395 17.99934,12.8432 10.78534,10.78841 17.46155,24.38177 19.29749,39.29144 0.46262,3.75685 0.53406,11.64955 0.13777,15.22145 -3.35651,30.2536 -26.40439,54.45617 -56.4604,59.28911 -3.64265,0.5857 -13.59934,0.80078 -17.4416,0.37676 -17.09791,-1.88698 -33.19608,-10.47189 -44.16065,-23.55024 -6.70588,-7.99865 -11.16734,-16.66312 -13.69191,-26.59063 -1.61217,-6.33965 -1.97577,-9.38093 -1.97697,-16.53645 -10e-4,-6.81631 0.31083,-9.6343 1.72404,-15.57274 0.42796,-1.7983 0.7781,-3.30719 0.7781,-3.35312 0,-0.16052 -31.46123,-22.34904 -31.6708,-22.33629 -0.11632,0.007 -0.74728,0.67493 -1.40212,1.48413 -2.10499,2.6012 -7.93167,8.25545 -11.27869,10.94491 -11.27609,9.06079 -24.70565,15.29133 -38.26454,17.75249 l -1.78594,0.32417 v 20.31698 20.31698 l 1.12448,0.28893 c 5.93698,1.5254 10.38434,3.19225 15.27969,5.72672 12.77616,6.61466 22.98547,17.07946 29.38498,30.12038 3.21508,6.55169 5.32875,13.52835 6.37262,21.03437 0.52646,3.7855 0.45422,13.93188 -0.1262,17.72708 -2.26802,14.82977 -8.66121,27.54937 -19.08732,37.97525 -10.11485,10.11463 -22.06951,16.34493 -36.12325,18.82601 -3.24588,0.57306 -4.81396,0.69082 -10.18646,0.76501 -4.4026,0.0608 -7.26221,-0.0276 -9.3245,-0.28842 z m 14.13521,-34.67441 c 11.47017,-2.05989 21.19226,-10.53674 24.95069,-21.75489 2.1416,-6.39228 2.14494,-13.87687 0.009,-20.41279 -3.66113,-11.20346 -13.6017,-19.80041 -25.24226,-21.83035 -1.29173,-0.22526 -3.80569,-0.40957 -5.58657,-0.40957 -9.16784,0 -17.24016,3.46694 -23.61995,10.14444 -12.14086,12.70736 -11.87485,32.81381 0.59915,45.28783 7.56564,7.56563 18.25233,10.88573 28.88984,8.97533 z m 163.58043,-95.50882 c 11.28108,-2.13997 20.98984,-10.6037 24.59344,-21.43963 1.31826,-3.96391 1.68375,-6.21877 1.6906,-10.42998 0.005,-2.96411 -0.12684,-4.46818 -0.57904,-6.61459 -1.37456,-6.52409 -4.5389,-12.21967 -9.36093,-16.84901 -14.63979,-14.0548 -38.24467,-11.49644 -49.55065,5.37046 -6.47573,9.66086 -7.22697,22.15428 -1.96331,32.65054 4.79207,9.55585 14.47267,16.37009 25.15804,17.7089 2.51784,0.31547 7.24507,0.12817 10.01185,-0.39669 z M 192.82849,290.33082 c 3.39705,-0.42207 5.92459,-0.98529 8.9889,-2.00303 16.322,-5.421 27.98024,-19.25884 30.73389,-36.47985 0.50793,-3.17652 0.42429,-10.80919 -0.15366,-14.02292 -0.96484,-5.365 -2.67533,-10.1736 -5.23611,-14.71992 -11.94202,-21.2014 -38.29099,-29.26866 -59.9135,-18.34368 -1.76893,0.89377 -4.44784,2.5015 -5.95312,3.57274 -3.40688,2.42452 -8.25116,7.25429 -10.60491,10.57315 -3.5353,4.98488 -6.26946,11.31148 -7.60704,17.60198 -0.81162,3.81702 -1.01213,10.89138 -0.42201,14.88985 1.58071,10.71042 6.10336,19.43014 13.94521,26.88641 6.88567,6.54715 16.7842,11.14066 26.16125,12.14044 2.07589,0.22132 7.962,0.16565 10.0611,-0.0952 z M 357.07853,181.73014 c 11.17403,-2.1358 20.6782,-10.28878 24.51662,-21.03116 2.37741,-6.65359 2.46713,-14.27435 0.24815,-21.08259 -1.54707,-4.74671 -4.11302,-8.86262 -7.90456,-12.67924 -6.32901,-6.37088 -14.12243,-9.62984 -23.02864,-9.62984 -15.73431,0 -29.29122,11.40859 -32.00721,26.93511 -0.51315,2.9336 -0.51768,8.06389 -0.01,10.97703 1.24401,7.13369 4.55782,13.21269 9.9822,18.31182 6.37778,5.99536 14.43974,9.04153 23.09301,8.72558 1.60073,-0.0584 3.90027,-0.29547 5.1101,-0.52671 z M 191.10176,88.458401 c 7.139,-0.808191 13.6699,-3.854569 18.82744,-8.782177 6.61911,-6.324013 10.14648,-14.480926 10.14337,-23.456167 -0.003,-8.978839 -3.21225,-16.755573 -9.51543,-23.058744 -6.23533,-6.235338 -14.12843,-9.518605 -22.87544,-9.51543 -13.55062,0.0049 -25.37837,8.085897 -30.39825,20.768728 -2.75736,6.966566 -2.8716,15.456648 -0.30438,22.621875 5.05287,14.102778 19.37147,23.091867 34.12269,21.421915 z"
       id="path1153" />
  </g>
</svg>
