<?xml version="1.0" encoding="UTF-8" standalone="no"?>
<svg
   xmlns:dc="http://purl.org/dc/elements/1.1/"
   xmlns:cc="http://creativecommons.org/ns#"
   xmlns:rdf="http://www.w3.org/1999/02/22-rdf-syntax-ns#"
   xmlns:svg="http://www.w3.org/2000/svg"
   xmlns="http://www.w3.org/2000/svg"
   xmlns:sodipodi="http://sodipodi.sourceforge.net/DTD/sodipodi-0.dtd"
   xmlns:inkscape="http://www.inkscape.org/namespaces/inkscape"
   width="363.21143mm"
   height="352.72647mm"
   viewBox="0 0 363.21143 352.72648"
   version="1.1"
   id="svg8"
   inkscape:version="1.0.1 (3bc2e813f5, 2020-09-07)"
   sodipodi:docname="kubernetes.svg">
  <defs
     id="defs2" />
  <sodipodi:namedview
     id="base"
     pagecolor="#ffffff"
     bordercolor="#666666"
     borderopacity="1.0"
     inkscape:pageopacity="0.0"
     inkscape:pageshadow="2"
     inkscape:zoom="0.35"
     inkscape:cx="-81.738479"
     inkscape:cy="631.82927"
     inkscape:document-units="mm"
     inkscape:current-layer="layer1"
     inkscape:document-rotation="0"
     showgrid="false"
     inkscape:window-width="1920"
     inkscape:window-height="1016"
     inkscape:window-x="1920"
     inkscape:window-y="27"
     inkscape:window-maximized="0" />
  <metadata
     id="metadata5">
    <rdf:RDF>
      <cc:Work
         rdf:about="">
        <dc:format>image/svg+xml</dc:format>
        <dc:type
           rdf:resource="http://purl.org/dc/dcmitype/StillImage" />
        <dc:title></dc:title>
      </cc:Work>
    </rdf:RDF>
  </metadata>
  <g
     inkscape:label="Layer 1"
     inkscape:groupmode="layer"
     id="layer1"
     transform="translate(-109.44706,-42.715259)">
    <path
       style="fill:#316be4;stroke-width:0.264583"
       d="m 217.78419,395.22501 c -5.01827,-0.63513 -9.88613,-2.99484 -13.54942,-6.56809 -1.53273,-1.49506 -16.91928,-20.43116 -45.89991,-56.48855 -23.97687,-29.83177 -44.0935,-54.95396 -44.70362,-55.82708 -1.54765,-2.21478 -2.63636,-4.47699 -3.46391,-7.19757 -0.63072,-2.07354 -0.70864,-2.76037 -0.71427,-6.29618 l -0.006,-3.96875 15.91461,-69.05626 c 8.75304,-37.98094 16.14103,-69.71109 16.41774,-70.51146 1.80691,-5.22625 5.50767,-9.83224 10.14393,-12.62521 2.71015,-1.63264 129.87526,-62.231054 131.99912,-62.901987 4.63627,-1.464591 9.92653,-1.421967 14.5379,0.117136 1.91484,0.639098 123.25593,58.366681 130.02572,61.859261 5.21526,2.69057 9.05232,6.82918 11.26951,12.15504 0.62224,1.49473 5.05909,20.29435 16.87356,71.49573 l 16.02933,69.46775 -0.005,3.83645 c -0.004,3.09412 -0.11449,4.23495 -0.57177,5.89593 -0.73538,2.67094 -2.31777,5.99696 -3.80362,7.9947 -2.4879,3.34502 -88.20123,109.87464 -89.48587,111.21835 -3.15558,3.3007 -7.024,5.56726 -11.70664,6.85903 l -2.61192,0.72054 -72.36354,0.0348 c -43.74541,0.0209 -73.13959,-0.0634 -74.32585,-0.21358 z m 20.4937,-46.71795 c 2.65859,-1.36801 4.69718,-4.53472 6.20035,-9.6315 1.21526,-4.12054 3.92795,-11.74877 4.95015,-13.92013 1.1259,-2.39164 2.49076,-3.86294 4.00171,-4.31384 0.99052,-0.29559 1.25053,-0.5419 1.98438,-1.87997 0.60171,-1.0971 0.95864,-1.49418 1.2414,-1.38115 4.10337,1.64036 12.49,3.93353 17.72708,4.84714 7.91779,1.38125 18.93417,1.84843 26.06146,1.10521 7.38055,-0.76959 15.62812,-2.54018 22.31496,-4.79057 1.79575,-0.60433 3.29562,-1.05992 3.33306,-1.01237 0.0375,0.0475 0.4074,0.69969 0.82211,1.44922 0.60825,1.0994 0.94933,1.42135 1.76456,1.66558 1.63904,0.49107 2.77389,1.71696 4.03093,4.35433 1.38155,2.89862 3.17259,7.80775 4.64841,12.74114 1.84333,6.16194 3.71517,9.22785 6.45118,10.56646 4.81634,2.3564 9.9437,-0.45998 10.62704,-5.83732 0.33787,-2.65859 -1.07135,-6.18035 -4.22773,-10.5655 -3.6686,-5.0968 -8.11344,-12.98358 -8.51071,-15.10115 -0.10139,-0.54049 0.006,-1.43515 0.27503,-2.29036 0.42661,-1.35631 0.42275,-1.44701 -0.11515,-2.70185 -0.30609,-0.71414 -0.50527,-1.43211 -0.44257,-1.59549 0.0627,-0.16338 1.14536,-0.92953 2.40591,-1.70254 2.8914,-1.77316 8.84989,-6.22607 11.78859,-8.80989 9.55503,-8.40115 17.3998,-18.48559 23.01227,-29.58219 2.23134,-4.41168 4.22526,-9.06896 5.41668,-12.65203 0.65426,-1.9676 0.79378,-2.18969 1.2994,-2.06859 2.11246,0.50594 2.41763,0.47821 4.01111,-0.36449 1.37723,-0.72834 1.75778,-0.81672 2.93484,-0.68146 3.0131,0.34626 10.0707,2.57289 16.24237,5.12437 5.27262,2.1798 9.09243,2.4941 11.87902,0.97745 4.42103,-2.40623 5.29612,-7.52504 1.92702,-11.27226 -2.25401,-2.50703 -5.05328,-3.33568 -13.27687,-3.93033 -6.72537,-0.48633 -12.23323,-1.387 -14.43342,-2.36024 -0.69805,-0.3088 -1.5167,-1.00113 -2.14511,-1.81419 -0.85328,-1.10401 -1.25156,-1.38166 -2.48356,-1.73141 l -1.4673,-0.41656 0.31951,-2.99048 c 1.61144,-15.08297 -0.33505,-30.27455 -5.75644,-44.92694 -1.6537,-4.46941 -5.95206,-13.20374 -8.43542,-17.14085 l -1.88322,-2.98564 1.30344,-1.17191 c 1.16065,-1.04351 1.32123,-1.32208 1.46579,-2.54264 0.0893,-0.75391 0.42006,-1.74051 0.73504,-2.19245 1.46542,-2.10261 6.87337,-5.83505 15.75816,-10.87589 3.22096,-1.82743 6.18662,-4.75095 6.84059,-6.7434 1.72905,-5.26783 -1.50894,-9.92775 -6.88369,-9.90662 -3.36611,0.0132 -5.99202,1.73191 -10.93478,7.15684 -4.93892,5.42074 -10.00344,9.96385 -12.06989,10.82727 -0.50771,0.21213 -1.64105,0.3857 -2.51852,0.3857 -1.41166,0 -1.749,0.11038 -2.92949,0.95847 l -1.33411,0.95847 -2.96598,-2.88549 c -12.2786,-11.94539 -27.85843,-20.61638 -44.61888,-24.83275 -3.91748,-0.9855 -9.9427,-2.07965 -13.1644,-2.39059 l -1.90066,-0.18343 -0.18682,-1.74447 c -0.14917,-1.39313 -0.31406,-1.84456 -0.8187,-2.24151 -0.34756,-0.27338 -0.88678,-0.99181 -1.19833,-1.59652 -0.49868,-0.96803 -0.56316,-1.51066 -0.53935,-4.53905 0.0293,-3.73291 0.56676,-9.01276 1.42737,-14.02292 1.2496,-7.274897 -0.077,-11.748377 -4.07474,-13.740537 -2.76579,-1.378261 -6.40048,-0.67052 -8.43052,1.64157 -2.30479,2.625 -2.86441,6.25562 -1.86489,12.098967 0.8731,5.1044 1.36266,10.06358 1.363,13.80725 0,3.88062 -0.0782,4.21498 -1.39618,5.94159 -0.72046,0.94388 -0.96475,1.56075 -1.1085,2.79937 l -0.18439,1.58871 -2.11698,0.17656 c -5.85573,0.48835 -14.351,2.35661 -21.1228,4.64529 -14.02077,4.73861 -25.89228,12.05171 -37.29924,22.97709 l -2.5065,2.4007 -1.29889,-0.93316 c -1.16986,-0.84046 -1.4146,-0.91581 -2.46341,-0.75854 -1.52204,0.22825 -2.77966,-0.19309 -4.58613,-1.5365 -2.48499,-1.848 -7.05101,-6.18819 -10.12253,-9.62185 -4.8663,-5.44008 -7.57172,-7.20409 -11.06803,-7.21669 -1.42655,-0.005 -2.04075,0.14217 -3.37711,0.80997 -2.64252,1.32049 -3.84953,3.30526 -3.84789,6.3275 0.003,4.38084 2.10135,6.63987 10.68848,11.5034 3.33949,1.89139 7.80314,4.8569 10.09063,6.70386 2.08661,1.68479 2.64006,2.54815 3.01233,4.69901 0.13486,0.77919 0.48067,1.30695 1.38483,2.11342 l 1.2051,1.07489 -1.93392,3.15844 c -7.72091,12.60968 -12.39592,26.5503 -14.05787,41.9199 -0.60883,5.63042 -0.38158,16.81004 0.45249,22.26043 l 0.14714,0.96147 -1.39372,0.33433 c -1.1815,0.28345 -1.63754,0.59214 -2.99464,2.02716 -1.4904,1.57596 -1.73789,1.7282 -3.58529,2.2054 -2.80709,0.72512 -8.65049,1.51138 -13.75833,1.85127 -6.78405,0.45143 -9.79212,1.31873 -11.90625,3.43286 -1.6821,1.68212 -2.23571,2.98831 -2.24278,5.29167 -0.005,1.71516 0.10159,2.17961 0.78761,3.42352 1.30896,2.37337 4.10399,3.95587 7.01142,3.96976 1.90114,0.009 4.93178,-0.76904 8.28278,-2.12657 6.70957,-2.71809 14.14219,-5.00237 16.27521,-5.00192 0.53586,1.1e-4 1.68868,0.33348 2.5618,0.74084 1.30135,0.60711 1.77827,0.70519 2.64584,0.54419 2.12306,-0.39402 2.02498,-0.47596 3.13602,2.62059 7.23231,20.15726 20.91873,37.42937 38.96037,49.1675 1.73104,1.12625 3.24292,2.12947 3.35971,2.22943 0.11679,0.1 -0.0917,0.86924 -0.46331,1.7095 -0.65281,1.47614 -0.66223,1.57298 -0.2785,2.86517 0.21844,0.73555 0.39716,1.71935 0.39716,2.1862 0,1.64807 -4.29572,9.33837 -8.8588,15.85929 -3.18196,4.54718 -4.38137,7.86421 -3.85234,10.65382 0.49861,2.62911 1.94287,4.53818 4.24448,5.61057 1.55876,0.72628 4.62608,0.63103 6.22826,-0.19341 z m 47.74674,-44.95348 c -4.84119,-0.45683 -7.23273,-0.78274 -10.31547,-1.40565 -3.91166,-0.79045 -9.52828,-2.34821 -9.52828,-2.64266 0,-0.18534 18.08866,-32.96449 19.13395,-34.67336 1.6665,-2.72441 4.54932,-3.89271 7.51305,-3.04472 2.84009,0.81262 3.20562,1.35694 13.8602,20.63951 l 9.5027,17.19792 -1.92006,0.59516 c -5.06523,1.57009 -11.19018,2.73354 -17.0013,3.22947 -2.94156,0.25104 -9.08611,0.30806 -11.24479,0.10433 z m 46.88813,-13.5201 c -1.51429,-3.54111 -14.57137,-35.25058 -14.8332,-36.02282 -1.38795,-4.09366 1.87674,-8.73881 6.15833,-8.76239 0.70509,-0.004 40.38553,6.59244 40.56918,6.74407 0.12641,0.10438 -2.55514,6.447 -3.62686,8.57854 -4.58965,9.12839 -11.49051,17.97026 -18.96123,24.29454 -2.67677,2.26597 -8.22524,6.40599 -8.60293,6.41908 -0.0912,0.003 -0.4077,-0.5598 -0.70329,-1.25102 z m -86.84022,-0.62633 c -11.01211,-7.8791 -19.2669,-17.51666 -25.01516,-29.20545 -1.21655,-2.47385 -2.50957,-5.30074 -2.87332,-6.28197 l -0.66138,-1.78404 0.58274,-0.13247 c 2.89521,-0.65821 38.5014,-6.48589 39.62758,-6.48589 4.13236,0 7.28191,3.95872 6.37357,8.011 -0.41788,1.86409 -15.15719,37.49858 -15.50789,37.49265 -0.15245,-0.003 -1.28921,-0.7288 -2.52614,-1.61383 z m 39.43152,-52.78501 c -2.83292,-1.37753 -5.2174,-2.61239 -5.29884,-2.74415 -0.0814,-0.13179 -0.7299,-2.79903 -1.44102,-5.92725 l -1.29297,-5.68767 3.68139,-4.5786 3.68138,-4.5786 6.14003,-0.071 6.14002,-0.071 3.74476,4.66171 3.74475,4.66169 -1.3494,5.83573 c -0.74218,3.20963 -1.38565,5.87195 -1.42991,5.91624 -0.25522,0.25522 -10.61294,5.12456 -10.86485,5.10776 -0.16751,-0.0111 -2.62242,-1.14737 -5.45534,-2.52487 z m -72.42948,-4.00325 c -0.10983,-0.40018 -0.19669,-3.82323 -0.19301,-7.60677 0.007,-7.33315 0.27234,-10.03482 1.60787,-16.37691 1.58398,-7.52188 4.9013,-16.15342 8.63182,-22.45962 0.94433,-1.59634 1.10906,-1.75412 1.48934,-1.4265 5.09543,4.38987 29.01537,25.97883 29.73168,26.83436 1.38721,1.65679 1.93675,3.64121 1.54652,5.58434 -0.50639,2.52147 -1.94855,4.12524 -4.65688,5.17865 -0.89683,0.34883 -37.5489,11.00005 -37.85243,11.00005 -0.0579,0 -0.19505,-0.32742 -0.30491,-0.7276 z m 150.60525,-0.86778 c -2.91041,-0.83825 -11.36385,-3.26885 -18.78541,-5.40131 -7.42156,-2.13246 -14.09914,-4.15817 -14.83908,-4.50154 -1.68106,-0.78015 -3.37092,-2.66179 -3.81503,-4.24801 -0.41235,-1.4727 -0.20923,-3.44697 0.49454,-4.80702 0.70667,-1.36567 1.32948,-1.95052 17.10123,-16.05926 l 13.75834,-12.30761 0.46649,0.58142 c 0.94157,1.17356 5.16046,9.94143 6.39069,13.28142 1.64936,4.47796 3.39558,11.42373 4.12408,16.40417 0.64442,4.40555 0.97812,13.51079 0.61199,16.69926 l -0.21617,1.88261 z M 270.7157,193.37078 c -0.48903,-0.14918 -1.382,-0.57918 -1.98437,-0.95555 -2.23409,-1.39587 -32.44837,-22.90927 -32.44837,-23.10412 0,-0.11127 0.92273,-1.02842 2.05052,-2.03811 11.31644,-10.13148 24.94362,-16.6689 39.86707,-19.12558 1.73588,-0.28576 3.18352,-0.49123 3.21702,-0.4566 0.15012,0.15529 -2.27169,39.85166 -2.48163,40.6765 -0.52144,2.04877 -1.75461,3.61022 -3.59109,4.54712 -1.21973,0.62226 -3.38542,0.83575 -4.62915,0.45634 z m 36.07872,-0.47141 c -1.37808,-0.62947 -3.189,-2.61764 -3.56055,-3.90903 -0.25162,-0.87459 -2.72886,-41.11502 -2.54281,-41.3053 0.037,-0.0378 1.4849,0.17357 3.2176,0.46975 12.35657,2.11215 24.43853,7.29122 34.02293,14.5843 2.81048,2.1386 7.62429,6.28888 7.62429,6.57339 0,0.35558 -31.41499,22.56165 -33.03826,23.3535 -1.8174,0.88656 -4.09033,0.97925 -5.7232,0.23339 z"
       id="path1187" />
  </g>
</svg>
