<?xml version="1.0" encoding="UTF-8" standalone="no"?>
<svg
   xmlns:dc="http://purl.org/dc/elements/1.1/"
   xmlns:cc="http://creativecommons.org/ns#"
   xmlns:rdf="http://www.w3.org/1999/02/22-rdf-syntax-ns#"
   xmlns:svg="http://www.w3.org/2000/svg"
   xmlns="http://www.w3.org/2000/svg"
   xmlns:sodipodi="http://sodipodi.sourceforge.net/DTD/sodipodi-0.dtd"
   xmlns:inkscape="http://www.inkscape.org/namespaces/inkscape"
   width="338.6037mm"
   height="207.0435mm"
   viewBox="0 0 338.6037 207.04351"
   version="1.1"
   id="svg8"
   inkscape:version="1.0.1 (3bc2e813f5, 2020-09-07)"
   sodipodi:docname="nodejs.svg">
  <defs
     id="defs2" />
  <sodipodi:namedview
     id="base"
     pagecolor="#ffffff"
     bordercolor="#666666"
     borderopacity="1.0"
     inkscape:pageopacity="0.0"
     inkscape:pageshadow="2"
     inkscape:zoom="0.49497475"
     inkscape:cx="474.31551"
     inkscape:cy="352.83204"
     inkscape:document-units="mm"
     inkscape:current-layer="layer1"
     inkscape:document-rotation="0"
     showgrid="false"
     inkscape:window-width="1920"
     inkscape:window-height="1016"
     inkscape:window-x="1920"
     inkscape:window-y="27"
     inkscape:window-maximized="0" />
  <metadata
     id="metadata5">
    <rdf:RDF>
      <cc:Work
         rdf:about="">
        <dc:format>image/svg+xml</dc:format>
        <dc:type
           rdf:resource="http://purl.org/dc/dcmitype/StillImage" />
        <dc:title></dc:title>
      </cc:Work>
    </rdf:RDF>
  </metadata>
  <g
     inkscape:label="Layer 1"
     inkscape:groupmode="layer"
     id="layer1"
     transform="translate(-71.646288,-119.3806)">
    <g
       id="g1221"
       transform="translate(36.25104,8.5566215)">
      <path
         style="fill:#73ab62;stroke-width:0.264583"
         d="m 188.52373,310.55864 c -0.32911,-0.41964 -0.31975,-0.429 0.0999,-0.0999 0.44073,0.34564 0.58089,0.56291 0.36313,0.56291 -0.0549,0 -0.2633,-0.20836 -0.46302,-0.46302 z m 5.27581,-2.89272 c 0.19099,-0.0764 0.4192,-0.067 0.50711,0.0209 0.0879,0.0879 -0.0683,0.15045 -0.34726,0.13896 -0.30823,-0.0127 -0.37092,-0.0754 -0.15985,-0.15985 z m -12.17084,-1.85208 c 0.191,-0.0764 0.4192,-0.067 0.50712,0.0209 0.0879,0.0879 -0.0684,0.15045 -0.34726,0.13896 -0.30823,-0.0127 -0.37092,-0.0754 -0.15986,-0.15985 z m 3.68763,0.005 c 0.1819,-0.0734 0.47956,-0.0734 0.66146,0 0.1819,0.0734 0.0331,0.13346 -0.33073,0.13346 -0.3638,0 -0.51263,-0.0601 -0.33073,-0.13346 z m 4.29948,-1.49505 c 0,-0.0455 0.38695,-0.43249 0.8599,-0.8599 l 0.85989,-0.7771 -0.7771,0.85989 c -0.72437,0.80155 -0.94269,0.98152 -0.94269,0.77711 z m -7.98711,-4.0667 c 0.191,-0.0764 0.4192,-0.067 0.50712,0.0209 0.0879,0.0879 -0.0684,0.15045 -0.34726,0.13896 -0.30823,-0.0127 -0.37092,-0.0754 -0.15986,-0.15985 z m 4.41524,-0.87759 c 0.26339,-0.29105 0.53842,-0.52917 0.61118,-0.52917 0.0728,0 -0.0832,0.23812 -0.3466,0.52917 -0.26339,0.29104 -0.53842,0.52916 -0.61118,0.52916 -0.0728,0 0.0832,-0.23812 0.3466,-0.52916 z m 50.6677,-0.0999 c 0,-0.0549 0.20836,-0.2633 0.46302,-0.46302 0.41965,-0.32911 0.42901,-0.31975 0.0999,0.0999 -0.34564,0.44073 -0.56292,0.58088 -0.56292,0.36312 z m -43.79558,-19.61156 c 3e-5,-10.18646 0.0329,-14.31515 0.0731,-9.17488 0.0402,5.14028 0.0402,13.47466 -5e-5,18.52084 -0.0402,5.04618 -0.0731,0.8405 -0.0731,-9.34596 z m -5.55644,0 c 3e-5,-9.89542 0.033,-13.90508 0.0733,-8.91037 0.0403,4.99472 0.0403,13.09097 -5e-5,17.99167 -0.0403,4.9007 -0.0733,0.81411 -0.0732,-9.0813 z m 52.01875,15.58837 c 0.0127,-0.30823 0.0754,-0.37092 0.15985,-0.15986 0.0764,0.191 0.067,0.4192 -0.0209,0.50712 -0.0879,0.0879 -0.15045,-0.0684 -0.13896,-0.34726 z m -27.736,-1.6259 c 0.54571,-0.0571 1.43868,-0.0571 1.98438,0 0.5457,0.0571 0.0992,0.10378 -0.99219,0.10378 -1.09141,0 -1.53789,-0.0467 -0.99219,-0.10378 z m -3.96371,-0.2552 c 0.25743,-0.0671 0.61462,-0.0627 0.79375,0.01 0.17913,0.0725 -0.0315,0.12736 -0.46806,0.12197 -0.43656,-0.005 -0.58312,-0.0647 -0.32569,-0.13178 z m 8.32934,0.008 c 0.1819,-0.0734 0.47956,-0.0734 0.66146,0 0.1819,0.0734 0.0331,0.13346 -0.33073,0.13346 -0.3638,0 -0.51263,-0.0601 -0.33073,-0.13346 z m -10.03763,-0.27009 c 0.19099,-0.0764 0.4192,-0.067 0.50712,0.0209 0.0879,0.0879 -0.0684,0.15046 -0.34727,0.13897 -0.30822,-0.0127 -0.37092,-0.0754 -0.15985,-0.15985 z m 11.64166,0 c 0.191,-0.0764 0.41921,-0.067 0.50712,0.0209 0.0879,0.0879 -0.0683,0.15046 -0.34726,0.13897 -0.30823,-0.0127 -0.37092,-0.0754 -0.15986,-0.15985 z m 7.45795,-3.88791 c 0,-0.0549 0.20836,-0.2633 0.46302,-0.46302 0.41964,-0.3291 0.429,-0.31975 0.0999,0.0999 -0.34564,0.44073 -0.56291,0.58089 -0.56291,0.36312 z m -14.22136,-0.88833 c 0.69123,-0.0545 1.82232,-0.0545 2.51354,0 0.69123,0.0545 0.12568,0.0991 -1.25677,0.0991 -1.38244,0 -1.94799,-0.0446 -1.25677,-0.0991 z m -3.29075,-0.25084 c 0.19099,-0.0764 0.4192,-0.067 0.50712,0.0209 0.0879,0.0879 -0.0684,0.15046 -0.34727,0.13897 -0.30822,-0.0127 -0.37092,-0.0754 -0.15985,-0.15985 z m 8.46666,0 c 0.191,-0.0764 0.41921,-0.067 0.50712,0.0209 0.0879,0.0879 -0.0684,0.15046 -0.34726,0.13897 -0.30823,-0.0127 -0.37092,-0.0754 -0.15986,-0.15985 z m 2.69545,-0.717 c 0,-0.0572 0.18477,-0.17489 0.41061,-0.26155 0.23546,-0.0904 0.34167,-0.046 0.24897,0.10398 -0.15538,0.25141 -0.65958,0.37186 -0.65958,0.15757 z m 1.45521,-0.95435 c 0.26339,-0.29104 0.53842,-0.52916 0.61118,-0.52916 0.0728,0 -0.0832,0.23812 -0.3466,0.52916 -0.26339,0.29104 -0.53842,0.52917 -0.61118,0.52917 -0.0728,0 0.0832,-0.23813 0.3466,-0.52917 z m -17.09938,-0.19843 c -0.32911,-0.41965 -0.31975,-0.42901 0.0999,-0.0999 0.25466,0.19972 0.46302,0.40808 0.46302,0.46302 0,0.21776 -0.21728,0.0776 -0.56292,-0.36312 z m 23.86714,-0.74966 c 0.0127,-0.30822 0.0754,-0.37092 0.15985,-0.15985 0.0764,0.191 0.067,0.4192 -0.0209,0.50712 -0.0879,0.0879 -0.15045,-0.0684 -0.13896,-0.34727 z m -30.91576,-1.9617 c 0,-0.50933 0.0545,-0.71769 0.12101,-0.46302 0.0665,0.25466 0.0665,0.67138 0,0.92604 -0.0666,0.25466 -0.12101,0.0463 -0.12101,-0.46302 z m 31.22084,-0.26459 c 0,-0.50932 0.0545,-0.71768 0.121,-0.46302 0.0665,0.25466 0.0665,0.67138 0,0.92604 -0.0666,0.25467 -0.121,0.0463 -0.121,-0.46302 z m -25.70508,-0.6835 c 0.0127,-0.30823 0.0754,-0.37092 0.15985,-0.15986 0.0764,0.191 0.067,0.4192 -0.0209,0.50712 -0.0879,0.0879 -0.15045,-0.0684 -0.13896,-0.34726 z m -5.57714,-0.35921 c 0,-0.13694 0.1177,-0.32172 0.26156,-0.41062 0.14998,-0.0927 0.19433,0.0135 0.10398,0.24897 -0.17589,0.45837 -0.36554,0.54223 -0.36554,0.16165 z m 24.5725,-0.74322 c -0.32911,-0.41965 -0.31975,-0.42901 0.0999,-0.0999 0.25466,0.19972 0.46302,0.40808 0.46302,0.46302 0,0.21776 -0.21728,0.0776 -0.56292,-0.36312 z m 6.40464,-0.48507 c 0.0127,-0.30823 0.0754,-0.37092 0.15985,-0.15986 0.0764,0.191 0.067,0.4192 -0.0209,0.50712 -0.0879,0.0879 -0.15045,-0.0684 -0.13896,-0.34726 z m -11.71217,-1.34932 c 0.191,-0.0764 0.41921,-0.067 0.50712,0.0209 0.0879,0.0879 -0.0684,0.15045 -0.34726,0.13896 -0.30823,-0.0127 -0.37092,-0.0754 -0.15986,-0.15985 z m -1.86862,-0.25907 c 0.18191,-0.0734 0.47956,-0.0734 0.66146,0 0.1819,0.0734 0.0331,0.13345 -0.33073,0.13345 -0.3638,0 -0.51263,-0.06 -0.33073,-0.13345 z m -2.11666,-0.26458 c 0.1819,-0.0734 0.47956,-0.0734 0.66146,0 0.1819,0.0734 0.0331,0.13345 -0.33073,0.13345 -0.3638,0 -0.51263,-0.0601 -0.33073,-0.13345 z m -2.38125,-0.26459 c 0.1819,-0.0734 0.47956,-0.0734 0.66146,0 0.1819,0.0734 0.0331,0.13345 -0.33073,0.13345 -0.3638,0 -0.51263,-0.06 -0.33073,-0.13345 z m -1.83555,-0.27009 c 0.191,-0.0764 0.4192,-0.067 0.50712,0.0209 0.0879,0.0879 -0.0684,0.15046 -0.34727,0.13897 -0.30822,-0.0127 -0.37091,-0.0754 -0.15985,-0.15985 z m 18.15692,-0.94374 -0.7771,-0.8599 0.85989,0.77711 c 0.80155,0.72437 0.98152,0.94268 0.77711,0.94268 -0.0455,0 -0.43249,-0.38695 -0.8599,-0.85989 z m -26.19375,-2.38125 -0.7771,-0.8599 0.8599,0.77711 c 0.80154,0.72437 0.98151,0.94268 0.7771,0.94268 -0.0455,0 -0.43249,-0.38695 -0.8599,-0.85989 z m 18.35558,-0.90835 c 0.191,-0.0764 0.4192,-0.067 0.50712,0.0209 0.0879,0.0879 -0.0684,0.15045 -0.34727,0.13896 -0.30822,-0.0127 -0.37091,-0.0754 -0.15985,-0.15985 z m -1.5875,-0.26458 c 0.191,-0.0764 0.4192,-0.067 0.50712,0.0209 0.0879,0.0879 -0.0683,0.15045 -0.34727,0.13896 -0.30822,-0.0127 -0.37091,-0.0754 -0.15985,-0.15985 z m -1.86862,-0.25907 c 0.1819,-0.0734 0.47956,-0.0734 0.66146,0 0.1819,0.0734 0.0331,0.13345 -0.33073,0.13345 -0.3638,0 -0.51263,-0.06 -0.33073,-0.13345 z m -1.85208,-0.26458 c 0.1819,-0.0734 0.47956,-0.0734 0.66146,0 0.1819,0.0734 0.0331,0.13345 -0.33073,0.13345 -0.3638,0 -0.51263,-0.0601 -0.33073,-0.13345 z m -1.85208,-0.26459 c 0.1819,-0.0734 0.47955,-0.0734 0.66145,0 0.1819,0.0734 0.0331,0.13345 -0.33073,0.13345 -0.3638,0 -0.51263,-0.06 -0.33072,-0.13345 z m -1.57097,-0.27009 c 0.191,-0.0764 0.4192,-0.067 0.50712,0.0209 0.0879,0.0879 -0.0684,0.15046 -0.34727,0.13897 -0.30822,-0.0127 -0.37091,-0.0754 -0.15985,-0.15985 z m -1.32292,-0.26459 c 0.191,-0.0764 0.41921,-0.067 0.50712,0.0209 0.0879,0.0879 -0.0684,0.15045 -0.34726,0.13896 -0.30823,-0.0127 -0.37092,-0.0754 -0.15986,-0.15985 z m -3.81198,-1.4729 -0.50403,-0.59532 0.59531,0.50403 c 0.55945,0.47367 0.71576,0.6866 0.50403,0.6866 -0.0502,0 -0.3181,-0.26789 -0.59531,-0.59531 z m -6.43627,-0.0882 c 0.0127,-0.30822 0.0754,-0.37092 0.15985,-0.15985 0.0764,0.191 0.067,0.4192 -0.0209,0.50712 -0.0879,0.0879 -0.15045,-0.0684 -0.13897,-0.34727 z m 23.69937,0.22049 c -0.0679,-0.10914 0.6692,-0.16558 1.63803,-0.12542 3.06907,0.12722 3.42929,0.23777 0.91723,0.28151 -1.33748,0.0233 -2.48735,-0.0469 -2.55526,-0.15609 z m -17.83804,-1.91823 c 0,-0.50932 0.0545,-0.71768 0.121,-0.46302 0.0666,0.25466 0.0666,0.67138 0,0.92604 -0.0665,0.25466 -0.121,0.0463 -0.121,-0.46302 z m 22.99914,0.26458 c 0,-0.3638 0.0601,-0.51263 0.13346,-0.33073 0.0734,0.18191 0.0734,0.47956 0,0.66146 -0.0734,0.1819 -0.13346,0.0331 -0.13346,-0.33073 z m -28.86047,-1.47725 c 0.0127,-0.30823 0.0754,-0.37092 0.15985,-0.15986 0.0764,0.191 0.067,0.4192 -0.0209,0.50712 -0.0879,0.0879 -0.15045,-0.0684 -0.13897,-0.34726 z m 6.85828,-1.30087 c 0.34178,-0.3638 0.68094,-0.66146 0.7537,-0.66146 0.0728,0 -0.14734,0.29766 -0.48912,0.66146 -0.34177,0.3638 -0.68094,0.66146 -0.7537,0.66146 -0.0728,0 0.14735,-0.29766 0.48912,-0.66146 z m 3.90261,-1.63044 c 0.1819,-0.0734 0.47955,-0.0734 0.66145,0 0.1819,0.0734 0.0331,0.13345 -0.33073,0.13345 -0.3638,0 -0.51263,-0.06 -0.33072,-0.13345 z m 5.82083,0 c 0.1819,-0.0734 0.47956,-0.0734 0.66146,0 0.1819,0.0734 0.0331,0.13345 -0.33073,0.13345 -0.3638,0 -0.51263,-0.06 -0.33073,-0.13345 z m -15.01511,-0.96589 c 0,-0.0455 0.38696,-0.43249 0.8599,-0.8599 l 0.8599,-0.77711 -0.77711,0.8599 c -0.72437,0.80155 -0.94269,0.98151 -0.94269,0.77711 z m 24.32743,-0.9094 -0.9118,-0.99219 0.99219,0.9118 c 0.9235,0.84868 1.11384,1.07258 0.9118,1.07258 -0.0442,0 -0.4907,-0.44649 -0.99219,-0.99219 z m 28.01046,-1.83439 c 0.191,-0.0764 0.4192,-0.067 0.50712,0.0209 0.0879,0.0879 -0.0684,0.15045 -0.34726,0.13896 -0.30823,-0.0127 -0.37092,-0.0754 -0.15986,-0.15985 z m 2.43086,0.0808 c 0,-0.0549 0.20836,-0.2633 0.46302,-0.46302 0.41965,-0.32911 0.42901,-0.31975 0.0999,0.0999 -0.34564,0.44073 -0.56292,0.58089 -0.56292,0.36313 z m -65.64664,-0.77092 c 0.11581,-0.11514 1.27125,-0.17383 2.56766,-0.13042 l 2.35711,0.0789 -2.56766,0.13042 c -1.41221,0.0717 -2.47291,0.0362 -2.35711,-0.0789 z m 58.88312,-0.78283 -0.7771,-0.8599 0.85989,0.77711 c 0.80155,0.72437 0.98152,0.94268 0.77711,0.94268 -0.0455,0 -0.43249,-0.38695 -0.8599,-0.85989 z m 7.1604,0.0661 c 0.26339,-0.29104 0.53842,-0.52916 0.61118,-0.52916 0.0728,0 -0.0832,0.23812 -0.3466,0.52916 -0.26339,0.29104 -0.53842,0.52917 -0.61118,0.52917 -0.0728,0 0.0832,-0.23813 0.3466,-0.52917 z m -37.75274,0.0839 c 0.191,-0.0764 0.41921,-0.067 0.50712,0.0209 0.0879,0.0879 -0.0684,0.15046 -0.34726,0.13897 -0.30823,-0.0127 -0.37092,-0.0754 -0.15986,-0.15985 z m -8.34587,-0.2672 c 0.25743,-0.0671 0.61462,-0.0627 0.79375,0.01 0.17913,0.0725 -0.0315,0.12736 -0.46806,0.12197 -0.43656,-0.005 -0.58312,-0.0647 -0.32569,-0.13178 z m 6.08542,0 c 0.25743,-0.0671 0.61461,-0.0627 0.79374,0.01 0.17914,0.0725 -0.0315,0.12736 -0.46805,0.12197 -0.43656,-0.005 -0.58313,-0.0647 -0.32569,-0.13178 z m 35.46227,-1.40415 c 0,-0.80036 0.0496,-1.12778 0.11022,-0.7276 0.0606,0.40018 0.0606,1.05503 0,1.45521 -0.0606,0.40018 -0.11022,0.0728 -0.11022,-0.72761 z m 2.07915,0.26459 c 0,-0.36381 0.0601,-0.51263 0.13345,-0.33073 0.0734,0.1819 0.0734,0.47955 0,0.66146 -0.0734,0.1819 -0.13345,0.0331 -0.13345,-0.33073 z m -80.21052,-0.45268 c 0,-0.15195 0.20836,-0.43969 0.46302,-0.63941 0.4283,-0.33589 0.43391,-0.32344 0.0749,0.16605 -0.21349,0.29104 -0.42185,0.57877 -0.46302,0.63941 -0.0412,0.0606 -0.0749,-0.0141 -0.0749,-0.16605 z m 62.73281,-0.41925 c -0.33468,-0.5573 -0.32904,-0.56294 0.12656,-0.12656 0.26226,0.2512 0.41989,0.51367 0.35028,0.58328 -0.0696,0.0696 -0.28419,-0.13592 -0.47684,-0.45672 z m 18.51516,0.18842 c 0.0127,-0.30823 0.0754,-0.37092 0.15985,-0.15985 0.0764,0.19099 0.067,0.4192 -0.0209,0.50712 -0.0879,0.0879 -0.15045,-0.0684 -0.13896,-0.34727 z m -7.88633,-1.43316 c 0,-0.65484 0.0516,-0.92273 0.11466,-0.59531 0.0631,0.32742 0.0631,0.8632 0,1.19062 -0.0631,0.32742 -0.11466,0.0595 -0.11466,-0.59531 z m 6.27794,0.79375 c -0.23847,-0.15411 -0.2711,-0.2581 -0.0818,-0.26053 0.17331,-0.002 0.3887,0.11501 0.47864,0.26053 0.20301,0.32849 0.11142,0.32849 -0.39688,0 z m -5.49487,-0.79375 c 0,-0.50932 0.0545,-0.71768 0.12101,-0.46302 0.0665,0.25466 0.0665,0.67138 0,0.92604 -0.0666,0.25466 -0.12101,0.0463 -0.12101,-0.46302 z m 10.83812,0.13229 c 0.005,-0.43656 0.0647,-0.58312 0.13177,-0.32569 0.0671,0.25743 0.0627,0.61462 -0.01,0.79375 -0.0725,0.17913 -0.12736,-0.0315 -0.12197,-0.46806 z m -90.00991,-0.56679 c 0,-0.14196 0.18516,-0.48923 0.41147,-0.7717 0.38797,-0.48427 0.39348,-0.47583 0.0965,0.14787 -0.38571,0.80989 -0.50792,0.95999 -0.50792,0.62383 z m 83.12364,-0.95456 0.0445,-1.12448 0.1047,1.00769 c 0.099,0.95281 0.15006,1.00324 0.93732,0.92604 0.62825,-0.0616 0.87738,-0.24399 1.01506,-0.74311 0.15263,-0.5533 0.18678,-0.57277 0.20884,-0.11906 0.0375,0.77197 -0.4727,1.1774 -1.48175,1.1774 -0.8578,0 -0.87235,-0.0197 -0.82865,-1.12448 z m -82.32989,-0.54581 c 0,-0.0455 0.38695,-0.43249 0.85989,-0.8599 l 0.8599,-0.77711 -0.77711,0.8599 c -0.72437,0.80155 -0.94268,0.98151 -0.94268,0.77711 z m 87.72638,-0.36882 c -0.14359,-0.37709 -0.1132,-0.40748 0.14811,-0.14812 0.18082,0.17948 0.26212,0.39297 0.18065,0.47444 -0.0815,0.0815 -0.2294,-0.0654 -0.32876,-0.32632 z m -16.97548,-0.40829 -0.50403,-0.59531 0.59531,0.50403 c 0.55945,0.47366 0.71576,0.68659 0.50403,0.68659 -0.0502,0 -0.3181,-0.26789 -0.59531,-0.59531 z m 14.59423,0.1437 c -0.14359,-0.37708 -0.1132,-0.40747 0.14811,-0.14811 0.18082,0.17948 0.26212,0.39297 0.18065,0.47443 -0.0815,0.0815 -0.2294,-0.0654 -0.32876,-0.32632 z m 3.175,0 c -0.14359,-0.37708 -0.1132,-0.40747 0.14811,-0.14811 0.18082,0.17948 0.26212,0.39297 0.18065,0.47443 -0.0815,0.0815 -0.2294,-0.0654 -0.32876,-0.32632 z m -1.75683,-1.06974 -0.64143,-0.72761 0.7276,0.64144 c 0.40018,0.35279 0.72761,0.68021 0.72761,0.7276 0,0.20751 -0.21426,0.0386 -0.81378,-0.64143 z m -4.94091,0.27351 c 0.40018,-0.0606 1.05503,-0.0606 1.45521,0 0.40018,0.0606 0.0728,0.11022 -0.72761,0.11022 -0.80036,0 -1.12778,-0.0496 -0.7276,-0.11022 z m -2.97656,-0.43955 c 0,-0.0549 0.20836,-0.2633 0.46302,-0.46302 0.41964,-0.32911 0.429,-0.31975 0.0999,0.0999 -0.34564,0.44073 -0.56291,0.58089 -0.56291,0.36313 z m 2.31069,-0.72669 c 0.17948,-0.18082 0.39297,-0.26211 0.47443,-0.18065 0.0815,0.0815 -0.0654,0.22941 -0.32632,0.32876 -0.37708,0.14359 -0.40747,0.1132 -0.14811,-0.14811 z m 1.07928,-0.41249 c 0.191,-0.0764 0.4192,-0.067 0.50712,0.0209 0.0879,0.0879 -0.0684,0.15045 -0.34727,0.13896 -0.30822,-0.0127 -0.37092,-0.0754 -0.15985,-0.15985 z m -0.26458,-0.79375 c 0.19099,-0.0764 0.4192,-0.067 0.50712,0.0209 0.0879,0.0879 -0.0684,0.15045 -0.34727,0.13896 -0.30823,-0.0127 -0.37092,-0.0754 -0.15985,-0.15985 z m -89.05998,-12.98228 c -2.01132,-3.57737 -7.57718,-13.7946 -8.35489,-15.33704 l -0.69594,-1.38026 v -29.18293 -29.18292 l 4.0349,-2.34838 c 3.56903,-2.07723 4.20291,-2.35714 5.4901,-2.42438 0.80037,-0.0418 1.30141,-0.0135 1.11344,0.0628 -0.21934,0.0891 -0.25434,0.24809 -0.0977,0.44383 0.13424,0.16775 1.38936,2.30793 2.78917,4.75596 l 2.54511,4.45097 v 34.75855 34.75855 l -2.59653,1.47017 c -1.4281,0.8086 -2.67067,1.47017 -2.76128,1.47017 -0.0906,0 -0.75046,-1.04179 -1.46636,-2.3151 z m 177.69539,2.13436 c 0.19101,-0.0764 0.41921,-0.067 0.50713,0.0209 0.0879,0.0879 -0.0684,0.15045 -0.34727,0.13896 -0.30824,-0.0127 -0.37092,-0.0754 -0.15986,-0.15985 z m -135.21553,-5.56264 c 0.32912,-0.0633 0.80537,-0.0609 1.05833,0.005 0.25297,0.0662 -0.0163,0.118 -0.59839,0.11507 -0.58209,-0.003 -0.78906,-0.0571 -0.45994,-0.12041 z m -94.26714,-25.21287 c 0,-11.5689 0.0325,-16.30164 0.0723,-10.51718 0.0398,5.78445 0.0398,15.24992 0,21.03437 -0.0398,5.78445 -0.0723,1.05172 -0.0723,-10.51719 z m 250.96353,19.47927 c 0,-0.0549 0.20836,-0.2633 0.46302,-0.46302 0.41966,-0.3291 0.429,-0.31975 0.0999,0.0999 -0.34565,0.44073 -0.56293,0.58089 -0.56293,0.36312 z M 59.562866,205.98208 c 0,-6.76672 0.03426,-9.53492 0.07614,-6.15156 0.04188,3.38336 0.04188,8.91976 0,12.30312 -0.04188,3.38336 -0.07614,0.61516 -0.07614,-6.15156 z m 277.573394,0.81843 c -0.0815,-0.13196 0.09,-0.1776 0.38126,-0.10144 0.6178,0.16156 0.69591,0.34134 0.14827,0.34134 -0.20968,0 -0.44796,-0.10795 -0.52953,-0.2399 z m 14.07382,-2.31657 c 0.1819,-0.0734 0.47956,-0.0734 0.66146,0 0.1819,0.0734 0.0331,0.13345 -0.33073,0.13345 -0.3638,0 -0.51263,-0.0601 -0.33073,-0.13345 z m -7.34219,-0.98301 c 0,-0.0549 0.20836,-0.2633 0.46302,-0.46302 0.41966,-0.3291 0.429,-0.31975 0.0999,0.0999 -0.34565,0.44073 -0.56293,0.58089 -0.56293,0.36312 z m -13.17088,-4.43177 c -0.0514,-3.41401 -0.004,-3.91301 0.40474,-4.23333 0.40801,-0.31998 0.42463,-0.31383 0.13985,0.0518 -0.2106,0.27037 -0.3516,1.74494 -0.40475,4.23334 l -0.0816,3.81845 z M 349.53397,197.78 c 0,-2.69214 0.0393,-3.79347 0.0873,-2.4474 0.048,1.34607 0.048,3.54872 0,4.89479 -0.048,1.34607 -0.0873,0.24474 -0.0873,-2.44739 z m -224.3442,-19.84375 c 0.26339,-0.29105 0.53842,-0.52917 0.61118,-0.52917 0.0728,0 -0.0832,0.23812 -0.3466,0.52917 -0.26339,0.29104 -0.53842,0.52916 -0.61118,0.52916 -0.0728,0 0.0832,-0.23812 0.3466,-0.52916 z M 71.562038,157.38259 c 0.190994,-0.0764 0.419197,-0.067 0.507119,0.0209 0.08792,0.0879 -0.06835,0.15045 -0.347266,0.13896 -0.308226,-0.0127 -0.370919,-0.0754 -0.159853,-0.15985 z"
         id="path1235" />
      <path
         style="fill:#6eb056;stroke-width:0.264583"
         d="m 144.36239,210.14927 c -3.38565,-6.14826 -8.47182,-15.40537 -11.3026,-20.57136 -2.83077,-5.16599 -5.53425,-10.05738 -6.00773,-10.86975 l -0.86087,-1.47705 10.98314,-6.32816 c 6.04072,-3.48049 11.56017,-6.65799 12.26543,-7.06112 l 1.2823,-0.73296 v 29.10952 c 0,16.01024 -0.0459,29.10952 -0.10197,29.10952 -0.0561,0 -2.87205,-5.03039 -6.2577,-11.17864 z"
         id="path1233" />
      <path
         style="fill:#679e62;stroke-width:0.264583"
         d="m 200.8606,317.61784 c -1.04259,-0.30903 -12.10414,-6.90485 -12.22942,-7.29221 -0.0532,-0.16453 0.23586,-0.3809 0.64238,-0.48082 0.40652,-0.0999 1.59303,-0.59038 2.63668,-1.08991 1.04366,-0.49953 2.019,-0.90824 2.16743,-0.90824 0.14843,0 2.05025,1.07157 4.22628,2.38125 2.17602,1.30969 4.14634,2.38125 4.37848,2.38125 0.48432,0 31.15039,-17.64466 31.44548,-18.09312 0.10691,-0.16248 0.19621,-8.40686 0.19843,-18.32084 0.003,-14.10408 -0.0679,-18.08408 -0.32668,-18.29512 -1.03165,-0.8413 -30.84747,-17.84076 -31.28697,-17.83824 -0.40768,0.002 -28.22172,15.84262 -31.0224,17.66747 l -0.59531,0.38789 0.004,18.05171 c 0.002,9.92844 0.0915,18.18114 0.19843,18.33933 0.20831,0.30821 8.43175,5.08339 9.66569,5.61266 1.02525,0.43976 3.49705,0.39748 4.4116,-0.0754 0.41787,-0.21609 1.03703,-0.78163 1.37593,-1.25677 l 0.61617,-0.86389 0.13229,-18.38854 0.1323,-18.38855 2.58632,-0.0758 2.58633,-0.0758 -0.0728,19.39039 -0.0728,19.39039 -0.60837,1.32292 c -0.71384,1.55226 -2.178,3.15144 -3.51977,3.84433 -1.32013,0.68172 -4.25397,1.1488 -5.95795,0.94853 -2.16753,-0.25475 -4.59533,-1.28294 -8.96046,-3.79484 -5.44741,-3.13469 -6.10055,-3.60897 -6.94256,-5.04136 l -0.73381,-1.24833 -0.0728,-19.11764 c -0.072,-18.89267 -0.0663,-19.13277 0.4806,-20.4042 0.30441,-0.70761 0.93251,-1.64685 1.39578,-2.08718 0.46327,-0.44034 8.04462,-4.95063 16.84744,-10.02288 l 16.00514,-9.22227 h 2.11882 2.11882 l 15.59319,8.99584 c 8.57625,4.94771 16.03946,9.31823 16.58491,9.71228 0.54545,0.39405 1.32711,1.28702 1.73702,1.98438 l 0.7453,1.26792 0.073,18.76016 c 0.0823,21.13748 0.11791,20.68272 -1.76595,22.54752 -1.11986,1.10854 -31.85727,18.98197 -33.40924,19.42706 -1.05327,0.30208 -2.44395,0.28975 -3.52701,-0.0313 z m 6.35,-24.35214 c -3.95743,-0.5707 -7.55763,-2.34303 -9.10854,-4.484 -1.48325,-2.04756 -2.48144,-6.09568 -1.69661,-6.8805 0.15547,-0.15548 1.25929,-0.23741 2.60085,-0.19305 l 2.33075,0.0771 0.43648,1.58749 c 0.56204,2.04417 1.15404,2.91754 2.49804,3.68537 1.76048,1.00575 3.66852,1.32896 7.83382,1.32697 6.72801,-0.003 9.26042,-1.34016 9.26042,-4.88894 0,-1.43849 -0.3383,-1.99964 -1.5907,-2.63857 -1.48585,-0.75802 -3.71498,-1.22266 -8.86034,-1.84683 -6.99602,-0.84867 -9.94543,-1.83682 -11.8826,-3.98104 -1.39246,-1.54128 -1.81554,-2.69233 -1.84456,-5.01841 -0.0603,-4.83406 2.67501,-7.94558 8.3032,-9.44519 2.37015,-0.63152 8.89529,-0.62094 11.50938,0.0186 5.1034,1.24868 7.79453,3.80387 8.73369,8.29254 0.51893,2.48025 0.51037,2.48871 -2.42976,2.39996 l -2.49594,-0.0753 -0.64003,-1.5875 c -0.76911,-1.90771 -2.2503,-3.39601 -3.86579,-3.88439 -0.74836,-0.22623 -2.64292,-0.34894 -5.38759,-0.34894 -3.99006,0 -4.30857,0.038 -5.5425,0.66146 -0.72004,0.3638 -1.55348,0.99761 -1.85208,1.40846 -0.72618,0.99916 -0.74572,3.07439 -0.0363,3.85825 0.77001,0.85084 3.29262,1.50614 9.23526,2.39903 6.35144,0.95431 7.95248,1.33275 10.13958,2.3967 3.14601,1.53043 4.51239,4.02297 4.27061,7.7904 -0.40396,6.29462 -5.78929,9.72528 -15.11928,9.63156 -1.76655,-0.0178 -3.92629,-0.13528 -4.79942,-0.2612 z m 41.34061,-31.04028 c -2.64834,-0.9451 -4.03219,-3.04507 -3.85371,-5.84795 0.0863,-1.35549 0.26952,-1.93077 0.90163,-2.83109 2.3873,-3.40029 7.48382,-3.27302 9.54157,0.23826 1.0576,1.80466 1.14341,3.6556 0.25378,5.47395 -1.31161,2.68082 -4.17098,3.92047 -6.84327,2.96683 z m 4.54345,-1.2969 c 1.54607,-1.02314 2.22046,-2.4938 2.08915,-4.5559 -0.12902,-2.02633 -1.03497,-3.36616 -2.80571,-4.14945 -3.88599,-1.71896 -8.04122,1.7744 -6.94647,5.84 0.88249,3.27731 4.81726,4.7486 7.66303,2.86535 z m -5.00593,-4.14644 v -3.175 h 1.71979 c 1.36701,0 1.82834,0.10855 2.24896,0.52917 0.7003,0.7003 0.67534,1.71969 -0.0546,2.23098 -0.53129,0.37213 -0.54481,0.43893 -0.15029,0.74261 0.23843,0.18353 0.51466,0.89925 0.61384,1.59047 0.16641,1.15977 0.13716,1.25677 -0.37888,1.25677 -0.41612,0 -0.55921,-0.16485 -0.55921,-0.64423 0,-0.35433 -0.11611,-0.94965 -0.25803,-1.32292 -0.20963,-0.55135 -0.43301,-0.67868 -1.19063,-0.67868 h -0.93259 v 1.32291 c 0,1.14653 -0.0706,1.32292 -0.52917,1.32292 -0.49977,0 -0.52916,-0.17639 -0.52916,-3.175 z m 3.27914,-0.8599 c 0.44676,-0.71325 -0.1174,-1.37437 -1.25542,-1.47118 l -0.96539,-0.0821 v 1.09027 1.09028 l 0.96539,-0.0821 c 0.56266,-0.0479 1.08638,-0.27527 1.25542,-0.54514 z m -2.81612,-14.92574 c 0.1819,-0.0734 0.47955,-0.0734 0.66146,0 0.1819,0.0734 0.0331,0.13345 -0.33073,0.13345 -0.36381,0 -0.51263,-0.0601 -0.33073,-0.13345 z m -81.95183,-38.49495 0.003,-34.7517 1.47409,2.51354 c 0.81074,1.38245 2.00008,3.47812 2.64297,4.65705 l 1.16889,2.1435 v 28.58905 28.58905 l -1.52136,0.85267 c -0.83674,0.46896 -2.02737,1.14649 -2.64583,1.5056 l -1.12448,0.65294 0.003,-34.7517 z M 285.2598,171.71854 c 0,-25.90271 0.0311,-36.46007 0.069,-23.46081 0.0379,12.99927 0.0379,34.19239 -10e-6,47.09583 -0.038,12.90345 -0.069,2.26769 -0.069,-23.63502 z M 196.34695,210.48 c 0,-4.14735 0.0366,-5.84399 0.0813,-3.77032 0.0447,2.07368 0.0447,5.46696 0,7.54063 -0.0447,2.07367 -0.0813,0.37703 -0.0813,-3.77031 z m 137.79076,-5.58479 -3.2479,-1.87858 0.0729,-4.00572 0.0729,-4.00572 3.34552,-1.9287 3.3455,-1.92871 3.26909,1.89823 c 1.79797,1.04403 3.35653,2.03026 3.46345,2.19163 0.10691,0.16137 0.19621,1.91206 0.19843,3.89041 0.003,3.10352 -0.0595,3.65066 -0.45897,3.98806 -0.74946,0.63297 -6.10629,3.65981 -6.47504,3.6587 -0.1859,-5.3e-4 -1.79954,-0.84638 -3.58587,-1.8796 z M 373.87564,185.08 c 0,-2.69214 0.0393,-3.79347 0.0873,-2.4474 0.048,1.34607 0.048,3.54872 0,4.89479 -0.048,1.34607 -0.0873,0.24474 -0.0873,-2.44739 z m -265.90781,-0.92605 c -2.7e-4,-2.47385 0.0395,-3.52149 0.0884,-2.32809 0.0489,1.1934 0.0492,3.21746 5.3e-4,4.49792 -0.0486,1.28045 -0.0886,0.30403 -0.0889,-2.16983 z m 81.11881,-5.0733 c -1.67348,-2.27409 -3.72775,-5.06566 -4.56503,-6.2035 -1.46665,-1.99313 -1.45208,-2.27507 0.0671,-1.29817 0.89274,0.57408 1.3672,0.84739 3.83646,2.21007 3.93641,2.17234 6.74687,3.90186 6.74687,4.15194 0,0.32013 -2.73511,5.27844 -2.91042,5.27612 -0.0728,-0.001 -1.50151,-1.86238 -3.175,-4.13646 z m 148.36511,-21.16338 c 0.1819,-0.0734 0.47955,-0.0734 0.66145,0 0.18191,0.0734 0.0331,0.13345 -0.33072,0.13345 -0.36381,0 -0.51264,-0.0601 -0.33073,-0.13345 z"
         id="path1231" />
      <path
         style="fill:#639b58;stroke-width:0.264583"
         d="m 171.88873,205.54163 v -28.48628 l -1.09767,-2.00695 c -0.60372,-1.10382 -2.98768,-5.26853 -5.29769,-9.25491 -2.31001,-3.98639 -4.14098,-7.30702 -4.06881,-7.37918 0.0722,-0.0722 1.23573,0.50416 2.5857,1.28073 12.82013,7.37468 18.87286,10.9297 18.94742,11.1286 0.0488,0.1302 0.21603,0.15807 0.37161,0.0619 0.15558,-0.0961 0.21156,-0.0594 0.1244,0.0816 -0.13044,0.21106 8.20627,11.83241 8.79541,12.26077 0.19369,0.14083 -7.37395,14.02828 -7.63726,14.01521 -0.24308,-0.0121 -2.159,-2.78127 -3.88027,-5.60842 l -1.5668,-2.57341 -0.13229,20.55195 -0.13229,20.55196 -3.3073,1.91755 c -1.81901,1.05466 -3.39658,1.92377 -3.50572,1.93136 -0.10914,0.008 -0.19844,-12.80502 -0.19844,-28.47248 z M 35.452686,228.47166 c 0,-1.0914 0.0467,-1.53789 0.103786,-0.99218 0.05708,0.5457 0.05708,1.43867 0,1.98437 -0.05708,0.5457 -0.103786,0.0992 -0.103786,-0.99219 z M 196.3517,191.82687 c 6e-5,-6.25739 0.0347,-8.77942 0.0769,-5.6045 0.0422,3.17493 0.0422,8.29462 -1.1e-4,11.37709 -0.0423,3.08247 -0.0769,0.48481 -0.0768,-5.77259 z"
         id="path1229" />
      <path
         style="fill:#51924a;stroke-width:0.264583"
         d="m 179.03545,209.47295 0.003,-20.5565 1.15807,1.85209 c 2.21661,3.545 3.36414,5.29563 3.88472,5.92638 0.50991,0.61782 0.53459,0.62134 0.92716,0.13229 0.38473,-0.47928 0.39045,-0.47581 0.12412,0.0755 -0.15355,0.31785 -0.27918,0.62631 -0.27918,0.68546 0,0.0591 2.55985,1.33885 5.68855,2.84378 l 5.68854,2.73625 v 7.53645 c 0,4.14505 -0.0425,7.48685 -0.0945,7.42622 -0.052,-0.0606 -2.09544,-3.56306 -4.54105,-7.78317 -2.44561,-4.2201 -4.75458,-8.14057 -5.13103,-8.71215 l -0.68447,-1.03923 -0.13229,12.88881 -0.13229,12.88882 -3.24115,1.82775 -3.24114,1.82775 0.003,-20.5565 z M 35.474906,220.13729 c -2.34e-4,-2.91042 0.03842,-4.13714 0.0859,-2.72605 0.04748,1.41108 0.04767,3.79233 4.25e-4,5.29166 -0.04725,1.49933 -0.0861,0.3448 -0.08633,-2.56561 z m 89.189174,-1.00921 c -0.34483,-0.82528 -0.40035,-3.599 -0.40035,-19.99944 0,-12.84504 0.0918,-19.28365 0.28221,-19.78611 0.29098,-0.76799 1.24996,-1.93545 1.58984,-1.93545 0.10576,0 2.54695,4.31602 5.42485,9.59115 2.87791,5.27513 5.50512,10.02902 5.83824,10.5642 0.33312,0.53518 0.50675,1.01143 0.38583,1.05833 -0.12092,0.0469 -2.99214,4.84778 -6.38049,10.66861 -3.38835,5.82083 -6.20095,10.63138 -6.25021,10.6901 -0.0493,0.0587 -0.26973,-0.3244 -0.48992,-0.85139 z m 61.24756,-23.99392 c 0.29696,-0.58208 0.59946,-1.05833 0.67222,-1.05833 0.0728,0 -0.11067,0.47625 -0.40763,1.05833 -0.29696,0.58209 -0.59946,1.05834 -0.67222,1.05834 -0.0728,0 0.11068,-0.47625 0.40763,-1.05834 z"
         id="path1227" />
      <path
         style="fill:#3d853c;stroke-width:0.264583"
         d="m 159.18873,240.01962 c -1.16191,-0.42042 -33.04052,-18.82681 -33.66114,-19.43561 -0.43037,-0.42217 -0.10398,-1.0516 5.82083,-11.22525 3.45222,-5.92789 6.33654,-10.77957 6.40961,-10.7815 0.0731,-0.002 1.81711,3.06235 3.87567,6.80951 11.61321,21.13934 18.31916,33.37131 18.71182,34.13125 0.5038,0.97506 0.34366,1.0445 -1.15679,0.5016 z m 26.46422,-26.69535 c 0.006,-12.66085 0.0101,-12.76069 0.51608,-12.10469 0.28061,0.3638 2.67215,4.38207 5.31452,8.92948 5.15315,8.86836 5.14061,8.83538 3.88506,10.22126 -0.47844,0.5281 -9.1998,5.72009 -9.60845,5.72009 -0.0622,0 -0.11045,-5.74476 -0.10721,-12.76614 z m -150.202399,-0.0662 c 0.0012,-1.01864 0.049,-1.40294 0.106272,-0.85399 0.05728,0.54895 0.05632,1.38238 -0.0021,1.85208 -0.05845,0.4697 -0.105311,0.0206 -0.104138,-0.99809 z M 190.42443,200.39916 c -2.975,-1.44844 -5.4538,-2.67824 -5.50846,-2.73289 -0.0937,-0.0937 0.9247,-2.01234 7.62714,-14.37007 2.71104,-4.99852 2.76966,-5.08097 3.22426,-4.53475 0.42584,0.51165 0.46302,1.51023 0.46302,12.43327 0,6.53232 -0.0893,11.86817 -0.19843,11.85745 -0.10914,-0.0107 -2.63253,-1.20457 -5.60753,-2.65301 z"
         id="path1225" />
      <path
         style="fill:#323232;stroke-width:0.264583"
         d="m 231.15539,231.34668 c -9.09505,-5.25147 -16.81969,-9.80285 -17.16587,-10.11418 -1.38046,-1.24149 -1.35496,-0.83672 -1.35496,-21.50839 0,-18.63889 0.0164,-19.27335 0.52427,-20.32254 0.62165,-1.28416 -1.11368,-0.20353 18.92261,-11.78358 l 15.61041,-9.0221 1.45521,0.10263 c 1.27261,0.0898 2.00599,0.42336 5.84473,2.65872 2.41424,1.40585 4.56867,2.55609 4.78764,2.55609 0.21896,0 0.59516,-0.21773 0.836,-0.48385 0.40095,-0.44305 0.43788,-2.59301 0.43788,-25.49281 0,-17.00644 0.0902,-25.26759 0.28175,-25.81721 0.17256,-0.495 0.58093,-0.93216 1.05368,-1.12798 0.67549,-0.2798 0.92948,-0.23701 2.03335,0.3425 3.54769,1.86247 19.05491,10.61687 19.47862,10.99639 1.29272,1.15792 1.22968,-1.38466 1.22968,49.60049 v 47.7313 l -0.59531,0.87611 c -0.59061,0.86921 -3.86193,2.82046 -27.55148,16.43369 -6.14254,3.52982 -6.97369,3.93449 -8.06979,3.92898 -1.12028,-0.006 -2.5979,-0.8006 -17.75842,-9.55426 z m 23.9448,-21.09847 5.82083,-3.37543 v -7.12308 -7.12308 l -5.82083,-3.37239 c -3.20146,-1.85481 -5.99943,-3.37274 -6.21771,-3.37317 -0.21828,-5.3e-4 -3.01625,1.5158 -6.21771,3.36939 l -5.82083,3.37017 v 7.11734 7.11733 l 5.82083,3.38283 c 3.20146,1.86055 5.99943,3.38343 6.21771,3.38417 0.21828,8e-4 3.01625,-1.51759 6.21771,-3.37408 z m 69.58541,23.12029 c -6.54844,-3.73165 -14.14915,-8.05666 -16.89044,-9.61114 -3.19718,-1.81296 -5.18933,-3.11092 -5.55625,-3.62007 l -0.57206,-0.79375 v -20.11397 c 0,-19.88558 0.006,-20.12246 0.54462,-20.8616 0.35959,-0.49368 6.29139,-4.06397 17.4625,-10.51057 15.48556,-8.93637 17.02009,-9.76302 18.12504,-9.76392 1.10567,-7.9e-4 2.49574,0.7461 16.53646,8.88647 8.43111,4.88809 16.02499,9.30876 16.87528,9.82371 2.51929,1.52568 2.55291,1.63499 2.55408,8.30336 0,5.49414 -0.022,5.74923 -0.59433,6.58476 -0.44802,0.65414 -3.11584,2.33221 -10.78178,6.78179 -6.38288,3.70486 -10.45429,5.91416 -10.90374,5.9168 -0.4015,0.002 -0.95483,-0.25073 -1.25677,-0.57485 -0.50517,-0.54223 -0.53949,-0.91149 -0.53949,-5.80608 0,-5.04863 -0.0204,-5.24955 -0.59531,-5.88715 -0.83571,-0.9267 -10.73745,-6.54726 -11.57634,-6.57111 -0.71112,-0.0202 -10.4421,5.42465 -11.5747,6.47652 -0.58692,0.54508 -0.59531,0.64661 -0.59531,7.2075 0,6.56278 0.008,6.66218 0.59531,7.20117 0.32742,0.30059 7.91766,4.73957 16.86719,9.86439 8.94953,5.12482 16.4207,9.5063 16.6026,9.73662 0.48123,0.60931 0.40619,2.02201 -0.13229,2.49068 -0.25466,0.22165 -4.92667,2.8797 -10.38222,5.90678 -7.90829,4.388 -10.16111,5.52554 -11.1125,5.61113 -1.14702,0.10319 -1.65513,-0.15583 -13.09955,-6.67747 z M 36.503645,231.8598 c -0.318932,-0.15413 -0.641321,-0.44034 -0.716418,-0.63605 -0.0751,-0.1957 -0.217025,-11.75943 -0.315394,-25.69718 -0.129579,-18.35989 -0.09738,-25.6364 0.116886,-26.4123 0.162657,-0.58901 0.62506,-1.37775 1.027563,-1.75275 0.593962,-0.55337 30.186984,-17.74167 33.385563,-19.39109 1.843035,-0.9504 1.922979,-0.91251 19.901609,9.43317 13.176176,7.58215 16.892936,9.83568 17.360796,10.52612 l 0.59531,0.87853 v 26.03436 26.03436 l -0.64943,0.64943 c -0.35719,0.35718 -0.85918,0.64943 -1.11555,0.64943 -0.25636,0 -5.09154,-2.64914 -10.744826,-5.88698 -8.466024,-4.84879 -10.380673,-6.05029 -10.856849,-6.81302 -0.568889,-0.91124 -0.580247,-1.13333 -0.710425,-13.89063 -0.09955,-9.75615 -0.215019,-13.10924 -0.466574,-13.54914 -0.473636,-0.82824 -1.496751,-1.52748 -6.111425,-4.17681 -5.723075,-3.28567 -5.22569,-3.29977 -11.545959,0.32733 -4.622171,2.65259 -5.075033,2.97851 -5.622396,4.04629 -0.592681,1.1562 -0.595317,1.21692 -0.596301,13.73913 -9.53e-4,12.01953 -0.02397,12.61548 -0.518838,13.4271 -0.284817,0.46711 -0.968981,1.13979 -1.520365,1.49484 -2.446406,1.57527 -19.647252,11.28008 -19.964346,11.26398 -0.194014,-0.01 -0.613698,-0.144 -0.932631,-0.29812 z"
         id="path1223" />
    </g>
  </g>
</svg>
