<?xml version="1.0" encoding="UTF-8" standalone="no"?>
<svg
   xmlns:dc="http://purl.org/dc/elements/1.1/"
   xmlns:cc="http://creativecommons.org/ns#"
   xmlns:rdf="http://www.w3.org/1999/02/22-rdf-syntax-ns#"
   xmlns:svg="http://www.w3.org/2000/svg"
   xmlns="http://www.w3.org/2000/svg"
   version="1.1"
   id="svg2269"
   width="1199.0267"
   height="476"
   viewBox="0 0 1199.0267 476">
  <metadata
     id="metadata2275">
    <rdf:RDF>
      <cc:Work
         rdf:about="">
        <dc:format>image/svg+xml</dc:format>
        <dc:type
           rdf:resource="http://purl.org/dc/dcmitype/StillImage" />
        <dc:title></dc:title>
      </cc:Work>
    </rdf:RDF>
  </metadata>
  <defs
     id="defs2273" />
  <g
     id="g2277"
     transform="translate(6.4864681,-118.66078)">
    <path
       style="fill:#171717"
       d="m 1052.5135,554.16783 -14.5,-40.4918 -80.74997,-0.008 c -44.4125,-0.004 -80.74668,-0.34512 -80.74262,-0.75762 0.004,-0.4125 7.56769,-19.875 16.80809,-43.25 l 16.80071,-42.5 50.29533,-0.25931 c 42.53466,-0.21929 50.21266,-0.47452 49.76006,-1.6541 -3.9849,-10.38403 -46.67157,-130.93707 -46.67157,-131.80647 0,-1.73908 58.24587,-148.78308 58.92637,-148.76188 0.3155,0.01 38.1213,99.79733 84.0129,221.75 45.8917,121.95267 84.0352,223.19463 84.7635,224.98213 l 1.324,3.25 -62.7634,-5.8e-4 -62.7634,-5.7e-4 z M -6.4864681,344.16078 v -225.5 l 98.7500001,0.003 c 61.189208,0.002 103.124168,0.40405 110.249998,1.0567 39.4123,3.60976 70.98035,17.00403 94.04045,39.90122 4.72967,4.69627 10.89867,11.82649 13.70887,15.84495 l 5.10945,7.30628 -1.43558,4.69372 c -9.37943,30.6666 -71.57207,219.6677 -72.46547,220.21985 -1.81824,1.12373 -21.29039,4.80465 -31.45772,5.94661 -4.95,0.55597 -29.8125,1.01454 -55.25,1.01906 l -46.25,0.008 v 77.5 77.5 H 51.013532 -6.4864681 Z M 167.01353,326.62946 c 24.87491,-2.80509 39.57173,-11.03414 47.81776,-26.77416 4.69695,-8.96553 6.61757,-16.60099 7.34811,-29.21254 1.51742,-26.19549 -8.91454,-47.25466 -27.94168,-56.40635 -13.21286,-6.35513 -16.62913,-6.82639 -52.97419,-7.30761 l -32.75,-0.43362 v 60.5828 60.5828 l 24.75,-0.008 c 13.6125,-0.005 28.8,-0.46492 33.75,-1.02312 z m 165.5,190.47737 c -16.775,-28.88221 -30.45518,-52.83553 -30.40041,-53.22958 0.32382,-2.3296 59.94134,-185.21399 60.37326,-185.20274 0.28993,0.008 15.37715,29.43844 33.52715,65.40198 18.15,35.96354 33.22493,65.16994 33.49984,64.90311 0.27491,-0.26684 21.71814,-65.58523 47.65164,-145.15199 l 47.1518,-144.66683 46.59836,-0.25989 c 25.6291,-0.14294 46.59836,-0.0243 46.59836,0.26356 0,0.95681 87.22392,287.97435 87.89368,289.22142 0.36187,0.6738 28.551,-64.1262 62.64251,-144 l 61.98455,-145.22509 60.34963,-0.25785 c 57.22028,-0.24448 60.31579,-0.1667 59.69697,1.5 -0.35897,0.96681 -41.24089,102.44535 -90.84871,225.50785 l -90.19604,223.75 h -59.76129 c -32.86872,0 -59.7613,-0.18191 -59.7613,-0.40424 0,-0.75849 -79.99569,-256.0887 -80.86215,-258.09576 -0.87922,-2.03662 -1.71748,0.45196 -65.26372,193.75 l -21.2864,64.75 -59.54387,-0.0204 -59.54386,-0.0204 z"
       id="path2842" />
  </g>
</svg>
