<?xml version="1.0" encoding="UTF-8" standalone="no"?>
<svg
   xmlns:dc="http://purl.org/dc/elements/1.1/"
   xmlns:cc="http://creativecommons.org/ns#"
   xmlns:rdf="http://www.w3.org/1999/02/22-rdf-syntax-ns#"
   xmlns:svg="http://www.w3.org/2000/svg"
   xmlns="http://www.w3.org/2000/svg"
   xmlns:sodipodi="http://sodipodi.sourceforge.net/DTD/sodipodi-0.dtd"
   xmlns:inkscape="http://www.inkscape.org/namespaces/inkscape"
   width="203.16714mm"
   height="202.85435mm"
   viewBox="0 0 203.16715 202.85436"
   version="1.1"
   id="svg8"
   inkscape:version="1.0.1 (3bc2e813f5, 2020-09-07)"
   sodipodi:docname="python.svg">
  <defs
     id="defs2" />
  <sodipodi:namedview
     id="base"
     pagecolor="#ffffff"
     bordercolor="#666666"
     borderopacity="1.0"
     inkscape:pageopacity="0.0"
     inkscape:pageshadow="2"
     inkscape:zoom="0.49497475"
     inkscape:cx="289.46633"
     inkscape:cy="178.99016"
     inkscape:document-units="mm"
     inkscape:current-layer="layer1"
     inkscape:document-rotation="0"
     showgrid="false"
     inkscape:window-width="1920"
     inkscape:window-height="1016"
     inkscape:window-x="1920"
     inkscape:window-y="27"
     inkscape:window-maximized="0" />
  <metadata
     id="metadata5">
    <rdf:RDF>
      <cc:Work
         rdf:about="">
        <dc:format>image/svg+xml</dc:format>
        <dc:type
           rdf:resource="http://purl.org/dc/dcmitype/StillImage" />
        <dc:title></dc:title>
      </cc:Work>
    </rdf:RDF>
  </metadata>
  <g
     inkscape:label="Layer 1"
     inkscape:groupmode="layer"
     id="layer1"
     transform="translate(-120.5543,-165.37627)">
    <g
       id="g1269"
       transform="translate(65.512616,-7.9967486)">
      <path
         style="fill:#fed142;stroke-width:0.264583"
         d="m 150.68487,376.08553 c -17.83064,-0.9131 -30.16397,-5.05855 -37.27187,-12.52774 -1.90921,-2.00626 -2.50679,-2.85717 -3.58302,-5.10197 -0.71041,-1.48178 -1.43344,-3.28945 -1.60673,-4.01706 -0.23395,-0.9823 -0.30603,-8.05874 -0.27997,-27.48385 0.0375,-27.92938 0.0564,-28.37857 1.36332,-32.27147 2.79794,-8.33451 9.15098,-13.5731 19.55015,-16.12069 2.18616,-0.53556 3.06532,-0.5557 31.48541,-0.72103 31.31088,-0.18216 29.67242,-0.11168 34.39051,-1.47936 7.08478,-2.05374 12.99571,-7.7499 15.80597,-15.23167 2.01744,-5.37102 2.00824,-5.27672 2.11963,-21.71953 l 0.0999,-14.75052 h 9.48747 c 10.443,0 11.82928,0.13966 15.50461,1.56201 9.49782,3.67568 16.24382,13.55915 19.48095,28.54129 l 0.84172,3.89566 0.0989,14.68437 c 0.10869,16.14357 0.0811,16.54985 -1.56977,23.12091 -3.80959,15.16353 -12.83947,24.74516 -25.21924,26.7602 -2.00785,0.32682 -8.03418,0.38776 -38.43073,0.38866 l -36.04948,10e-4 v 3.43822 3.43822 l 24.6724,0.0675 24.67239,0.0675 v 13.22917 13.22917 l -0.71326,1.77933 c -3.49144,8.7099 -14.35612,14.41965 -31.30132,16.44988 -6.66815,0.79892 -16.63706,1.12563 -23.54792,0.77172 z m 37.57084,-16.12703 c 0.93222,-0.31785 1.79868,-0.92603 2.93389,-2.05936 1.95171,-1.94846 2.61358,-3.57311 2.60631,-6.39756 -0.009,-3.52487 -2.29985,-6.80225 -5.63358,-8.05985 -2.07123,-0.78135 -5.15472,-0.63215 -7.05037,0.34114 -2.97199,1.52591 -4.63918,4.06985 -4.83793,7.3821 -0.15002,2.50021 0.36229,4.20758 1.81332,6.04327 2.40298,3.04 6.25938,4.08305 10.16836,2.75026 z"
         id="path1273" />
      <path
         style="fill:#3571a3;stroke-width:0.264583"
         d="m 80.143639,324.53938 c -0.962262,-0.19173 -2.688668,-0.72369 -3.836458,-1.18213 -13.680338,-5.46402 -21.255769,-22.80905 -21.26549,-48.69036 -0.0069,-18.4211 4.187149,-32.1971 12.282748,-40.34436 3.619045,-3.64214 7.862244,-6.0734 13.290785,-7.61531 l 2.071732,-0.58845 37.240104,-0.0738 37.2401,-0.0738 v -3.43203 -3.43204 l -24.67239,-0.0675 -24.6724,-0.0675 -0.0688,-12.55104 c -0.0759,-13.86142 -0.0476,-14.17302 1.58791,-17.47916 1.20818,-2.44223 5.10757,-6.28752 8.24701,-8.13258 8.89556,-5.22795 23.7743,-7.84631 41.95988,-7.38409 20.37456,0.51786 33.38292,4.49725 41.05479,12.55908 2.4463,2.57064 3.9701,5.13833 4.97404,8.38154 0.5726,1.84981 0.57328,1.88449 0.54513,28.13723 -0.0304,28.31566 -0.0342,28.40175 -1.43576,32.5113 -2.79524,8.19576 -9.0726,13.46821 -18.91902,15.89037 l -2.80355,0.68965 -29.23646,0.16399 c -28.27523,0.15859 -29.31475,0.18193 -31.61771,0.70992 -5.03664,1.15473 -8.97989,3.17064 -12.21729,6.24586 -3.29152,3.12662 -5.87971,7.52732 -7.26748,12.35689 -1.19699,4.16564 -1.28329,5.5125 -1.28417,20.04219 l -8.5e-4,13.82448 -9.723436,-0.0249 c -6.892658,-0.0176 -10.232788,-0.12635 -11.473005,-0.37347 z M 132.95779,205.81207 c 1.59696,-0.82817 3.30071,-2.55307 4.11905,-4.17018 0.89324,-1.76511 1.01371,-4.92913 0.2634,-6.91809 -0.78523,-2.08153 -2.3214,-3.72875 -4.45775,-4.78 -1.56095,-0.76811 -2.01487,-0.86854 -3.88867,-0.86035 -2.58811,0.0113 -4.4322,0.7639 -6.19753,2.52923 -1.76533,1.76533 -2.51791,3.60942 -2.52922,6.19752 -0.008,1.87381 0.0922,2.32773 0.86034,3.88868 1.02232,2.07755 2.6732,3.65244 4.64868,4.43468 1.97791,0.78321 5.34191,0.63262 7.1817,-0.32149 z"
         id="path1271" />
    </g>
  </g>
</svg>
