<?xml version="1.0" encoding="UTF-8" standalone="no"?>
<svg
   xmlns:dc="http://purl.org/dc/elements/1.1/"
   xmlns:cc="http://creativecommons.org/ns#"
   xmlns:rdf="http://www.w3.org/1999/02/22-rdf-syntax-ns#"
   xmlns:svg="http://www.w3.org/2000/svg"
   xmlns="http://www.w3.org/2000/svg"
   version="1.1"
   id="svg893"
   width="745.16949"
   height="663.7135"
   viewBox="0 0 745.16949 663.7135">
  <metadata
     id="metadata899">
    <rdf:RDF>
      <cc:Work
         rdf:about="">
        <dc:format>image/svg+xml</dc:format>
        <dc:type
           rdf:resource="http://purl.org/dc/dcmitype/StillImage" />
        <dc:title></dc:title>
      </cc:Work>
    </rdf:RDF>
  </metadata>
  <defs
     id="defs897" />
  <g
     id="g901"
     transform="translate(-445.42642,-126.68669)">
    <path
       style="fill:#60d9fa"
       d="m 655.40945,789.47689 c -56.17213,-8.18302 -77.7503,-79.98798 -56.91294,-189.38725 1.36187,-7.15 2.69098,-13.73014 2.95359,-14.62253 0.38085,-1.29418 -2.00698,-2.47113 -11.79945,-5.81592 -40.65431,-13.88616 -73.14593,-29.89016 -97.99728,-48.26932 -11.42045,-8.44616 -27.3644,-24.70491 -33.60412,-34.26761 -22.94924,-35.17091 -14.51812,-70.97523 24.57564,-104.36507 16.3261,-13.94406 37.60779,-26.99446 62.40333,-38.26709 13.40258,-6.09312 40.36955,-16.47519 50.0955,-19.28636 3.1625,-0.91408 5.74818,-1.9869 5.74595,-2.38403 -0.002,-0.39714 -1.35244,-7.56906 -3.00048,-15.93759 -4.47026,-22.6994 -7.01871,-44.53532 -7.67765,-65.78448 -1.51584,-48.88176 8.04747,-84.51245 28.18218,-105.00029 13.20511,-13.43671 27.25945,-18.88794 48.5,-18.81161 14.03474,0.0504 21.45467,1.40828 38.40497,7.02814 29.7643,9.86833 69.15596,34.78388 103.98356,65.77048 l 8.52512,7.58491 7.29317,-6.69881 c 41.73094,-38.33002 88.57228,-65.50616 125.71977,-72.93936 11.29588,-2.26031 30.73278,-1.56734 40.07341,1.42869 23.86458,7.65464 39.80728,27.52878 48.51778,60.48227 8.5373,32.29804 7.2638,81.60155 -3.458,133.87483 -1.046,5.09966 -1.8248,9.28941 -1.7308,9.31056 0.094,0.0211 6.021,1.97514 13.171,4.34221 91.326,30.23424 146.9438,78.81054 143.0282,124.91998 -2.4949,29.37933 -25.0257,57.41014 -66.2609,82.43574 -20.6755,12.54796 -49.6062,25.55882 -76.2673,34.29934 -6.325,2.07357 -11.8082,4.04076 -12.1848,4.37153 -0.3767,0.33076 -0.047,3.30139 0.7325,6.60139 5.6725,24.01243 9.4275,57.49886 9.4416,84.19878 0.025,46.62056 -8.9755,77.03289 -28.6752,96.8955 -12.1379,12.23821 -27.57188,18.35036 -46.43309,18.38836 -38.55486,0.0777 -88.8874,-25.26465 -141.71403,-71.35269 -7.42598,-6.47872 -10.69573,-8.7498 -11.62221,-8.07245 -0.70904,0.51837 -5.73898,4.86231 -11.17766,9.65319 -45.17176,39.79144 -88.45361,63.72863 -125.36709,69.33474 -10.41704,1.58205 -16.3995,1.66236 -25.46427,0.34182 z m 22.46427,-33.94744 c 10.03278,-1.61309 25.91341,-7.30867 39.04449,-14.0033 21.01866,-10.71595 49.96419,-31.29016 70.18395,-49.88609 l 6.72844,-6.18809 -12.89774,-14.40968 c -14.60926,-16.32184 -29.99752,-35.01288 -41.53747,-50.45265 -4.31634,-5.775 -7.96005,-10.64806 -8.09714,-10.82903 -0.13709,-0.18097 -8.27619,-1.38187 -18.08689,-2.66867 -25.71452,-3.3728 -51.8221,-8.02272 -72.08396,-12.83858 -3.43548,-0.81655 -6.43703,-1.17607 -6.67011,-0.79894 -0.79779,1.29085 -5.46277,26.62488 -7.02218,38.13522 -5.23861,38.66729 -3.33162,75.5873 5.05683,97.90207 8.32025,22.13336 21.74815,29.8376 45.38178,26.03774 z m 308.93121,-3.4713 c 12.57489,-6.873 20.81637,-25.46836 24.14067,-54.46851 1.4843,-12.94944 0.6421,-47.78778 -1.5352,-63.5 -1.7984,-12.97818 -6.639,-39.04759 -7.5131,-40.46179 -0.3801,-0.61506 -6.44496,0.31315 -16.06708,2.45902 -19.35208,4.3158 -45.94169,8.86371 -65.38717,11.18389 l -14.93066,1.78149 -4.23635,5.51869 c -24.9216,32.46543 -33.05004,42.34826 -49.59182,60.29537 -7.9053,8.57692 -8.84541,9.97644 -7.66081,11.40453 2.46547,2.97221 25.19973,21.88606 35.16128,29.25254 27.26368,20.16127 54.76518,34.19046 75.68903,38.61084 3.67078,0.77549 10.85265,1.26857 16.5,1.13282 8.95458,-0.21524 10.56779,-0.5507 15.43121,-3.20889 z M 828.52931,650.25957 c 8.41049,-9.34228 20.22714,-23.36047 27.98014,-33.19309 l 3.13574,-3.97684 h -41.38585 c -22.76222,0 -41.3858,0.15934 -41.38574,0.35409 6.7e-4,1.99597 39.82498,47.19376 41.47027,47.06584 0.56642,-0.044 5.14987,-4.65654 10.18544,-10.25 z m 36.06077,-71.69773 c 9.781,-0.56529 18.79348,-1.24819 20.02772,-1.51756 5.46235,-1.19216 43.22807,-63.6111 62.80373,-103.80163 l 7.23155,-14.847 -3.82666,-8.153 c -13.9119,-29.64046 -38.24675,-71.82437 -58.64111,-101.65301 l -5.81159,-8.5 -8,-0.7441 c -26.79848,-2.4926 -91.96118,-2.49148 -120.48941,0.002 l -8.4894,0.74203 -4.82577,7 c -16.78167,24.34259 -36.54814,58.07221 -52.34697,89.32515 l -11.28569,22.32515 7.59122,15.17485 c 15.54505,31.07455 33.12823,61.43534 51.41487,88.77779 l 9.96315,14.89713 5.734,0.12254 c 3.1537,0.0674 10.459,0.44192 16.234,0.83228 16.7205,1.13023 73.27773,1.14083 92.71636,0.0174 z m -63.71636,-53.01752 c -24.26696,-6.26151 -43.22201,-24.84483 -49.95062,-48.97101 -2.60422,-9.33773 -2.8533,-24.69976 -0.56105,-34.60288 5.56931,-24.06094 25.98808,-44.69453 50.51167,-51.04309 8.72282,-2.25812 25.37299,-2.22044 34,0.077 31.09777,8.28138 52,35.38651 52,67.43142 0,11.78056 -1.95476,20.13412 -7.29011,31.15393 -5.55823,11.48013 -18.56694,24.73992 -29.70989,30.28331 -15.36244,7.64251 -33.31001,9.7198 -49,5.67137 z m -96.63033,44.79532 c -0.4116,-0.6875 -3.97797,-6.425 -7.92526,-12.75 -7.85419,-12.58526 -20.48,-34.45029 -27.94415,-48.39291 -3.73766,-6.98173 -4.95518,-8.54558 -5.66526,-7.27674 -1.59865,2.85663 -11.82185,31.77068 -15.79394,44.66965 -2.72345,8.84414 -3.5117,12.68504 -2.69514,13.13267 1.92279,1.05409 20.10128,4.96745 39.15408,8.42887 20.87544,3.79255 21.89397,3.89936 20.86967,2.18846 z m 242.7308,-1.21664 c 17.39171,-2.9792 43.14324,-8.44791 44.90375,-9.53597 0.98517,-0.60887 0.3139,-3.81735 -2.95888,-14.14246 -7.32611,-23.11282 -16.30137,-46.40445 -17.26272,-44.79834 -0.47518,0.79387 -4.72057,8.64341 -9.43419,17.44341 -7.32706,13.6791 -23.7594,41.70571 -29.75533,50.75 -1.00272,1.5125 -1.38865,2.75 -0.85764,2.75 0.53102,0 7.44528,-1.10999 15.36501,-2.46664 z m -329.1301,-42.56446 c 7.79962,-23.51661 12.87124,-37.09627 21.39106,-57.27612 l 4.56274,-10.80722 -2.54255,-5.69278 c -6.66838,-14.93056 -17.31062,-42.83716 -24.0987,-63.19278 -4.12674,-12.375 -7.66625,-22.67513 -7.86557,-22.88919 -0.19932,-0.21405 -7.22876,1.97335 -15.62098,4.86091 -56.24955,19.35404 -98.24898,46.95304 -111.10054,73.00725 -6.8973,13.98303 -3.10773,27.97618 11.8955,43.92471 20.38392,21.66823 53.15379,40.32841 100.40867,57.17582 7.425,2.64718 13.87948,4.71073 14.34329,4.58568 0.46381,-0.12506 4.346,-10.78838 8.62708,-23.69628 z m 420.54371,19.98423 c 19.7341,-6.8046 29.2794,-10.75525 46.9859,-19.44676 45.3454,-22.25841 72.8385,-49.44683 71.2963,-70.50637 -1.7165,-23.44057 -35.9417,-52.60849 -87.7963,-74.82305 -13.5272,-5.79506 -39.4321,-15.18411 -41.8286,-15.16045 -1.2826,0.0127 -2.7964,3.67665 -6.5075,15.75 -5.5631,18.09893 -15.5517,45.18438 -23.27244,63.10644 l -5.33019,12.37295 4.10083,9.62705 c 10.4712,24.58207 24.6802,63.52448 28.7801,78.87706 0.6242,2.3375 1.2925,4.25 1.4852,4.25 0.1927,0 5.6317,-1.82109 12.0867,-4.04687 z M 673.89592,397.83964 c 5.62165,-10.3125 14.05128,-25.05 18.7325,-32.75 4.68122,-7.7 9.36067,-15.40277 10.39877,-17.11727 l 1.88745,-3.11727 -16.27046,2.80912 c -18.35803,3.16954 -44.83656,8.65819 -45.63866,9.46029 -0.89627,0.89627 19.15015,59.46513 20.35319,59.46513 0.17381,0 4.91555,-8.4375 10.53721,-18.75 z m 303.28948,6.23754 c 4.97013,-13.37839 15.9025,-46.61499 15.46809,-47.02609 -0.59517,-0.5632 -23.9503,-5.50701 -37.27977,-7.89136 -21.23276,-3.79809 -24.5,-4.32626 -24.5,-3.9606 0,0.18505 3.16109,5.29693 7.02464,11.35973 8.47581,13.30051 24.42874,40.99911 30.03298,52.14537 2.23781,4.4508 4.23343,7.92769 4.4347,7.72643 0.20127,-0.20127 2.36998,-5.76034 4.81936,-12.35348 z M 647.03506,321.15689 c 20.12275,-4.73501 54.66243,-10.55937 77.45768,-13.06155 l 6.11903,-0.67167 9.69801,-12.95173 c 11.74625,-15.68716 27.10039,-34.29942 41.41956,-50.20875 5.85441,-6.50454 10.7841,-12.21121 10.95487,-12.68148 0.37681,-1.03765 -18.69007,-17.49385 -31.91503,-27.54515 -46.11064,-35.04523 -88.7913,-50.4223 -110.61971,-39.85429 -23.68883,11.46872 -32.49493,64.61952 -21.67093,130.79878 3.38822,20.71594 5.28814,28.60859 6.88667,28.60859 0.73215,0 5.98358,-1.09474 11.66985,-2.43275 z M 1004.288,309.87824 c 4.9341,-25.53132 6.7694,-43.13509 6.8589,-65.7886 0.1195,-30.26039 -3.1436,-48.75699 -11.40164,-64.63004 -7.29224,-14.0166 -15.46829,-18.87615 -31.73637,-18.86295 -28.12378,0.0228 -69.20185,21.22945 -110.60693,57.10104 -5.96241,5.16557 -11.94975,10.31541 -13.30521,11.44407 l -2.46446,2.05212 8.1738,8.82276 c 15.99902,17.26925 34.60822,39.67979 48.49144,58.3969 l 6.52604,8.79829 13.77508,1.73626 c 20.0447,2.52651 47.58173,7.22371 64.77507,11.0492 8.25,1.8356 15.73451,3.39481 16.63228,3.46491 1.3205,0.1031 2.1382,-2.49075 4.282,-13.58396 z m -147.34884,-9.18349 c -3.95323,-5.52381 -23.18492,-28.02037 -31.23696,-36.53992 l -8.44452,-8.93481 -12.5519,14.11425 c -11.89094,13.37103 -27.83206,32.59182 -27.83206,33.55814 0,0.24524 18.43422,0.43724 40.96492,0.42667 l 40.96493,-0.0192 -1.86441,-2.60511 z"
       id="path905" />
  </g>
</svg>
