<?xml version="1.0" encoding="UTF-8" standalone="no"?>
<svg
   xmlns:dc="http://purl.org/dc/elements/1.1/"
   xmlns:cc="http://creativecommons.org/ns#"
   xmlns:rdf="http://www.w3.org/1999/02/22-rdf-syntax-ns#"
   xmlns:svg="http://www.w3.org/2000/svg"
   xmlns="http://www.w3.org/2000/svg"
   version="1.1"
   id="svg875"
   width="351.33145"
   height="393.86908"
   viewBox="0 0 351.33145 393.86908">
  <metadata
     id="metadata881">
    <rdf:RDF>
      <cc:Work
         rdf:about="">
        <dc:format>image/svg+xml</dc:format>
        <dc:type
           rdf:resource="http://purl.org/dc/dcmitype/StillImage" />
        <dc:title></dc:title>
      </cc:Work>
    </rdf:RDF>
  </metadata>
  <defs
     id="defs879" />
  <g
     id="g883"
     transform="translate(-66.151095,-101.7945)">
    <path
       style="fill:#5641da;stroke-width:0.666667"
       d="m 241.31776,464.85457 -53.83333,-30.7888 v -62.24799 -62.24799 l 2.83333,1.58887 c 1.55834,0.87387 26.15834,14.89974 54.66667,31.1686 l 51.83333,29.57974 v 61.88839 c 0,49.07704 -0.1725,61.88421 -0.83333,61.86818 -0.45833,-0.0111 -25.05833,-13.87516 -54.66667,-30.809 z m 0.5,-138.03236 -54,-30.82309 -0.17008,-62.4467 -0.17007,-62.44668 54.50341,31.14712 54.50341,31.14712 0.1701,62.1419 c 0.0936,34.17805 -0.0565,62.13324 -0.33333,62.12266 -0.27689,-0.0106 -24.80344,-13.88962 -54.50344,-30.84233 z m 67,-31.27425 v -62.24692 l 53.91693,-30.80863 c 29.6543,-16.94475 54.1043,-30.80862 54.33333,-30.80862 0.22902,0 0.41556,27.97499 0.41453,62.16666 l -0.002,62.16667 -53.7637,30.66666 c -29.57004,16.86667 -54.0192,30.76667 -54.33146,30.88889 -0.31214,0.12223 -0.56763,-27.78889 -0.56763,-62.02471 z M 120.6511,257.16856 66.151095,226.03901 v -62.23316 c 0,-34.3157 0.256411,-62.13348 0.571587,-62.01095 0.314372,0.12222 24.914373,14.13785 54.666668,31.14583 l 54.09508,30.92361 v 62.24306 c 0,34.23368 -0.075,62.23128 -0.16667,62.21688 -0.0917,-0.0144 -24.69166,-14.03446 -54.66666,-31.15572 z"
       id="path887" />
  </g>
</svg>
