<?xml version="1.0" encoding="UTF-8" standalone="no"?>
<svg
   xmlns:dc="http://purl.org/dc/elements/1.1/"
   xmlns:cc="http://creativecommons.org/ns#"
   xmlns:rdf="http://www.w3.org/1999/02/22-rdf-syntax-ns#"
   xmlns:svg="http://www.w3.org/2000/svg"
   xmlns="http://www.w3.org/2000/svg"
   xmlns:sodipodi="http://sodipodi.sourceforge.net/DTD/sodipodi-0.dtd"
   xmlns:inkscape="http://www.inkscape.org/namespaces/inkscape"
   width="317.46332mm"
   height="317.48322mm"
   viewBox="0 0 317.46333 317.48323"
   version="1.1"
   id="svg8"
   inkscape:version="1.0.1 (3bc2e813f5, 2020-09-07)"
   sodipodi:docname="typescript.svg">
  <defs
     id="defs2" />
  <sodipodi:namedview
     id="base"
     pagecolor="#ffffff"
     bordercolor="#666666"
     borderopacity="1.0"
     inkscape:pageopacity="0.0"
     inkscape:pageshadow="2"
     inkscape:zoom="0.49497475"
     inkscape:cx="178.73293"
     inkscape:cy="229.21509"
     inkscape:document-units="mm"
     inkscape:current-layer="layer1"
     inkscape:document-rotation="0"
     showgrid="false"
     inkscape:window-width="1920"
     inkscape:window-height="1016"
     inkscape:window-x="1920"
     inkscape:window-y="27"
     inkscape:window-maximized="0" />
  <metadata
     id="metadata5">
    <rdf:RDF>
      <cc:Work
         rdf:about="">
        <dc:format>image/svg+xml</dc:format>
        <dc:type
           rdf:resource="http://purl.org/dc/dcmitype/StillImage" />
        <dc:title></dc:title>
      </cc:Work>
    </rdf:RDF>
  </metadata>
  <g
     inkscape:label="Layer 1"
     inkscape:groupmode="layer"
     id="layer1"
     transform="translate(-149.85251,-152.08759)">
    <path
       style="fill:#3077c5;stroke-width:0.264583"
       d="m 175.41288,469.16491 c -11.01401,-1.98898 -20.428,-10.09277 -23.94272,-20.61046 -1.74993,-5.23663 -1.61525,6.24562 -1.61525,-137.71446 0,-116.73053 0.0436,-130.88483 0.40956,-132.98345 2.25598,-12.93676 12.42022,-23.10101 25.35698,-25.35699 2.09863,-0.36597 16.25292,-0.40956 132.98346,-0.40956 143.97394,0 132.48378,-0.13492 137.71446,1.61712 10.96893,3.6741 19.28709,13.7524 20.76902,25.1638 0.20056,1.54426 0.26236,40.92661 0.20937,133.42429 l -0.0752,131.23333 -0.71532,2.59133 c -3.35844,12.16639 -12.85775,20.95728 -24.91894,23.06055 -2.09992,0.36621 -16.20557,0.40707 -133.21654,0.38585 -112.13144,-0.0204 -131.16731,-0.0778 -132.95893,-0.40135 z m 215.36685,-25.7606 c 19.05824,-0.89416 31.96516,-5.49241 40.5997,-14.46416 5.13749,-5.33813 8.2472,-11.76362 9.39401,-19.41058 0.56501,-3.76762 0.56205,-10.91749 -0.006,-14.67551 -1.13435,-7.50319 -4.39372,-13.90734 -9.91939,-19.49001 -6.00159,-6.06353 -12.83496,-10.16108 -27.52222,-16.5034 -11.14888,-4.81436 -16.8439,-8.0374 -20.30601,-11.49197 -2.3443,-2.3392 -3.41875,-4.18116 -3.94542,-6.76374 -1.30471,-6.39785 2.84153,-11.92461 10.88997,-14.51589 3.98329,-1.28245 6.42789,-1.60219 12.30313,-1.60918 6.03649,-0.007 9.25363,0.36986 14.78076,1.73222 5.8252,1.43584 12.14686,3.96093 15.91461,6.35685 0.79832,0.50766 1.60033,1.01257 1.78223,1.12202 0.26297,0.15824 0.33073,-2.75646 0.33073,-14.22709 0,-13.71916 -0.0238,-14.43882 -0.48517,-14.68575 -1.94347,-1.04012 -10.93049,-3.22691 -16.38929,-3.98797 -8.49719,-1.18467 -22.03287,-1.37891 -29.35976,-0.42132 -14.15046,1.84941 -24.42,6.16584 -31.96934,13.43716 -5.44574,5.24519 -8.6234,10.92973 -10.20642,18.2584 -0.68124,3.15379 -0.95756,10.94719 -0.50924,14.36293 1.5788,12.02906 7.90877,21.13684 19.95014,28.70499 3.43064,2.1562 8.33896,4.56003 15.39095,7.53767 7.78167,3.28574 14.40341,6.53209 17.5948,8.62598 3.33351,2.18713 6.74049,5.62416 7.87279,7.94223 1.13854,2.33084 1.59115,5.20131 1.1739,7.44496 -1.18934,6.39535 -7.28783,10.61866 -17.12059,11.85631 -3.32518,0.41854 -12.41262,0.19272 -15.60631,-0.38783 -10.17004,-1.84871 -19.95084,-6.15583 -27.18594,-11.97175 l -1.78594,-1.43561 v 15.55903 15.55904 l 2.31511,1.02769 c 8.3027,3.6857 19.33411,5.96575 31.4114,6.49235 2.47818,0.10805 4.74391,0.2105 5.03495,0.22764 0.29104,0.0172 2.80112,-0.0754 5.57795,-0.20571 z m -96.52786,-58.41484 0.0668,-56.68698 h 19.84314 19.84315 v -12.7 -12.7 h -55.43021 -55.43021 v 12.7 12.7 h 19.71146 19.71146 v 56.57674 c 0,31.1172 0.0803,56.65704 0.17847,56.7552 0.0982,0.0982 7.21214,0.14777 15.80885,0.11025 l 15.63038,-0.0682 z"
       id="path1333" />
  </g>
</svg>
